%TF.GenerationSoftware,KiCad,Pcbnew,10.0.1*%
%TF.CreationDate,2026-06-01T22:27:08-07:00*%
%TF.ProjectId,Carry,43617272-792e-46b6-9963-61645f706362,rev?*%
%TF.SameCoordinates,Original*%
%TF.FileFunction,Legend,Bot*%
%TF.FilePolarity,Positive*%
%FSLAX46Y46*%
G04 Gerber Fmt 4.6, Leading zero omitted, Abs format (unit mm)*
G04 Created by KiCad (PCBNEW 10.0.1) date 2026-06-01 22:27:08*
%MOMM*%
%LPD*%
G01*
G04 APERTURE LIST*
%ADD10C,0.150000*%
%ADD11C,0.120000*%
G04 APERTURE END LIST*
D10*
X140967795Y-89070957D02*
X140967795Y-88070957D01*
X140967795Y-88070957D02*
X140729700Y-88070957D01*
X140729700Y-88070957D02*
X140586843Y-88118576D01*
X140586843Y-88118576D02*
X140491605Y-88213814D01*
X140491605Y-88213814D02*
X140443986Y-88309052D01*
X140443986Y-88309052D02*
X140396367Y-88499528D01*
X140396367Y-88499528D02*
X140396367Y-88642385D01*
X140396367Y-88642385D02*
X140443986Y-88832861D01*
X140443986Y-88832861D02*
X140491605Y-88928099D01*
X140491605Y-88928099D02*
X140586843Y-89023338D01*
X140586843Y-89023338D02*
X140729700Y-89070957D01*
X140729700Y-89070957D02*
X140967795Y-89070957D01*
X139443986Y-89070957D02*
X140015414Y-89070957D01*
X139729700Y-89070957D02*
X139729700Y-88070957D01*
X139729700Y-88070957D02*
X139824938Y-88213814D01*
X139824938Y-88213814D02*
X139920176Y-88309052D01*
X139920176Y-88309052D02*
X140015414Y-88356671D01*
X145225158Y-91617440D02*
X145558491Y-91141249D01*
X145796586Y-91617440D02*
X145796586Y-90617440D01*
X145796586Y-90617440D02*
X145415634Y-90617440D01*
X145415634Y-90617440D02*
X145320396Y-90665059D01*
X145320396Y-90665059D02*
X145272777Y-90712678D01*
X145272777Y-90712678D02*
X145225158Y-90807916D01*
X145225158Y-90807916D02*
X145225158Y-90950773D01*
X145225158Y-90950773D02*
X145272777Y-91046011D01*
X145272777Y-91046011D02*
X145320396Y-91093630D01*
X145320396Y-91093630D02*
X145415634Y-91141249D01*
X145415634Y-91141249D02*
X145796586Y-91141249D01*
X144844205Y-90712678D02*
X144796586Y-90665059D01*
X144796586Y-90665059D02*
X144701348Y-90617440D01*
X144701348Y-90617440D02*
X144463253Y-90617440D01*
X144463253Y-90617440D02*
X144368015Y-90665059D01*
X144368015Y-90665059D02*
X144320396Y-90712678D01*
X144320396Y-90712678D02*
X144272777Y-90807916D01*
X144272777Y-90807916D02*
X144272777Y-90903154D01*
X144272777Y-90903154D02*
X144320396Y-91046011D01*
X144320396Y-91046011D02*
X144891824Y-91617440D01*
X144891824Y-91617440D02*
X144272777Y-91617440D01*
X143713487Y-92554821D02*
X143713487Y-93364344D01*
X143713487Y-93364344D02*
X143665868Y-93459582D01*
X143665868Y-93459582D02*
X143618249Y-93507202D01*
X143618249Y-93507202D02*
X143523011Y-93554821D01*
X143523011Y-93554821D02*
X143332535Y-93554821D01*
X143332535Y-93554821D02*
X143237297Y-93507202D01*
X143237297Y-93507202D02*
X143189678Y-93459582D01*
X143189678Y-93459582D02*
X143142059Y-93364344D01*
X143142059Y-93364344D02*
X143142059Y-92554821D01*
X142713487Y-92650059D02*
X142665868Y-92602440D01*
X142665868Y-92602440D02*
X142570630Y-92554821D01*
X142570630Y-92554821D02*
X142332535Y-92554821D01*
X142332535Y-92554821D02*
X142237297Y-92602440D01*
X142237297Y-92602440D02*
X142189678Y-92650059D01*
X142189678Y-92650059D02*
X142142059Y-92745297D01*
X142142059Y-92745297D02*
X142142059Y-92840535D01*
X142142059Y-92840535D02*
X142189678Y-92983392D01*
X142189678Y-92983392D02*
X142761106Y-93554821D01*
X142761106Y-93554821D02*
X142142059Y-93554821D01*
X143179601Y-88698633D02*
X143512934Y-88222442D01*
X143751029Y-88698633D02*
X143751029Y-87698633D01*
X143751029Y-87698633D02*
X143370077Y-87698633D01*
X143370077Y-87698633D02*
X143274839Y-87746252D01*
X143274839Y-87746252D02*
X143227220Y-87793871D01*
X143227220Y-87793871D02*
X143179601Y-87889109D01*
X143179601Y-87889109D02*
X143179601Y-88031966D01*
X143179601Y-88031966D02*
X143227220Y-88127204D01*
X143227220Y-88127204D02*
X143274839Y-88174823D01*
X143274839Y-88174823D02*
X143370077Y-88222442D01*
X143370077Y-88222442D02*
X143751029Y-88222442D01*
X142846267Y-87698633D02*
X142227220Y-87698633D01*
X142227220Y-87698633D02*
X142560553Y-88079585D01*
X142560553Y-88079585D02*
X142417696Y-88079585D01*
X142417696Y-88079585D02*
X142322458Y-88127204D01*
X142322458Y-88127204D02*
X142274839Y-88174823D01*
X142274839Y-88174823D02*
X142227220Y-88270061D01*
X142227220Y-88270061D02*
X142227220Y-88508156D01*
X142227220Y-88508156D02*
X142274839Y-88603394D01*
X142274839Y-88603394D02*
X142322458Y-88651014D01*
X142322458Y-88651014D02*
X142417696Y-88698633D01*
X142417696Y-88698633D02*
X142703410Y-88698633D01*
X142703410Y-88698633D02*
X142798648Y-88651014D01*
X142798648Y-88651014D02*
X142846267Y-88603394D01*
X139160260Y-95732479D02*
X139493593Y-95256288D01*
X139731688Y-95732479D02*
X139731688Y-94732479D01*
X139731688Y-94732479D02*
X139350736Y-94732479D01*
X139350736Y-94732479D02*
X139255498Y-94780098D01*
X139255498Y-94780098D02*
X139207879Y-94827717D01*
X139207879Y-94827717D02*
X139160260Y-94922955D01*
X139160260Y-94922955D02*
X139160260Y-95065812D01*
X139160260Y-95065812D02*
X139207879Y-95161050D01*
X139207879Y-95161050D02*
X139255498Y-95208669D01*
X139255498Y-95208669D02*
X139350736Y-95256288D01*
X139350736Y-95256288D02*
X139731688Y-95256288D01*
X138207879Y-95732479D02*
X138779307Y-95732479D01*
X138493593Y-95732479D02*
X138493593Y-94732479D01*
X138493593Y-94732479D02*
X138588831Y-94875336D01*
X138588831Y-94875336D02*
X138684069Y-94970574D01*
X138684069Y-94970574D02*
X138779307Y-95018193D01*
X140316184Y-89972673D02*
X139839993Y-89639340D01*
X140316184Y-89401245D02*
X139316184Y-89401245D01*
X139316184Y-89401245D02*
X139316184Y-89782197D01*
X139316184Y-89782197D02*
X139363803Y-89877435D01*
X139363803Y-89877435D02*
X139411422Y-89925054D01*
X139411422Y-89925054D02*
X139506660Y-89972673D01*
X139506660Y-89972673D02*
X139649517Y-89972673D01*
X139649517Y-89972673D02*
X139744755Y-89925054D01*
X139744755Y-89925054D02*
X139792374Y-89877435D01*
X139792374Y-89877435D02*
X139839993Y-89782197D01*
X139839993Y-89782197D02*
X139839993Y-89401245D01*
X139649517Y-90829816D02*
X140316184Y-90829816D01*
X139268565Y-90591721D02*
X139982850Y-90353626D01*
X139982850Y-90353626D02*
X139982850Y-90972673D01*
X143772223Y-74101418D02*
X143772223Y-74815703D01*
X143772223Y-74815703D02*
X143819842Y-74958560D01*
X143819842Y-74958560D02*
X143915080Y-75053799D01*
X143915080Y-75053799D02*
X144057937Y-75101418D01*
X144057937Y-75101418D02*
X144153175Y-75101418D01*
X143343651Y-74196656D02*
X143296032Y-74149037D01*
X143296032Y-74149037D02*
X143200794Y-74101418D01*
X143200794Y-74101418D02*
X142962699Y-74101418D01*
X142962699Y-74101418D02*
X142867461Y-74149037D01*
X142867461Y-74149037D02*
X142819842Y-74196656D01*
X142819842Y-74196656D02*
X142772223Y-74291894D01*
X142772223Y-74291894D02*
X142772223Y-74387132D01*
X142772223Y-74387132D02*
X142819842Y-74529989D01*
X142819842Y-74529989D02*
X143391270Y-75101418D01*
X143391270Y-75101418D02*
X142772223Y-75101418D01*
X140433706Y-98454952D02*
X140433706Y-97454952D01*
X140433706Y-97454952D02*
X140100373Y-98169237D01*
X140100373Y-98169237D02*
X139767040Y-97454952D01*
X139767040Y-97454952D02*
X139767040Y-98454952D01*
X139290849Y-98454952D02*
X139290849Y-97454952D01*
X138719421Y-98454952D02*
X139147992Y-97883523D01*
X138719421Y-97454952D02*
X139290849Y-98026380D01*
X137767040Y-98454952D02*
X138338468Y-98454952D01*
X138052754Y-98454952D02*
X138052754Y-97454952D01*
X138052754Y-97454952D02*
X138147992Y-97597809D01*
X138147992Y-97597809D02*
X138243230Y-97693047D01*
X138243230Y-97693047D02*
X138338468Y-97740666D01*
%TO.C,D1*%
D11*
X137087519Y-83829811D02*
X137087519Y-87679811D01*
X137617519Y-87679811D02*
X140947519Y-87679811D01*
X140947519Y-83829811D02*
X137087519Y-83829811D01*
X140947519Y-87679811D02*
X140947519Y-83829811D01*
%TO.C,R2*%
X144821234Y-89210121D02*
X145295750Y-89210121D01*
X144821234Y-90255121D02*
X145295750Y-90255121D01*
%TO.C,U2*%
X142041583Y-93940002D02*
X142041583Y-93990002D01*
X142041583Y-95110002D02*
X142041583Y-95890002D01*
X142041583Y-97010002D02*
X142041583Y-97060002D01*
X142041583Y-97060002D02*
X143861583Y-97060002D01*
X143861583Y-93940002D02*
X142041583Y-93940002D01*
X143861583Y-93990002D02*
X143861583Y-93940002D01*
X143861583Y-97060002D02*
X143861583Y-97010002D01*
X144401583Y-93990002D02*
X144161583Y-93660002D01*
X144641583Y-93660002D01*
X144401583Y-93990002D01*
G36*
X144401583Y-93990002D02*
G01*
X144161583Y-93660002D01*
X144641583Y-93660002D01*
X144401583Y-93990002D01*
G37*
%TO.C,R3*%
X142775677Y-86291314D02*
X143250193Y-86291314D01*
X142775677Y-87336314D02*
X143250193Y-87336314D01*
%TO.C,R1*%
X138756336Y-93325160D02*
X139230852Y-93325160D01*
X138756336Y-94370160D02*
X139230852Y-94370160D01*
%TO.C,R4*%
X137908865Y-90376598D02*
X137908865Y-89902082D01*
X138953865Y-90376598D02*
X138953865Y-89902082D01*
%TO.C,J2*%
X138414631Y-79543139D02*
X139024631Y-79543139D01*
X138414631Y-80843139D02*
X139024631Y-80843139D01*
X139024631Y-78843139D02*
X140974631Y-78843139D01*
X139024631Y-82343139D02*
X139024631Y-78843139D01*
X140974631Y-78843139D02*
X140974631Y-78233139D01*
X141374631Y-81843139D02*
X141374631Y-82343139D01*
X141474631Y-82343139D02*
X141474631Y-81843139D01*
X141574631Y-81843139D02*
X141374631Y-81843139D01*
X141574631Y-82343139D02*
X141574631Y-81843139D01*
X141974631Y-78233139D02*
X141974631Y-78843139D01*
X141974631Y-78843139D02*
X143924631Y-78843139D01*
X142774631Y-78033139D02*
X143074631Y-78033139D01*
X142774631Y-78133139D02*
X143074631Y-78133139D01*
X142774631Y-78233139D02*
X142774631Y-78033139D01*
X143074631Y-78033139D02*
X143074631Y-78233139D01*
X143584631Y-77933139D02*
X144834631Y-77933139D01*
X143924631Y-78843139D02*
X143924631Y-82343139D01*
X143924631Y-82343139D02*
X139024631Y-82343139D01*
X144534631Y-79543139D02*
X143924631Y-79543139D01*
X144534631Y-80843139D02*
X143924631Y-80843139D01*
X144834631Y-77933139D02*
X144834631Y-79183139D01*
X138414631Y-78233139D02*
X144534631Y-78233139D01*
X144534631Y-82953139D01*
X138414631Y-82953139D01*
X138414631Y-78233139D01*
%TO.C,MK1*%
X137699183Y-99150133D02*
X137699183Y-102850133D01*
X137699183Y-102850133D02*
X140549183Y-102850133D01*
X140249183Y-99150133D02*
X137699183Y-99150133D01*
X140549183Y-102850133D02*
X140549183Y-99450133D01*
X140829183Y-99150133D02*
X140549183Y-99150133D01*
X140549183Y-98870133D01*
X140829183Y-99150133D01*
G36*
X140829183Y-99150133D02*
G01*
X140549183Y-99150133D01*
X140549183Y-98870133D01*
X140829183Y-99150133D01*
G37*
%TD*%
M02*
