%TF.GenerationSoftware,KiCad,Pcbnew,10.0.1*%
%TF.CreationDate,2026-06-01T22:27:08-07:00*%
%TF.ProjectId,Carry,43617272-792e-46b6-9963-61645f706362,rev?*%
%TF.SameCoordinates,Original*%
%TF.FileFunction,Copper,L2,Bot*%
%TF.FilePolarity,Positive*%
%FSLAX46Y46*%
G04 Gerber Fmt 4.6, Leading zero omitted, Abs format (unit mm)*
G04 Created by KiCad (PCBNEW 10.0.1) date 2026-06-01 22:27:08*
%MOMM*%
%LPD*%
G01*
G04 APERTURE LIST*
G04 Aperture macros list*
%AMRoundRect*
0 Rectangle with rounded corners*
0 $1 Rounding radius*
0 $2 $3 $4 $5 $6 $7 $8 $9 X,Y pos of 4 corners*
0 Add a 4 corners polygon primitive as box body*
4,1,4,$2,$3,$4,$5,$6,$7,$8,$9,$2,$3,0*
0 Add four circle primitives for the rounded corners*
1,1,$1+$1,$2,$3*
1,1,$1+$1,$4,$5*
1,1,$1+$1,$6,$7*
1,1,$1+$1,$8,$9*
0 Add four rect primitives between the rounded corners*
20,1,$1+$1,$2,$3,$4,$5,0*
20,1,$1+$1,$4,$5,$6,$7,0*
20,1,$1+$1,$6,$7,$8,$9,0*
20,1,$1+$1,$8,$9,$2,$3,0*%
%AMFreePoly0*
4,1,64,0.031746,0.146090,0.079590,0.146090,0.235711,0.115036,0.382774,0.054120,0.515127,-0.034316,0.627684,-0.146873,0.716120,-0.279226,0.777036,-0.426289,0.808090,-0.582410,0.808090,-0.741590,0.777036,-0.897711,0.716120,-1.044774,0.627684,-1.177127,0.515127,-1.289684,0.382774,-1.378120,0.235711,-1.439036,0.079590,-1.470090,-0.079590,-1.470090,-0.235711,-1.439036,-0.382774,-1.378120,
-0.515127,-1.289684,-0.627684,-1.177127,-0.716120,-1.044774,-0.777036,-0.897711,-0.808090,-0.741590,-0.808090,-0.594594,-0.512000,-0.594594,-0.512000,-0.729406,-0.477108,-0.859625,-0.409702,-0.976375,-0.314375,-1.071702,-0.197625,-1.139108,-0.067406,-1.174000,0.067406,-1.174000,0.197625,-1.139108,0.314375,-1.071702,0.409702,-0.976375,0.477108,-0.859625,0.512000,-0.729406,0.512000,-0.594594,
0.477108,-0.464375,0.409702,-0.347625,0.314375,-0.252298,0.197625,-0.184892,0.067406,-0.150000,-0.067406,-0.150000,-0.197625,-0.184892,-0.314375,-0.252298,-0.409702,-0.347625,-0.477108,-0.464375,-0.512000,-0.594594,-0.808090,-0.594594,-0.808090,-0.582410,-0.777036,-0.426289,-0.716120,-0.279226,-0.627684,-0.146873,-0.515127,-0.034316,-0.382774,0.054120,-0.235711,0.115036,-0.079590,0.146090,
-0.031746,0.146090,-0.029264,0.147118,0.029264,0.147118,0.031746,0.146090,0.031746,0.146090,$1*%
G04 Aperture macros list end*
%TA.AperFunction,ComponentPad*%
%ADD10RoundRect,0.190500X-1.079500X-0.444500X1.079500X-0.444500X1.079500X0.444500X-1.079500X0.444500X0*%
%TD*%
%TA.AperFunction,SMDPad,CuDef*%
%ADD11R,0.550000X0.380000*%
%TD*%
%TA.AperFunction,SMDPad,CuDef*%
%ADD12R,1.400000X1.200000*%
%TD*%
%TA.AperFunction,SMDPad,CuDef*%
%ADD13RoundRect,0.200000X-0.200000X-0.275000X0.200000X-0.275000X0.200000X0.275000X-0.200000X0.275000X0*%
%TD*%
%TA.AperFunction,SMDPad,CuDef*%
%ADD14RoundRect,0.150000X0.512500X0.150000X-0.512500X0.150000X-0.512500X-0.150000X0.512500X-0.150000X0*%
%TD*%
%TA.AperFunction,SMDPad,CuDef*%
%ADD15RoundRect,0.200000X0.275000X-0.200000X0.275000X0.200000X-0.275000X0.200000X-0.275000X-0.200000X0*%
%TD*%
%TA.AperFunction,ComponentPad*%
%ADD16RoundRect,0.250000X0.350000X0.625000X-0.350000X0.625000X-0.350000X-0.625000X0.350000X-0.625000X0*%
%TD*%
%TA.AperFunction,ComponentPad*%
%ADD17O,1.200000X1.750000*%
%TD*%
%TA.AperFunction,SMDPad,CuDef*%
%ADD18RoundRect,0.130500X0.169500X0.130500X-0.169500X0.130500X-0.169500X-0.130500X0.169500X-0.130500X0*%
%TD*%
%TA.AperFunction,SMDPad,CuDef*%
%ADD19FreePoly0,90.000000*%
%TD*%
%TA.AperFunction,ViaPad*%
%ADD20C,0.600000*%
%TD*%
%TA.AperFunction,ViaPad*%
%ADD21C,0.300000*%
%TD*%
%TA.AperFunction,Conductor*%
%ADD22C,0.200000*%
%TD*%
G04 APERTURE END LIST*
D10*
%TO.P,U1,1,VBUS_1*%
%TO.N,Net-(J1-Pin_1)*%
X130580000Y-78500000D03*
%TO.P,U1,2,GND_2*%
%TO.N,GND*%
X130580000Y-81040000D03*
%TO.P,U1,3,VCC_3V3_3*%
%TO.N,Net-(MK1-VDD)*%
X130580000Y-83580000D03*
%TO.P,U1,4,UART2_TX_4*%
%TO.N,unconnected-(U1-UART2_TX-Pad4)*%
X130580000Y-86120000D03*
%TO.P,U1,5,UART2_RX_5*%
%TO.N,unconnected-(U1-UART2_RX-Pad5)*%
X130580000Y-88660000D03*
%TO.P,U1,6,GPIO1_C0_d_6*%
%TO.N,/MIC_DATA*%
X130584025Y-91249845D03*
%TO.P,U1,7,GPIO1_C1_d_7*%
%TO.N,Net-(MK1-BCLK)*%
X130580000Y-93740000D03*
%TO.P,U1,8,GPIO1_C2_d_8*%
%TO.N,Net-(MK1-WS)*%
X130580000Y-96280000D03*
%TO.P,U1,9,GPIO1_C3_d_9*%
%TO.N,unconnected-(U1-GPIO1_C3_d-Pad9)*%
X130580000Y-98820000D03*
%TO.P,U1,10,GPIO1_C4_d_10*%
%TO.N,unconnected-(U1-GPIO1_C4_d-Pad10)*%
X130580000Y-101360000D03*
%TO.P,U1,11,GPIO1_C5_d_11*%
%TO.N,unconnected-(U1-GPIO1_C5_d-Pad11)*%
X130580000Y-103900000D03*
%TO.P,U1,12,GPIO1_D0_d_12*%
%TO.N,unconnected-(U1-GPIO1_D0_d-Pad12)*%
X148360000Y-103900000D03*
%TO.P,U1,13,GPIO1_D1_d_13*%
%TO.N,unconnected-(U1-GPIO1_D1_d-Pad13)*%
X148360000Y-101360000D03*
%TO.P,U1,14,GPIO1_D2_d_14*%
%TO.N,unconnected-(U1-GPIO1_D2_d-Pad14)*%
X148360000Y-98820000D03*
%TO.P,U1,15,GPIO1_D3_d_15*%
%TO.N,unconnected-(U1-GPIO1_D3_d-Pad15)*%
X148360000Y-96280000D03*
%TO.P,U1,16,GPIO1_C6_d_16*%
%TO.N,unconnected-(U1-GPIO1_C6_d-Pad16)*%
X148360000Y-93740000D03*
%TO.P,U1,17,GPIO1_C7_d_17*%
%TO.N,unconnected-(U1-GPIO1_C7_d-Pad17)*%
X148360000Y-91200000D03*
%TO.P,U1,18,GPIO0_A4_d_18*%
%TO.N,unconnected-(U1-GPIO0_A4_d-Pad18)*%
X148360000Y-88660000D03*
%TO.P,U1,19,GPIO4_C0_z_19*%
%TO.N,unconnected-(U1-GPIO4_C0_z-Pad19)*%
X148360000Y-86120000D03*
%TO.P,U1,20,GPIO4_C1_z_20*%
%TO.N,Net-(U1-GPIO4_C1_z)*%
X148360000Y-83580000D03*
%TO.P,U1,21,GND_21*%
%TO.N,GND*%
X148345563Y-81040000D03*
%TO.P,U1,22,1V8_OUT_22*%
%TO.N,unconnected-(U1-1V8_OUT-Pad22)*%
X148360000Y-78500000D03*
%TD*%
D11*
%TO.P,D1,1,A1_1*%
%TO.N,Net-(D1-A1)*%
X138567519Y-86699811D03*
%TO.P,D1,2,A2_2*%
%TO.N,Net-(D1-A2)*%
X139467519Y-86699811D03*
D12*
%TO.P,D1,3,K_3*%
%TO.N,GND*%
X139017519Y-85659811D03*
%TD*%
D13*
%TO.P,R2,1*%
%TO.N,Net-(U2-STAT)*%
X144233492Y-89732621D03*
%TO.P,R2,2*%
%TO.N,Net-(J1-Pin_1)*%
X145883492Y-89732621D03*
%TD*%
D14*
%TO.P,U2,1,STAT_1*%
%TO.N,Net-(U2-STAT)*%
X144089083Y-94550002D03*
%TO.P,U2,2,V_{SS}_2*%
%TO.N,GND*%
X144089083Y-95500002D03*
%TO.P,U2,3,V_{BAT}_3*%
%TO.N,Net-(J1-Pin_1)*%
X144089083Y-96450002D03*
%TO.P,U2,4,V_{DD}_4*%
X141814083Y-96450002D03*
%TO.P,U2,5,PROG_5*%
%TO.N,Net-(U2-PROG)*%
X141814083Y-94550002D03*
%TD*%
D13*
%TO.P,R3,1*%
%TO.N,Net-(D1-A2)*%
X142187935Y-86813814D03*
%TO.P,R3,2*%
%TO.N,Net-(U1-GPIO4_C1_z)*%
X143837935Y-86813814D03*
%TD*%
%TO.P,R1,1*%
%TO.N,GND*%
X138168594Y-93847660D03*
%TO.P,R1,2*%
%TO.N,Net-(U2-PROG)*%
X139818594Y-93847660D03*
%TD*%
D15*
%TO.P,R4,1*%
%TO.N,Net-(U2-STAT)*%
X138431365Y-90964340D03*
%TO.P,R4,2*%
%TO.N,Net-(D1-A1)*%
X138431365Y-89314340D03*
%TD*%
D16*
%TO.P,J2,1,Pin_1_1*%
%TO.N,Net-(J1-Pin_1)*%
X142474631Y-80043139D03*
D17*
%TO.P,J2,2,Pin_2_2*%
%TO.N,GND*%
X140474631Y-80043139D03*
%TD*%
D18*
%TO.P,MK1,1,WS_1*%
%TO.N,Net-(MK1-WS)*%
X140024183Y-99636133D03*
%TO.P,MK1,2,SEL_2*%
%TO.N,GND*%
X140024183Y-100458133D03*
D19*
%TO.P,MK1,3,GND_3*%
X138462183Y-101710133D03*
D18*
%TO.P,MK1,4,BCLK_4*%
%TO.N,Net-(MK1-BCLK)*%
X138224183Y-100458133D03*
%TO.P,MK1,5,VDD_5*%
%TO.N,Net-(MK1-VDD)*%
X138224183Y-99636133D03*
%TO.P,MK1,6,DATA_6*%
%TO.N,/MIC_DATA*%
X139124183Y-99636133D03*
%TD*%
D20*
%TO.N,Net-(J1-Pin_1)*%
X146072852Y-86715678D03*
%TO.N,/MIC_DATA*%
X134344544Y-93740000D03*
X136344544Y-95664544D03*
D21*
%TO.N,Net-(MK1-WS)*%
X138358795Y-97042397D03*
%TD*%
%TO.N,Net-(J1-Pin_1)*%
D22*
X141299631Y-81218139D02*
X133298139Y-81218139D01*
X144089083Y-96450002D02*
X144751582Y-96450002D01*
X133298139Y-81218139D02*
X130580000Y-78500000D01*
X141814083Y-96450002D02*
X144184081Y-98820000D01*
X144580000Y-98820000D02*
X145883492Y-97516508D01*
X142474631Y-80043139D02*
X141299631Y-81218139D01*
X144184081Y-98820000D02*
X144580000Y-98820000D01*
X145883492Y-97516508D02*
X145883492Y-95318092D01*
X145883492Y-89732621D02*
X145883492Y-86905038D01*
X145883492Y-95318092D02*
X145883492Y-89732621D01*
X145883492Y-86905038D02*
X146072852Y-86715678D01*
X144751582Y-96450002D02*
X145883492Y-95318092D01*
%TO.N,Net-(MK1-VDD)*%
X134944544Y-87944544D02*
X130580000Y-83580000D01*
X138224183Y-99636133D02*
X134944544Y-96356494D01*
X134944544Y-96356494D02*
X134944544Y-87944544D01*
%TO.N,/MIC_DATA*%
X131854389Y-91249845D02*
X130584025Y-91249845D01*
X134344544Y-93740000D02*
X131854389Y-91249845D01*
X139124183Y-99636133D02*
X139124183Y-98444183D01*
X139124183Y-98444183D02*
X136344544Y-95664544D01*
%TO.N,Net-(MK1-BCLK)*%
X137298133Y-100458133D02*
X130580000Y-93740000D01*
X138224183Y-100458133D02*
X137298133Y-100458133D01*
%TO.N,Net-(MK1-WS)*%
X140024183Y-99636133D02*
X140024183Y-98707785D01*
X140024183Y-98707785D02*
X138358795Y-97042397D01*
%TO.N,Net-(U1-GPIO4_C1_z)*%
X145185997Y-86754003D02*
X143897746Y-86754003D01*
X148360000Y-83580000D02*
X145185997Y-86754003D01*
X143897746Y-86754003D02*
X143837935Y-86813814D01*
%TO.N,Net-(D1-A1)*%
X138431365Y-89314340D02*
X138431365Y-86835965D01*
X138431365Y-86835965D02*
X138567519Y-86699811D01*
%TO.N,Net-(D1-A2)*%
X139521711Y-86754003D02*
X139467519Y-86699811D01*
X142187935Y-86813814D02*
X142128124Y-86754003D01*
X142128124Y-86754003D02*
X139521711Y-86754003D01*
%TO.N,Net-(U2-STAT)*%
X138431365Y-90964340D02*
X143001773Y-90964340D01*
X144233492Y-89732621D02*
X144233492Y-94405593D01*
X144233492Y-94405593D02*
X144089083Y-94550002D01*
X143001773Y-90964340D02*
X144233492Y-89732621D01*
%TO.N,Net-(U2-PROG)*%
X141814083Y-94550002D02*
X140520936Y-94550002D01*
X140520936Y-94550002D02*
X139818594Y-93847660D01*
%TD*%
%TA.AperFunction,Conductor*%
%TO.N,GND*%
G36*
X147064991Y-77400185D02*
G01*
X147110746Y-77452989D01*
X147120690Y-77522147D01*
X147091665Y-77585703D01*
X147049903Y-77614698D01*
X147050549Y-77615880D01*
X147042769Y-77620127D01*
X146929740Y-77704740D01*
X146845127Y-77817769D01*
X146795788Y-77950050D01*
X146795787Y-77950055D01*
X146789500Y-78008519D01*
X146789500Y-78991480D01*
X146795787Y-79049944D01*
X146795788Y-79049949D01*
X146845127Y-79182230D01*
X146845128Y-79182231D01*
X146929740Y-79295260D01*
X147042769Y-79379872D01*
X147042768Y-79379872D01*
X147175050Y-79429211D01*
X147175053Y-79429211D01*
X147175057Y-79429213D01*
X147203513Y-79432272D01*
X147233519Y-79435499D01*
X147233536Y-79435500D01*
X149486464Y-79435500D01*
X149486480Y-79435499D01*
X149512587Y-79432691D01*
X149544943Y-79429213D01*
X149544946Y-79429212D01*
X149582165Y-79415330D01*
X149651856Y-79410344D01*
X149713180Y-79443829D01*
X149746666Y-79505151D01*
X149749500Y-79531511D01*
X149749500Y-82548488D01*
X149729815Y-82615527D01*
X149677011Y-82661282D01*
X149607853Y-82671226D01*
X149582167Y-82664670D01*
X149544944Y-82650787D01*
X149486480Y-82644500D01*
X149486464Y-82644500D01*
X147233536Y-82644500D01*
X147233519Y-82644500D01*
X147175055Y-82650787D01*
X147175050Y-82650788D01*
X147042769Y-82700127D01*
X146929740Y-82784740D01*
X146845127Y-82897769D01*
X146795788Y-83030050D01*
X146795787Y-83030055D01*
X146789500Y-83088519D01*
X146789500Y-84071480D01*
X146795787Y-84129944D01*
X146795788Y-84129949D01*
X146845127Y-84262230D01*
X146894721Y-84328480D01*
X146919137Y-84393945D01*
X146904285Y-84462217D01*
X146883134Y-84490471D01*
X145056423Y-86317184D01*
X144995100Y-86350669D01*
X144968742Y-86353503D01*
X144586439Y-86353503D01*
X144519400Y-86333818D01*
X144489531Y-86301723D01*
X144487047Y-86303583D01*
X144395482Y-86181269D01*
X144395479Y-86181266D01*
X144280270Y-86095020D01*
X144280263Y-86095016D01*
X144145421Y-86044724D01*
X144145420Y-86044723D01*
X144145418Y-86044723D01*
X144085808Y-86038314D01*
X144085798Y-86038314D01*
X143590064Y-86038314D01*
X143590058Y-86038315D01*
X143530451Y-86044722D01*
X143395606Y-86095016D01*
X143395599Y-86095020D01*
X143280390Y-86181266D01*
X143280387Y-86181269D01*
X143194141Y-86296478D01*
X143194137Y-86296485D01*
X143143845Y-86431327D01*
X143143844Y-86431331D01*
X143137435Y-86490941D01*
X143137435Y-86490948D01*
X143137435Y-86490949D01*
X143137435Y-87136684D01*
X143137436Y-87136690D01*
X143143843Y-87196297D01*
X143194137Y-87331142D01*
X143194141Y-87331149D01*
X143280387Y-87446358D01*
X143280390Y-87446361D01*
X143395599Y-87532607D01*
X143395606Y-87532611D01*
X143440553Y-87549375D01*
X143530452Y-87582905D01*
X143590062Y-87589314D01*
X144085807Y-87589313D01*
X144145418Y-87582905D01*
X144280266Y-87532610D01*
X144395481Y-87446360D01*
X144481731Y-87331145D01*
X144498583Y-87285964D01*
X144517527Y-87235171D01*
X144559397Y-87179237D01*
X144624862Y-87154819D01*
X144633709Y-87154503D01*
X145238721Y-87154503D01*
X145238724Y-87154503D01*
X145326902Y-87130876D01*
X145396748Y-87132539D01*
X145454611Y-87171701D01*
X145482115Y-87235930D01*
X145482992Y-87250651D01*
X145482992Y-88920440D01*
X145463307Y-88987479D01*
X145433304Y-89019706D01*
X145325944Y-89100076D01*
X145239698Y-89215285D01*
X145239694Y-89215292D01*
X145192350Y-89342230D01*
X145189401Y-89350138D01*
X145182992Y-89409748D01*
X145182992Y-89409755D01*
X145182992Y-89409756D01*
X145182992Y-90055491D01*
X145182993Y-90055497D01*
X145189400Y-90115104D01*
X145239694Y-90249949D01*
X145239698Y-90249956D01*
X145308850Y-90342330D01*
X145325946Y-90365167D01*
X145433303Y-90445535D01*
X145475174Y-90501468D01*
X145482992Y-90544801D01*
X145482992Y-95100836D01*
X145463307Y-95167875D01*
X145446673Y-95188517D01*
X144812900Y-95822289D01*
X144751577Y-95855774D01*
X144694027Y-95852249D01*
X144693653Y-95853966D01*
X144686277Y-95852355D01*
X144655853Y-95849502D01*
X144655849Y-95849502D01*
X143522317Y-95849502D01*
X143522313Y-95849502D01*
X143491883Y-95852355D01*
X143491881Y-95852355D01*
X143363702Y-95897208D01*
X143363700Y-95897209D01*
X143254433Y-95977852D01*
X143173790Y-96087119D01*
X143173789Y-96087121D01*
X143128936Y-96215300D01*
X143128936Y-96215302D01*
X143126083Y-96245732D01*
X143126083Y-96654271D01*
X143128936Y-96684701D01*
X143128936Y-96684703D01*
X143173789Y-96812882D01*
X143173790Y-96812884D01*
X143254433Y-96922152D01*
X143363701Y-97002795D01*
X143406428Y-97017746D01*
X143491882Y-97047648D01*
X143522313Y-97050502D01*
X143522317Y-97050502D01*
X144655853Y-97050502D01*
X144686282Y-97047648D01*
X144686284Y-97047648D01*
X144750373Y-97025221D01*
X144814465Y-97002795D01*
X144923733Y-96922152D01*
X145004376Y-96812884D01*
X145021555Y-96763786D01*
X145050913Y-96717062D01*
X145271312Y-96496664D01*
X145332634Y-96463180D01*
X145402326Y-96468164D01*
X145458259Y-96510036D01*
X145482676Y-96575500D01*
X145482992Y-96584346D01*
X145482992Y-97299253D01*
X145463307Y-97366292D01*
X145446673Y-97386934D01*
X144469721Y-98363885D01*
X144408398Y-98397370D01*
X144338706Y-98392386D01*
X144294359Y-98363885D01*
X142788094Y-96857620D01*
X142754609Y-96796297D01*
X142758734Y-96728983D01*
X142774229Y-96684700D01*
X142777083Y-96654271D01*
X142777083Y-96245732D01*
X142774229Y-96215302D01*
X142774229Y-96215300D01*
X142737108Y-96109216D01*
X142729376Y-96087120D01*
X142648733Y-95977852D01*
X142539465Y-95897209D01*
X142539463Y-95897208D01*
X142411283Y-95852355D01*
X142380853Y-95849502D01*
X142380849Y-95849502D01*
X141247317Y-95849502D01*
X141247313Y-95849502D01*
X141216883Y-95852355D01*
X141216881Y-95852355D01*
X141088702Y-95897208D01*
X141088700Y-95897209D01*
X140979433Y-95977852D01*
X140898790Y-96087119D01*
X140898789Y-96087121D01*
X140853936Y-96215300D01*
X140853936Y-96215302D01*
X140851083Y-96245732D01*
X140851083Y-96654271D01*
X140853936Y-96684701D01*
X140853936Y-96684703D01*
X140898789Y-96812882D01*
X140898790Y-96812884D01*
X140979433Y-96922152D01*
X141088701Y-97002795D01*
X141131428Y-97017746D01*
X141216882Y-97047648D01*
X141247313Y-97050502D01*
X141247317Y-97050502D01*
X141796828Y-97050502D01*
X141863867Y-97070187D01*
X141884509Y-97086821D01*
X143863600Y-99065912D01*
X143863601Y-99065913D01*
X143938168Y-99140480D01*
X144029494Y-99193207D01*
X144131354Y-99220500D01*
X144131356Y-99220500D01*
X144632725Y-99220500D01*
X144632727Y-99220500D01*
X144734588Y-99193207D01*
X144825913Y-99140480D01*
X146203972Y-97762421D01*
X146256699Y-97671096D01*
X146283992Y-97569235D01*
X146283992Y-97463781D01*
X146283992Y-95265365D01*
X146283992Y-90544801D01*
X146303677Y-90477762D01*
X146333679Y-90445535D01*
X146441038Y-90365167D01*
X146527288Y-90249952D01*
X146577583Y-90115104D01*
X146583992Y-90055494D01*
X146583991Y-89409749D01*
X146577583Y-89350138D01*
X146527288Y-89215290D01*
X146527287Y-89215289D01*
X146527285Y-89215285D01*
X146441039Y-89100076D01*
X146333680Y-89019706D01*
X146291810Y-88963772D01*
X146283992Y-88920440D01*
X146283992Y-87358765D01*
X146303677Y-87291726D01*
X146345991Y-87251378D01*
X146441568Y-87196198D01*
X146553372Y-87084394D01*
X146632429Y-86947462D01*
X146651084Y-86877838D01*
X146687447Y-86818181D01*
X146750294Y-86787651D01*
X146819670Y-86795945D01*
X146870124Y-86835622D01*
X146929740Y-86915260D01*
X147042769Y-86999872D01*
X147042768Y-86999872D01*
X147175050Y-87049211D01*
X147175053Y-87049211D01*
X147175057Y-87049213D01*
X147203513Y-87052272D01*
X147233519Y-87055499D01*
X147233536Y-87055500D01*
X149486464Y-87055500D01*
X149486480Y-87055499D01*
X149512587Y-87052691D01*
X149544943Y-87049213D01*
X149544946Y-87049212D01*
X149582165Y-87035330D01*
X149651856Y-87030344D01*
X149713180Y-87063829D01*
X149746666Y-87125151D01*
X149749500Y-87151511D01*
X149749500Y-87628488D01*
X149729815Y-87695527D01*
X149677011Y-87741282D01*
X149607853Y-87751226D01*
X149582167Y-87744670D01*
X149544944Y-87730787D01*
X149486480Y-87724500D01*
X149486464Y-87724500D01*
X147233536Y-87724500D01*
X147233519Y-87724500D01*
X147175055Y-87730787D01*
X147175050Y-87730788D01*
X147042769Y-87780127D01*
X146929740Y-87864740D01*
X146845127Y-87977769D01*
X146795788Y-88110050D01*
X146795787Y-88110055D01*
X146789500Y-88168519D01*
X146789500Y-89151480D01*
X146795787Y-89209944D01*
X146795788Y-89209949D01*
X146845127Y-89342230D01*
X146845128Y-89342231D01*
X146929740Y-89455260D01*
X147042769Y-89539872D01*
X147042768Y-89539872D01*
X147175050Y-89589211D01*
X147175053Y-89589211D01*
X147175057Y-89589213D01*
X147203513Y-89592272D01*
X147233519Y-89595499D01*
X147233536Y-89595500D01*
X149486464Y-89595500D01*
X149486480Y-89595499D01*
X149512587Y-89592691D01*
X149544943Y-89589213D01*
X149544946Y-89589212D01*
X149582165Y-89575330D01*
X149651856Y-89570344D01*
X149713180Y-89603829D01*
X149746666Y-89665151D01*
X149749500Y-89691511D01*
X149749500Y-90168488D01*
X149729815Y-90235527D01*
X149677011Y-90281282D01*
X149607853Y-90291226D01*
X149582167Y-90284670D01*
X149544944Y-90270787D01*
X149486480Y-90264500D01*
X149486464Y-90264500D01*
X147233536Y-90264500D01*
X147233519Y-90264500D01*
X147175055Y-90270787D01*
X147175050Y-90270788D01*
X147042769Y-90320127D01*
X146929740Y-90404740D01*
X146845127Y-90517769D01*
X146795788Y-90650050D01*
X146795787Y-90650055D01*
X146789500Y-90708519D01*
X146789500Y-91691480D01*
X146795787Y-91749944D01*
X146795788Y-91749949D01*
X146845127Y-91882230D01*
X146845128Y-91882231D01*
X146929740Y-91995260D01*
X147042769Y-92079872D01*
X147042768Y-92079872D01*
X147175050Y-92129211D01*
X147175053Y-92129211D01*
X147175057Y-92129213D01*
X147203513Y-92132272D01*
X147233519Y-92135499D01*
X147233536Y-92135500D01*
X149486464Y-92135500D01*
X149486480Y-92135499D01*
X149512587Y-92132691D01*
X149544943Y-92129213D01*
X149544946Y-92129212D01*
X149582165Y-92115330D01*
X149651856Y-92110344D01*
X149713180Y-92143829D01*
X149746666Y-92205151D01*
X149749500Y-92231511D01*
X149749500Y-92708488D01*
X149729815Y-92775527D01*
X149677011Y-92821282D01*
X149607853Y-92831226D01*
X149582167Y-92824670D01*
X149544944Y-92810787D01*
X149486480Y-92804500D01*
X149486464Y-92804500D01*
X147233536Y-92804500D01*
X147233519Y-92804500D01*
X147175055Y-92810787D01*
X147175050Y-92810788D01*
X147042769Y-92860127D01*
X146929740Y-92944740D01*
X146845127Y-93057769D01*
X146795788Y-93190050D01*
X146795787Y-93190055D01*
X146789500Y-93248519D01*
X146789500Y-94231480D01*
X146795787Y-94289944D01*
X146795788Y-94289949D01*
X146845127Y-94422230D01*
X146845128Y-94422231D01*
X146929740Y-94535260D01*
X147042769Y-94619872D01*
X147042768Y-94619872D01*
X147175050Y-94669211D01*
X147175053Y-94669211D01*
X147175057Y-94669213D01*
X147203513Y-94672272D01*
X147233519Y-94675499D01*
X147233536Y-94675500D01*
X149486464Y-94675500D01*
X149486480Y-94675499D01*
X149512587Y-94672691D01*
X149544943Y-94669213D01*
X149544946Y-94669212D01*
X149582165Y-94655330D01*
X149651856Y-94650344D01*
X149713180Y-94683829D01*
X149746666Y-94745151D01*
X149749500Y-94771511D01*
X149749500Y-95248488D01*
X149729815Y-95315527D01*
X149677011Y-95361282D01*
X149607853Y-95371226D01*
X149582167Y-95364670D01*
X149544944Y-95350787D01*
X149486480Y-95344500D01*
X149486464Y-95344500D01*
X147233536Y-95344500D01*
X147233519Y-95344500D01*
X147175055Y-95350787D01*
X147175050Y-95350788D01*
X147042769Y-95400127D01*
X146929740Y-95484740D01*
X146845127Y-95597769D01*
X146795788Y-95730050D01*
X146795787Y-95730055D01*
X146789500Y-95788519D01*
X146789500Y-96771480D01*
X146795787Y-96829944D01*
X146795788Y-96829949D01*
X146845127Y-96962230D01*
X146845128Y-96962231D01*
X146929740Y-97075260D01*
X147042769Y-97159872D01*
X147042768Y-97159872D01*
X147175050Y-97209211D01*
X147175053Y-97209211D01*
X147175057Y-97209213D01*
X147203513Y-97212272D01*
X147233519Y-97215499D01*
X147233536Y-97215500D01*
X149486464Y-97215500D01*
X149486480Y-97215499D01*
X149512587Y-97212691D01*
X149544943Y-97209213D01*
X149544946Y-97209212D01*
X149582165Y-97195330D01*
X149651856Y-97190344D01*
X149713180Y-97223829D01*
X149746666Y-97285151D01*
X149749500Y-97311511D01*
X149749500Y-97788488D01*
X149729815Y-97855527D01*
X149677011Y-97901282D01*
X149607853Y-97911226D01*
X149582167Y-97904670D01*
X149544944Y-97890787D01*
X149486480Y-97884500D01*
X149486464Y-97884500D01*
X147233536Y-97884500D01*
X147233519Y-97884500D01*
X147175055Y-97890787D01*
X147175050Y-97890788D01*
X147042769Y-97940127D01*
X146929740Y-98024740D01*
X146845127Y-98137769D01*
X146795788Y-98270050D01*
X146795787Y-98270055D01*
X146789500Y-98328519D01*
X146789500Y-99311480D01*
X146795787Y-99369944D01*
X146795788Y-99369949D01*
X146845127Y-99502230D01*
X146845128Y-99502231D01*
X146929740Y-99615260D01*
X147042769Y-99699872D01*
X147042768Y-99699872D01*
X147175050Y-99749211D01*
X147175053Y-99749211D01*
X147175057Y-99749213D01*
X147203513Y-99752272D01*
X147233519Y-99755499D01*
X147233536Y-99755500D01*
X149486464Y-99755500D01*
X149486480Y-99755499D01*
X149512587Y-99752691D01*
X149544943Y-99749213D01*
X149544946Y-99749212D01*
X149582165Y-99735330D01*
X149651856Y-99730344D01*
X149713180Y-99763829D01*
X149746666Y-99825151D01*
X149749500Y-99851511D01*
X149749500Y-100328488D01*
X149729815Y-100395527D01*
X149677011Y-100441282D01*
X149607853Y-100451226D01*
X149582167Y-100444670D01*
X149544944Y-100430787D01*
X149486480Y-100424500D01*
X149486464Y-100424500D01*
X147233536Y-100424500D01*
X147233519Y-100424500D01*
X147175055Y-100430787D01*
X147175050Y-100430788D01*
X147042769Y-100480127D01*
X146929740Y-100564740D01*
X146845127Y-100677769D01*
X146795788Y-100810050D01*
X146795787Y-100810055D01*
X146789500Y-100868519D01*
X146789500Y-101851480D01*
X146795787Y-101909944D01*
X146795788Y-101909949D01*
X146845127Y-102042230D01*
X146845128Y-102042231D01*
X146929740Y-102155260D01*
X147042769Y-102239872D01*
X147042768Y-102239872D01*
X147175050Y-102289211D01*
X147175053Y-102289211D01*
X147175057Y-102289213D01*
X147203513Y-102292272D01*
X147233519Y-102295499D01*
X147233536Y-102295500D01*
X149486464Y-102295500D01*
X149486480Y-102295499D01*
X149512587Y-102292691D01*
X149544943Y-102289213D01*
X149544946Y-102289212D01*
X149582165Y-102275330D01*
X149651856Y-102270344D01*
X149713180Y-102303829D01*
X149746666Y-102365151D01*
X149749500Y-102391511D01*
X149749500Y-102868488D01*
X149729815Y-102935527D01*
X149677011Y-102981282D01*
X149607853Y-102991226D01*
X149582167Y-102984670D01*
X149544944Y-102970787D01*
X149486480Y-102964500D01*
X149486464Y-102964500D01*
X147233536Y-102964500D01*
X147233519Y-102964500D01*
X147175055Y-102970787D01*
X147175050Y-102970788D01*
X147042769Y-103020127D01*
X146929740Y-103104740D01*
X146845127Y-103217769D01*
X146795788Y-103350050D01*
X146795787Y-103350055D01*
X146789500Y-103408519D01*
X146789500Y-104391480D01*
X146795787Y-104449944D01*
X146795788Y-104449949D01*
X146845127Y-104582230D01*
X146845128Y-104582231D01*
X146929740Y-104695260D01*
X147030499Y-104770687D01*
X147042769Y-104779872D01*
X147050549Y-104784120D01*
X147049722Y-104785633D01*
X147097219Y-104821190D01*
X147121636Y-104886654D01*
X147106784Y-104954927D01*
X147057378Y-105004332D01*
X146997952Y-105019500D01*
X131942048Y-105019500D01*
X131875009Y-104999815D01*
X131829254Y-104947011D01*
X131819310Y-104877853D01*
X131848335Y-104814297D01*
X131890096Y-104785301D01*
X131889451Y-104784120D01*
X131897227Y-104779873D01*
X131897231Y-104779872D01*
X132010260Y-104695260D01*
X132094872Y-104582231D01*
X132144213Y-104449943D01*
X132147691Y-104417587D01*
X132150499Y-104391480D01*
X132150500Y-104391463D01*
X132150500Y-103408536D01*
X132150499Y-103408519D01*
X132147272Y-103378513D01*
X132144213Y-103350057D01*
X132144211Y-103350053D01*
X132144211Y-103350050D01*
X132094872Y-103217769D01*
X132010260Y-103104740D01*
X131925647Y-103041399D01*
X131897230Y-103020127D01*
X131897231Y-103020127D01*
X131764949Y-102970788D01*
X131764944Y-102970787D01*
X131706480Y-102964500D01*
X131706464Y-102964500D01*
X129453536Y-102964500D01*
X129387755Y-102971572D01*
X129318995Y-102959166D01*
X129267858Y-102911555D01*
X129250500Y-102848282D01*
X129250500Y-102411717D01*
X129270185Y-102344678D01*
X129322989Y-102298923D01*
X129387756Y-102288428D01*
X129453519Y-102295499D01*
X129453536Y-102295500D01*
X131706464Y-102295500D01*
X131706480Y-102295499D01*
X131732587Y-102292691D01*
X131764943Y-102289213D01*
X131764947Y-102289211D01*
X131764949Y-102289211D01*
X131816462Y-102269997D01*
X131897231Y-102239872D01*
X132010260Y-102155260D01*
X132094872Y-102042231D01*
X132144213Y-101909943D01*
X132147691Y-101877587D01*
X132150499Y-101851480D01*
X132150500Y-101851463D01*
X132150500Y-101644241D01*
X138623683Y-101644241D01*
X138623683Y-101776024D01*
X138657791Y-101903320D01*
X138690737Y-101960383D01*
X138723683Y-102017447D01*
X138816869Y-102110633D01*
X138930997Y-102176525D01*
X139058291Y-102210633D01*
X139058293Y-102210633D01*
X139190073Y-102210633D01*
X139190075Y-102210633D01*
X139317369Y-102176525D01*
X139431497Y-102110633D01*
X139524683Y-102017447D01*
X139590575Y-101903319D01*
X139624683Y-101776025D01*
X139624683Y-101644241D01*
X139590575Y-101516947D01*
X139524683Y-101402819D01*
X139431497Y-101309633D01*
X139374433Y-101276687D01*
X139317370Y-101243741D01*
X139253722Y-101226687D01*
X139190075Y-101209633D01*
X139058291Y-101209633D01*
X138930995Y-101243741D01*
X138816869Y-101309633D01*
X138816866Y-101309635D01*
X138723685Y-101402816D01*
X138723683Y-101402819D01*
X138657791Y-101516945D01*
X138623683Y-101644241D01*
X132150500Y-101644241D01*
X132150500Y-100868536D01*
X132150499Y-100868519D01*
X132146501Y-100831339D01*
X132144213Y-100810057D01*
X132144211Y-100810053D01*
X132144211Y-100810050D01*
X132094872Y-100677769D01*
X132067006Y-100640544D01*
X132010260Y-100564740D01*
X131925647Y-100501399D01*
X131897230Y-100480127D01*
X131897231Y-100480127D01*
X131764949Y-100430788D01*
X131764944Y-100430787D01*
X131706480Y-100424500D01*
X131706464Y-100424500D01*
X129453536Y-100424500D01*
X129387755Y-100431572D01*
X129318995Y-100419166D01*
X129267858Y-100371555D01*
X129250500Y-100308282D01*
X129250500Y-99871717D01*
X129270185Y-99804678D01*
X129322989Y-99758923D01*
X129387756Y-99748428D01*
X129453519Y-99755499D01*
X129453536Y-99755500D01*
X131706464Y-99755500D01*
X131706480Y-99755499D01*
X131732587Y-99752691D01*
X131764943Y-99749213D01*
X131764947Y-99749211D01*
X131764949Y-99749211D01*
X131816462Y-99729997D01*
X131897231Y-99699872D01*
X132010260Y-99615260D01*
X132094872Y-99502231D01*
X132144213Y-99369943D01*
X132147691Y-99337587D01*
X132150499Y-99311480D01*
X132150500Y-99311463D01*
X132150500Y-98328536D01*
X132150499Y-98328519D01*
X132147272Y-98298513D01*
X132144213Y-98270057D01*
X132144211Y-98270053D01*
X132144211Y-98270050D01*
X132094872Y-98137769D01*
X132010260Y-98024740D01*
X131925647Y-97961399D01*
X131897230Y-97940127D01*
X131897231Y-97940127D01*
X131764949Y-97890788D01*
X131764944Y-97890787D01*
X131706480Y-97884500D01*
X131706464Y-97884500D01*
X129453536Y-97884500D01*
X129387755Y-97891572D01*
X129318995Y-97879166D01*
X129267858Y-97831555D01*
X129250500Y-97768282D01*
X129250500Y-97331717D01*
X129270185Y-97264678D01*
X129322989Y-97218923D01*
X129387756Y-97208428D01*
X129453519Y-97215499D01*
X129453536Y-97215500D01*
X131706464Y-97215500D01*
X131706480Y-97215499D01*
X131732587Y-97212691D01*
X131764943Y-97209213D01*
X131764947Y-97209211D01*
X131764949Y-97209211D01*
X131816462Y-97189997D01*
X131897231Y-97159872D01*
X132010260Y-97075260D01*
X132094872Y-96962231D01*
X132144213Y-96829943D01*
X132147830Y-96796297D01*
X132150499Y-96771480D01*
X132150500Y-96771463D01*
X132150500Y-96176255D01*
X132170185Y-96109216D01*
X132222989Y-96063461D01*
X132292147Y-96053517D01*
X132355703Y-96082542D01*
X132362181Y-96088574D01*
X137052220Y-100778613D01*
X137143545Y-100831340D01*
X137245406Y-100858633D01*
X137656910Y-100858633D01*
X137723949Y-100878318D01*
X137744586Y-100894947D01*
X137746473Y-100896834D01*
X137746477Y-100896837D01*
X137746478Y-100896838D01*
X137851016Y-100973991D01*
X137973650Y-101016902D01*
X138002772Y-101019633D01*
X138445593Y-101019632D01*
X138474716Y-101016902D01*
X138597350Y-100973991D01*
X138701888Y-100896838D01*
X138779041Y-100792300D01*
X138821952Y-100669666D01*
X138824683Y-100640544D01*
X138824682Y-100321631D01*
X138844366Y-100254593D01*
X138897170Y-100208838D01*
X138948677Y-100197632D01*
X139345593Y-100197632D01*
X139374716Y-100194902D01*
X139497350Y-100151991D01*
X139500547Y-100149631D01*
X139504654Y-100148130D01*
X139505566Y-100147649D01*
X139505631Y-100147773D01*
X139566173Y-100125658D01*
X139634344Y-100140971D01*
X139647810Y-100149625D01*
X139651016Y-100151991D01*
X139773650Y-100194902D01*
X139802772Y-100197633D01*
X140245593Y-100197632D01*
X140274716Y-100194902D01*
X140397350Y-100151991D01*
X140501888Y-100074838D01*
X140579041Y-99970300D01*
X140621952Y-99847666D01*
X140624683Y-99818544D01*
X140624682Y-99453723D01*
X140621952Y-99424600D01*
X140579041Y-99301966D01*
X140501888Y-99197428D01*
X140496168Y-99193206D01*
X140475048Y-99177618D01*
X140432798Y-99121970D01*
X140424683Y-99077849D01*
X140424683Y-98655060D01*
X140424683Y-98655058D01*
X140397390Y-98553198D01*
X140397390Y-98553197D01*
X140344663Y-98461872D01*
X138812078Y-96929287D01*
X138779983Y-96873695D01*
X138778594Y-96868511D01*
X138756327Y-96829944D01*
X138719284Y-96765784D01*
X138635408Y-96681908D01*
X138532681Y-96622598D01*
X138418104Y-96591897D01*
X138299486Y-96591897D01*
X138184909Y-96622598D01*
X138184907Y-96622598D01*
X138184907Y-96622599D01*
X138082170Y-96681915D01*
X138081373Y-96682527D01*
X138080579Y-96682833D01*
X138075144Y-96685972D01*
X138074654Y-96685123D01*
X138016201Y-96707714D01*
X137947758Y-96693668D01*
X137918217Y-96671824D01*
X136981363Y-95734970D01*
X136947878Y-95673647D01*
X136945044Y-95647289D01*
X136945044Y-95585489D01*
X136945044Y-95585487D01*
X136904121Y-95432760D01*
X136904117Y-95432753D01*
X136825068Y-95295834D01*
X136825062Y-95295826D01*
X136713261Y-95184025D01*
X136713253Y-95184019D01*
X136576334Y-95104970D01*
X136576330Y-95104968D01*
X136576328Y-95104967D01*
X136423601Y-95064044D01*
X136265487Y-95064044D01*
X136112760Y-95104967D01*
X136112753Y-95104970D01*
X135975834Y-95184019D01*
X135975826Y-95184025D01*
X135864025Y-95295826D01*
X135864019Y-95295834D01*
X135784970Y-95432753D01*
X135784967Y-95432760D01*
X135744044Y-95585487D01*
X135744044Y-95743601D01*
X135779760Y-95876893D01*
X135784967Y-95896327D01*
X135784970Y-95896334D01*
X135864019Y-96033253D01*
X135864023Y-96033258D01*
X135864024Y-96033260D01*
X135975828Y-96145064D01*
X135975830Y-96145065D01*
X135975834Y-96145068D01*
X136112753Y-96224117D01*
X136112760Y-96224121D01*
X136265487Y-96265044D01*
X136327289Y-96265044D01*
X136394328Y-96284729D01*
X136414970Y-96301363D01*
X138687364Y-98573757D01*
X138720849Y-98635080D01*
X138723683Y-98661438D01*
X138723683Y-98989719D01*
X138703998Y-99056758D01*
X138651194Y-99102513D01*
X138582036Y-99112457D01*
X138558729Y-99106761D01*
X138474713Y-99077363D01*
X138445598Y-99074633D01*
X138445594Y-99074633D01*
X138280438Y-99074633D01*
X138213399Y-99054948D01*
X138192757Y-99038314D01*
X135381363Y-96226920D01*
X135347878Y-96165597D01*
X135345044Y-96139239D01*
X135345044Y-93524787D01*
X139118094Y-93524787D01*
X139118094Y-93524794D01*
X139118094Y-93524795D01*
X139118094Y-94170530D01*
X139118095Y-94170536D01*
X139124502Y-94230143D01*
X139174796Y-94364988D01*
X139174800Y-94364995D01*
X139261046Y-94480204D01*
X139261049Y-94480207D01*
X139376258Y-94566453D01*
X139376265Y-94566457D01*
X139421212Y-94583221D01*
X139511111Y-94616751D01*
X139570721Y-94623160D01*
X139976338Y-94623159D01*
X140005787Y-94631805D01*
X140035764Y-94638327D01*
X140040777Y-94642079D01*
X140043377Y-94642843D01*
X140064014Y-94659473D01*
X140196125Y-94791583D01*
X140196135Y-94791594D01*
X140200455Y-94795914D01*
X140200456Y-94795915D01*
X140275023Y-94870482D01*
X140348466Y-94912884D01*
X140348467Y-94912885D01*
X140357407Y-94918046D01*
X140366347Y-94923208D01*
X140366348Y-94923208D01*
X140366349Y-94923209D01*
X140468209Y-94950503D01*
X140468211Y-94950503D01*
X140581259Y-94950503D01*
X140581275Y-94950502D01*
X140863955Y-94950502D01*
X140930994Y-94970187D01*
X140963724Y-95000867D01*
X140979433Y-95022152D01*
X141088701Y-95102795D01*
X141131428Y-95117746D01*
X141216882Y-95147648D01*
X141247313Y-95150502D01*
X141247317Y-95150502D01*
X142380853Y-95150502D01*
X142411282Y-95147648D01*
X142411284Y-95147648D01*
X142475373Y-95125221D01*
X142539465Y-95102795D01*
X142648733Y-95022152D01*
X142729376Y-94912884D01*
X142744213Y-94870482D01*
X142774229Y-94784703D01*
X142774229Y-94784701D01*
X142777083Y-94754271D01*
X142777083Y-94345732D01*
X142774229Y-94315302D01*
X142774229Y-94315300D01*
X142729376Y-94187121D01*
X142729375Y-94187119D01*
X142648733Y-94077852D01*
X142539465Y-93997209D01*
X142539463Y-93997208D01*
X142411283Y-93952355D01*
X142380853Y-93949502D01*
X142380849Y-93949502D01*
X141247317Y-93949502D01*
X141247313Y-93949502D01*
X141216883Y-93952355D01*
X141216881Y-93952355D01*
X141088702Y-93997208D01*
X141088700Y-93997209D01*
X140979433Y-94077852D01*
X140963725Y-94099136D01*
X140959744Y-94102158D01*
X140957668Y-94106705D01*
X140932194Y-94123075D01*
X140908077Y-94141387D01*
X140901946Y-94142514D01*
X140898890Y-94144479D01*
X140863955Y-94149502D01*
X140738190Y-94149502D01*
X140671151Y-94129817D01*
X140650509Y-94113183D01*
X140555412Y-94018086D01*
X140521927Y-93956763D01*
X140519093Y-93930405D01*
X140519093Y-93524789D01*
X140519092Y-93524783D01*
X140512685Y-93465176D01*
X140462391Y-93330331D01*
X140462387Y-93330324D01*
X140376141Y-93215115D01*
X140376138Y-93215112D01*
X140260929Y-93128866D01*
X140260922Y-93128862D01*
X140126080Y-93078570D01*
X140126079Y-93078569D01*
X140126077Y-93078569D01*
X140066467Y-93072160D01*
X140066457Y-93072160D01*
X139570723Y-93072160D01*
X139570717Y-93072161D01*
X139511110Y-93078568D01*
X139376265Y-93128862D01*
X139376258Y-93128866D01*
X139261049Y-93215112D01*
X139261046Y-93215115D01*
X139174800Y-93330324D01*
X139174796Y-93330331D01*
X139124504Y-93465173D01*
X139124503Y-93465177D01*
X139118094Y-93524787D01*
X135345044Y-93524787D01*
X135345044Y-90716467D01*
X137655865Y-90716467D01*
X137655865Y-90716474D01*
X137655865Y-90716475D01*
X137655865Y-91212210D01*
X137655866Y-91212216D01*
X137662273Y-91271823D01*
X137712567Y-91406668D01*
X137712571Y-91406675D01*
X137798817Y-91521884D01*
X137798820Y-91521887D01*
X137914029Y-91608133D01*
X137914036Y-91608137D01*
X137958983Y-91624901D01*
X138048882Y-91658431D01*
X138108492Y-91664840D01*
X138754237Y-91664839D01*
X138813848Y-91658431D01*
X138948696Y-91608136D01*
X139063911Y-91521886D01*
X139144279Y-91414528D01*
X139200212Y-91372658D01*
X139243545Y-91364840D01*
X143054498Y-91364840D01*
X143054500Y-91364840D01*
X143156361Y-91337547D01*
X143247686Y-91284820D01*
X143621311Y-90911193D01*
X143682634Y-90877709D01*
X143752325Y-90882693D01*
X143808259Y-90924564D01*
X143832676Y-90990029D01*
X143832992Y-90998875D01*
X143832992Y-93825502D01*
X143813307Y-93892541D01*
X143760503Y-93938296D01*
X143708992Y-93949502D01*
X143522313Y-93949502D01*
X143491883Y-93952355D01*
X143491881Y-93952355D01*
X143363702Y-93997208D01*
X143363700Y-93997209D01*
X143254433Y-94077852D01*
X143173790Y-94187119D01*
X143173789Y-94187121D01*
X143128936Y-94315300D01*
X143128936Y-94315302D01*
X143126083Y-94345732D01*
X143126083Y-94754271D01*
X143128936Y-94784701D01*
X143128936Y-94784703D01*
X143173789Y-94912882D01*
X143173790Y-94912884D01*
X143254433Y-95022152D01*
X143363701Y-95102795D01*
X143406428Y-95117746D01*
X143491882Y-95147648D01*
X143522313Y-95150502D01*
X143522317Y-95150502D01*
X144655853Y-95150502D01*
X144686282Y-95147648D01*
X144686284Y-95147648D01*
X144750373Y-95125221D01*
X144814465Y-95102795D01*
X144923733Y-95022152D01*
X145004376Y-94912884D01*
X145019213Y-94870482D01*
X145049229Y-94784703D01*
X145049229Y-94784701D01*
X145052083Y-94754271D01*
X145052083Y-94345732D01*
X145049229Y-94315302D01*
X145049229Y-94315300D01*
X145004376Y-94187121D01*
X145004375Y-94187119D01*
X144923733Y-94077852D01*
X144814465Y-93997209D01*
X144814462Y-93997208D01*
X144717036Y-93963116D01*
X144660260Y-93922393D01*
X144634514Y-93857440D01*
X144633992Y-93846075D01*
X144633992Y-90544801D01*
X144653677Y-90477762D01*
X144683679Y-90445535D01*
X144791038Y-90365167D01*
X144877288Y-90249952D01*
X144927583Y-90115104D01*
X144933992Y-90055494D01*
X144933991Y-89409749D01*
X144927583Y-89350138D01*
X144877288Y-89215290D01*
X144877287Y-89215289D01*
X144877285Y-89215285D01*
X144791039Y-89100076D01*
X144791036Y-89100073D01*
X144675827Y-89013827D01*
X144675820Y-89013823D01*
X144540978Y-88963531D01*
X144540977Y-88963530D01*
X144540975Y-88963530D01*
X144481365Y-88957121D01*
X144481355Y-88957121D01*
X143985621Y-88957121D01*
X143985615Y-88957122D01*
X143926008Y-88963529D01*
X143791163Y-89013823D01*
X143791156Y-89013827D01*
X143675947Y-89100073D01*
X143675944Y-89100076D01*
X143589698Y-89215285D01*
X143589694Y-89215292D01*
X143539400Y-89350138D01*
X143532993Y-89409737D01*
X143532993Y-89409744D01*
X143532992Y-89409756D01*
X143532992Y-89815365D01*
X143513307Y-89882404D01*
X143496673Y-89903046D01*
X142872199Y-90527521D01*
X142810876Y-90561006D01*
X142784518Y-90563840D01*
X139243545Y-90563840D01*
X139176506Y-90544155D01*
X139144278Y-90514151D01*
X139063911Y-90406794D01*
X139014725Y-90369973D01*
X138948700Y-90320546D01*
X138948693Y-90320542D01*
X138813851Y-90270250D01*
X138813850Y-90270249D01*
X138813848Y-90270249D01*
X138754238Y-90263840D01*
X138754228Y-90263840D01*
X138108494Y-90263840D01*
X138108488Y-90263841D01*
X138048881Y-90270248D01*
X137914036Y-90320542D01*
X137914029Y-90320546D01*
X137798820Y-90406792D01*
X137798817Y-90406795D01*
X137712571Y-90522004D01*
X137712567Y-90522011D01*
X137664810Y-90650057D01*
X137662274Y-90656857D01*
X137655865Y-90716467D01*
X135345044Y-90716467D01*
X135345044Y-89066467D01*
X137655865Y-89066467D01*
X137655865Y-89066474D01*
X137655865Y-89066475D01*
X137655865Y-89562210D01*
X137655866Y-89562216D01*
X137662273Y-89621823D01*
X137712567Y-89756668D01*
X137712571Y-89756675D01*
X137798817Y-89871884D01*
X137798820Y-89871887D01*
X137914029Y-89958133D01*
X137914036Y-89958137D01*
X137958983Y-89974901D01*
X138048882Y-90008431D01*
X138108492Y-90014840D01*
X138754237Y-90014839D01*
X138813848Y-90008431D01*
X138948696Y-89958136D01*
X139063911Y-89871886D01*
X139150161Y-89756671D01*
X139200456Y-89621823D01*
X139206865Y-89562213D01*
X139206864Y-89066468D01*
X139200456Y-89006857D01*
X139193228Y-88987479D01*
X139150162Y-88872011D01*
X139150158Y-88872004D01*
X139063912Y-88756795D01*
X139063909Y-88756792D01*
X138948699Y-88670545D01*
X138912529Y-88657054D01*
X138856596Y-88615181D01*
X138832181Y-88549716D01*
X138831865Y-88540873D01*
X138831865Y-87303802D01*
X138837102Y-87285964D01*
X138837337Y-87267372D01*
X138846743Y-87253133D01*
X138851550Y-87236763D01*
X138865599Y-87224588D01*
X138875849Y-87209074D01*
X138903318Y-87191905D01*
X138904354Y-87191008D01*
X138905778Y-87190368D01*
X138912508Y-87187396D01*
X138912510Y-87187396D01*
X138967434Y-87163144D01*
X139036709Y-87154073D01*
X139067603Y-87163144D01*
X139122528Y-87187396D01*
X139147654Y-87190311D01*
X139787383Y-87190310D01*
X139787398Y-87190308D01*
X139787401Y-87190308D01*
X139812506Y-87187397D01*
X139812507Y-87187396D01*
X139812510Y-87187396D01*
X139851548Y-87170158D01*
X139863079Y-87165068D01*
X139913164Y-87154503D01*
X141392160Y-87154503D01*
X141459199Y-87174188D01*
X141504954Y-87226992D01*
X141508342Y-87235170D01*
X141544137Y-87331142D01*
X141544141Y-87331149D01*
X141630387Y-87446358D01*
X141630390Y-87446361D01*
X141745599Y-87532607D01*
X141745606Y-87532611D01*
X141790553Y-87549375D01*
X141880452Y-87582905D01*
X141940062Y-87589314D01*
X142435807Y-87589313D01*
X142495418Y-87582905D01*
X142630266Y-87532610D01*
X142745481Y-87446360D01*
X142831731Y-87331145D01*
X142882026Y-87196297D01*
X142888435Y-87136687D01*
X142888434Y-86490942D01*
X142882026Y-86431331D01*
X142876713Y-86417087D01*
X142831732Y-86296485D01*
X142831728Y-86296478D01*
X142745482Y-86181269D01*
X142745479Y-86181266D01*
X142630270Y-86095020D01*
X142630263Y-86095016D01*
X142495421Y-86044724D01*
X142495420Y-86044723D01*
X142495418Y-86044723D01*
X142435808Y-86038314D01*
X142435798Y-86038314D01*
X141940064Y-86038314D01*
X141940058Y-86038315D01*
X141880451Y-86044722D01*
X141745606Y-86095016D01*
X141745599Y-86095020D01*
X141630390Y-86181266D01*
X141630387Y-86181269D01*
X141538823Y-86303583D01*
X141535835Y-86301346D01*
X141498907Y-86338308D01*
X141439431Y-86353503D01*
X140062545Y-86353503D01*
X139995506Y-86333818D01*
X139974864Y-86317185D01*
X139915283Y-86257604D01*
X139812511Y-86212226D01*
X139787384Y-86209311D01*
X139147662Y-86209311D01*
X139147636Y-86209313D01*
X139122531Y-86212224D01*
X139122530Y-86212225D01*
X139067604Y-86236477D01*
X138998326Y-86245548D01*
X138967433Y-86236477D01*
X138964446Y-86235158D01*
X138912510Y-86212226D01*
X138887384Y-86209311D01*
X138247662Y-86209311D01*
X138247636Y-86209313D01*
X138222531Y-86212224D01*
X138222527Y-86212226D01*
X138119754Y-86257604D01*
X138040313Y-86337045D01*
X137994934Y-86439817D01*
X137994934Y-86439819D01*
X137992019Y-86464942D01*
X137992019Y-86934667D01*
X137992021Y-86934693D01*
X137994932Y-86959798D01*
X137994933Y-86959799D01*
X137994933Y-86959801D01*
X137994934Y-86959802D01*
X138020299Y-87017249D01*
X138030865Y-87067334D01*
X138030865Y-88540873D01*
X138011180Y-88607912D01*
X137958376Y-88653667D01*
X137950201Y-88657054D01*
X137914030Y-88670545D01*
X137798820Y-88756792D01*
X137798817Y-88756795D01*
X137712571Y-88872004D01*
X137712567Y-88872011D01*
X137665494Y-88998223D01*
X137662274Y-89006857D01*
X137655865Y-89066467D01*
X135345044Y-89066467D01*
X135345044Y-87891819D01*
X135345044Y-87891817D01*
X135317751Y-87789957D01*
X135265024Y-87698631D01*
X135190457Y-87624064D01*
X132056864Y-84490471D01*
X132023379Y-84429148D01*
X132028363Y-84359456D01*
X132045275Y-84328484D01*
X132094872Y-84262231D01*
X132144213Y-84129943D01*
X132147691Y-84097587D01*
X132150499Y-84071480D01*
X132150500Y-84071463D01*
X132150500Y-83088536D01*
X132150499Y-83088519D01*
X132147272Y-83058513D01*
X132144213Y-83030057D01*
X132144211Y-83030053D01*
X132144211Y-83030050D01*
X132094872Y-82897769D01*
X132010260Y-82784740D01*
X131925647Y-82721399D01*
X131897230Y-82700127D01*
X131897231Y-82700127D01*
X131764949Y-82650788D01*
X131764944Y-82650787D01*
X131706480Y-82644500D01*
X131706464Y-82644500D01*
X129453536Y-82644500D01*
X129387755Y-82651572D01*
X129318995Y-82639166D01*
X129267858Y-82591555D01*
X129250500Y-82528282D01*
X129250500Y-79551717D01*
X129270185Y-79484678D01*
X129322989Y-79438923D01*
X129387756Y-79428428D01*
X129453519Y-79435499D01*
X129453536Y-79435500D01*
X130897745Y-79435500D01*
X130964784Y-79455185D01*
X130985426Y-79471819D01*
X133052226Y-81538619D01*
X133143551Y-81591346D01*
X133245412Y-81618639D01*
X133245414Y-81618639D01*
X141352356Y-81618639D01*
X141352358Y-81618639D01*
X141454219Y-81591346D01*
X141545544Y-81538619D01*
X141851706Y-81232455D01*
X141913026Y-81198973D01*
X141982717Y-81203957D01*
X141984842Y-81204772D01*
X141993067Y-81208016D01*
X142081529Y-81218639D01*
X142081534Y-81218639D01*
X142867728Y-81218639D01*
X142867733Y-81218639D01*
X142956195Y-81208016D01*
X143096973Y-81152500D01*
X143217553Y-81061061D01*
X143308992Y-80940481D01*
X143364508Y-80799703D01*
X143375131Y-80711241D01*
X143375131Y-79375037D01*
X143364508Y-79286575D01*
X143308992Y-79145797D01*
X143308991Y-79145796D01*
X143308991Y-79145795D01*
X143217553Y-79025216D01*
X143096974Y-78933778D01*
X142956192Y-78878261D01*
X142910557Y-78872781D01*
X142867733Y-78867639D01*
X142081529Y-78867639D01*
X142042484Y-78872327D01*
X141993069Y-78878261D01*
X141852287Y-78933778D01*
X141731708Y-79025216D01*
X141640270Y-79145795D01*
X141584753Y-79286577D01*
X141580184Y-79324631D01*
X141574131Y-79375037D01*
X141574131Y-79375042D01*
X141574131Y-80325884D01*
X141554446Y-80392923D01*
X141537812Y-80413565D01*
X141170057Y-80781320D01*
X141108734Y-80814805D01*
X141082376Y-80817639D01*
X133515394Y-80817639D01*
X133448355Y-80797954D01*
X133427713Y-80781320D01*
X132056864Y-79410471D01*
X132023379Y-79349148D01*
X132028363Y-79279456D01*
X132045275Y-79248484D01*
X132094872Y-79182231D01*
X132144213Y-79049943D01*
X132147691Y-79017587D01*
X132150499Y-78991480D01*
X132150500Y-78991463D01*
X132150500Y-78008536D01*
X132150499Y-78008519D01*
X132147272Y-77978513D01*
X132144213Y-77950057D01*
X132144211Y-77950053D01*
X132144211Y-77950050D01*
X132094872Y-77817769D01*
X132010260Y-77704740D01*
X131925647Y-77641399D01*
X131897230Y-77620127D01*
X131889451Y-77615880D01*
X131890277Y-77614366D01*
X131842781Y-77578810D01*
X131818364Y-77513346D01*
X131833216Y-77445073D01*
X131882622Y-77395668D01*
X131942048Y-77380500D01*
X146997952Y-77380500D01*
X147064991Y-77400185D01*
G37*
%TD.AperFunction*%
%TD*%
M02*
