M48
; DRILL file KiCad 10.0.1 date 2026-05-22T22:55:56
; FORMAT={-:-/ absolute / metric / decimal}
; #@! TF.CreationDate,2026-05-22T22:55:56-07:00
; #@! TF.GenerationSoftware,Kicad,Pcbnew,10.0.1
; #@! TF.FileFunction,Plated,1,2,PTH
FMAT,2
METRIC
; #@! TA.AperFunction,Plated,PTH,ComponentDrill
T1C0.800
%
G90
G05
T1
X102.225Y-71.12
X102.225Y-73.66
X102.225Y-76.2
X102.225Y-78.74
X102.225Y-81.28
X102.225Y-86.36
X102.225Y-88.9
X102.225Y-91.44
X102.225Y-93.98
X102.225Y-96.52
X102.229Y-83.87
X119.991Y-73.66
X120.005Y-71.12
X120.005Y-76.2
X120.005Y-78.74
X120.005Y-81.28
X120.005Y-83.82
X120.005Y-86.36
X120.005Y-88.9
X120.005Y-91.44
X120.005Y-93.98
X120.005Y-96.52
M30
