%TF.GenerationSoftware,KiCad,Pcbnew,10.0.1*%
%TF.CreationDate,2026-06-01T22:27:08-07:00*%
%TF.ProjectId,Carry,43617272-792e-46b6-9963-61645f706362,rev?*%
%TF.SameCoordinates,Original*%
%TF.FileFunction,Copper,L1,Top*%
%TF.FilePolarity,Positive*%
%FSLAX46Y46*%
G04 Gerber Fmt 4.6, Leading zero omitted, Abs format (unit mm)*
G04 Created by KiCad (PCBNEW 10.0.1) date 2026-06-01 22:27:08*
%MOMM*%
%LPD*%
G01*
G04 APERTURE LIST*
G04 Aperture macros list*
%AMRoundRect*
0 Rectangle with rounded corners*
0 $1 Rounding radius*
0 $2 $3 $4 $5 $6 $7 $8 $9 X,Y pos of 4 corners*
0 Add a 4 corners polygon primitive as box body*
4,1,4,$2,$3,$4,$5,$6,$7,$8,$9,$2,$3,0*
0 Add four circle primitives for the rounded corners*
1,1,$1+$1,$2,$3*
1,1,$1+$1,$4,$5*
1,1,$1+$1,$6,$7*
1,1,$1+$1,$8,$9*
0 Add four rect primitives between the rounded corners*
20,1,$1+$1,$2,$3,$4,$5,0*
20,1,$1+$1,$4,$5,$6,$7,0*
20,1,$1+$1,$6,$7,$8,$9,0*
20,1,$1+$1,$8,$9,$2,$3,0*%
G04 Aperture macros list end*
%TA.AperFunction,ComponentPad*%
%ADD10RoundRect,0.190500X-1.079500X-0.444500X1.079500X-0.444500X1.079500X0.444500X-1.079500X0.444500X0*%
%TD*%
%TA.AperFunction,ComponentPad*%
%ADD11RoundRect,0.250000X0.350000X0.625000X-0.350000X0.625000X-0.350000X-0.625000X0.350000X-0.625000X0*%
%TD*%
%TA.AperFunction,ComponentPad*%
%ADD12O,1.200000X1.750000*%
%TD*%
%TA.AperFunction,ViaPad*%
%ADD13C,0.600000*%
%TD*%
%TA.AperFunction,ViaPad*%
%ADD14C,0.300000*%
%TD*%
%TA.AperFunction,Conductor*%
%ADD15C,0.500000*%
%TD*%
%TA.AperFunction,Conductor*%
%ADD16C,0.200000*%
%TD*%
G04 APERTURE END LIST*
D10*
%TO.P,U1,1,VBUS_1*%
%TO.N,Net-(J1-Pin_1)*%
X130580000Y-78500000D03*
%TO.P,U1,2,GND_2*%
%TO.N,GND*%
X130580000Y-81040000D03*
%TO.P,U1,3,VCC_3V3_3*%
%TO.N,Net-(MK1-VDD)*%
X130580000Y-83580000D03*
%TO.P,U1,4,UART2_TX_4*%
%TO.N,unconnected-(U1-UART2_TX-Pad4)*%
X130580000Y-86120000D03*
%TO.P,U1,5,UART2_RX_5*%
%TO.N,unconnected-(U1-UART2_RX-Pad5)*%
X130580000Y-88660000D03*
%TO.P,U1,6,GPIO1_C0_d_6*%
%TO.N,/MIC_DATA*%
X130584025Y-91249845D03*
%TO.P,U1,7,GPIO1_C1_d_7*%
%TO.N,Net-(MK1-BCLK)*%
X130580000Y-93740000D03*
%TO.P,U1,8,GPIO1_C2_d_8*%
%TO.N,Net-(MK1-WS)*%
X130580000Y-96280000D03*
%TO.P,U1,9,GPIO1_C3_d_9*%
%TO.N,unconnected-(U1-GPIO1_C3_d-Pad9)*%
X130580000Y-98820000D03*
%TO.P,U1,10,GPIO1_C4_d_10*%
%TO.N,unconnected-(U1-GPIO1_C4_d-Pad10)*%
X130580000Y-101360000D03*
%TO.P,U1,11,GPIO1_C5_d_11*%
%TO.N,unconnected-(U1-GPIO1_C5_d-Pad11)*%
X130580000Y-103900000D03*
%TO.P,U1,12,GPIO1_D0_d_12*%
%TO.N,unconnected-(U1-GPIO1_D0_d-Pad12)*%
X148360000Y-103900000D03*
%TO.P,U1,13,GPIO1_D1_d_13*%
%TO.N,unconnected-(U1-GPIO1_D1_d-Pad13)*%
X148360000Y-101360000D03*
%TO.P,U1,14,GPIO1_D2_d_14*%
%TO.N,unconnected-(U1-GPIO1_D2_d-Pad14)*%
X148360000Y-98820000D03*
%TO.P,U1,15,GPIO1_D3_d_15*%
%TO.N,unconnected-(U1-GPIO1_D3_d-Pad15)*%
X148360000Y-96280000D03*
%TO.P,U1,16,GPIO1_C6_d_16*%
%TO.N,unconnected-(U1-GPIO1_C6_d-Pad16)*%
X148360000Y-93740000D03*
%TO.P,U1,17,GPIO1_C7_d_17*%
%TO.N,unconnected-(U1-GPIO1_C7_d-Pad17)*%
X148360000Y-91200000D03*
%TO.P,U1,18,GPIO0_A4_d_18*%
%TO.N,unconnected-(U1-GPIO0_A4_d-Pad18)*%
X148360000Y-88660000D03*
%TO.P,U1,19,GPIO4_C0_z_19*%
%TO.N,unconnected-(U1-GPIO4_C0_z-Pad19)*%
X148360000Y-86120000D03*
%TO.P,U1,20,GPIO4_C1_z_20*%
%TO.N,Net-(U1-GPIO4_C1_z)*%
X148360000Y-83580000D03*
%TO.P,U1,21,GND_21*%
%TO.N,GND*%
X148345563Y-81040000D03*
%TO.P,U1,22,1V8_OUT_22*%
%TO.N,unconnected-(U1-1V8_OUT-Pad22)*%
X148360000Y-78500000D03*
%TD*%
D11*
%TO.P,J2,1,Pin_1_1*%
%TO.N,Net-(J1-Pin_1)*%
X142474631Y-80043139D03*
D12*
%TO.P,J2,2,Pin_2_2*%
%TO.N,GND*%
X140474631Y-80043139D03*
%TD*%
D13*
%TO.N,Net-(J1-Pin_1)*%
X146072852Y-86715678D03*
%TO.N,/MIC_DATA*%
X134344544Y-93740000D03*
X136344544Y-95664544D03*
D14*
%TO.N,Net-(MK1-WS)*%
X138358795Y-97042397D03*
%TD*%
%TO.N,Net-(J1-Pin_1)*%
D15*
X130680298Y-78600298D02*
X130580000Y-78500000D01*
D16*
X146072852Y-86715678D02*
X142474631Y-83117457D01*
X142474631Y-83117457D02*
X142474631Y-80043139D01*
%TO.N,Net-(MK1-VDD)*%
X131161763Y-83580000D02*
X130580000Y-83580000D01*
%TO.N,/MIC_DATA*%
X136344544Y-95664544D02*
X134420000Y-93740000D01*
X134420000Y-93740000D02*
X134344544Y-93740000D01*
X131165788Y-91249845D02*
X130584025Y-91249845D01*
%TO.N,Net-(MK1-WS)*%
X138358795Y-97042397D02*
X137596398Y-96280000D01*
X137596398Y-96280000D02*
X130580000Y-96280000D01*
%TD*%
M02*
