%TF.GenerationSoftware,KiCad,Pcbnew,10.0.1*%
%TF.CreationDate,2026-06-01T22:27:08-07:00*%
%TF.ProjectId,Carry,43617272-792e-46b6-9963-61645f706362,rev?*%
%TF.SameCoordinates,Original*%
%TF.FileFunction,Paste,Bot*%
%TF.FilePolarity,Positive*%
%FSLAX46Y46*%
G04 Gerber Fmt 4.6, Leading zero omitted, Abs format (unit mm)*
G04 Created by KiCad (PCBNEW 10.0.1) date 2026-06-01 22:27:08*
%MOMM*%
%LPD*%
G01*
G04 APERTURE LIST*
G04 Aperture macros list*
%AMRoundRect*
0 Rectangle with rounded corners*
0 $1 Rounding radius*
0 $2 $3 $4 $5 $6 $7 $8 $9 X,Y pos of 4 corners*
0 Add a 4 corners polygon primitive as box body*
4,1,4,$2,$3,$4,$5,$6,$7,$8,$9,$2,$3,0*
0 Add four circle primitives for the rounded corners*
1,1,$1+$1,$2,$3*
1,1,$1+$1,$4,$5*
1,1,$1+$1,$6,$7*
1,1,$1+$1,$8,$9*
0 Add four rect primitives between the rounded corners*
20,1,$1+$1,$2,$3,$4,$5,0*
20,1,$1+$1,$4,$5,$6,$7,0*
20,1,$1+$1,$6,$7,$8,$9,0*
20,1,$1+$1,$8,$9,$2,$3,0*%
G04 Aperture macros list end*
%ADD10C,0.000000*%
%ADD11R,0.550000X0.380000*%
%ADD12R,1.400000X1.200000*%
%ADD13RoundRect,0.200000X-0.200000X-0.275000X0.200000X-0.275000X0.200000X0.275000X-0.200000X0.275000X0*%
%ADD14RoundRect,0.150000X0.512500X0.150000X-0.512500X0.150000X-0.512500X-0.150000X0.512500X-0.150000X0*%
%ADD15RoundRect,0.200000X0.275000X-0.200000X0.275000X0.200000X-0.275000X0.200000X-0.275000X-0.200000X0*%
%ADD16RoundRect,0.130500X0.169500X0.130500X-0.169500X0.130500X-0.169500X-0.130500X0.169500X-0.130500X0*%
G04 APERTURE END LIST*
D10*
%TO.C,MK1*%
G36*
X138698083Y-101425433D02*
G01*
X138656383Y-101500833D01*
X138627883Y-101582133D01*
X138613483Y-101667033D01*
X138613483Y-101753233D01*
X138627883Y-101838133D01*
X138656383Y-101919433D01*
X138698083Y-101994833D01*
X138483283Y-102209533D01*
X138400883Y-102080133D01*
X138344183Y-101937533D01*
X138315283Y-101786833D01*
X138315283Y-101633433D01*
X138344183Y-101482733D01*
X138400883Y-101340133D01*
X138483283Y-101210733D01*
X138698083Y-101425433D01*
G37*
G36*
X139623583Y-102351033D02*
G01*
X139494183Y-102433433D01*
X139351583Y-102490133D01*
X139200883Y-102519033D01*
X139047483Y-102519033D01*
X138896783Y-102490133D01*
X138754183Y-102433433D01*
X138624783Y-102351033D01*
X138839483Y-102136233D01*
X138914883Y-102177933D01*
X138996183Y-102206433D01*
X139081083Y-102220833D01*
X139167283Y-102220833D01*
X139252183Y-102206433D01*
X139333483Y-102177933D01*
X139408883Y-102136233D01*
X139623583Y-102351033D01*
G37*
G36*
X139351583Y-100930133D02*
G01*
X139494183Y-100986833D01*
X139623583Y-101069233D01*
X139408883Y-101284033D01*
X139333483Y-101242333D01*
X139252183Y-101213833D01*
X139167283Y-101199433D01*
X139081083Y-101199433D01*
X138996183Y-101213833D01*
X138914883Y-101242333D01*
X138839483Y-101284033D01*
X138624783Y-101069233D01*
X138754183Y-100986833D01*
X138896783Y-100930133D01*
X139047483Y-100901233D01*
X139200883Y-100901233D01*
X139351583Y-100930133D01*
G37*
G36*
X139847483Y-101340133D02*
G01*
X139904183Y-101482733D01*
X139933083Y-101633433D01*
X139933083Y-101786833D01*
X139904183Y-101937533D01*
X139847483Y-102080133D01*
X139765083Y-102209533D01*
X139550283Y-101994833D01*
X139591983Y-101919433D01*
X139620483Y-101838133D01*
X139634883Y-101753233D01*
X139634883Y-101667033D01*
X139620483Y-101582133D01*
X139591983Y-101500833D01*
X139550283Y-101425433D01*
X139765083Y-101210733D01*
X139847483Y-101340133D01*
G37*
%TD*%
D11*
%TO.C,D1*%
X138567519Y-86699811D03*
X139467519Y-86699811D03*
D12*
X139017519Y-85659811D03*
%TD*%
D13*
%TO.C,R2*%
X144233492Y-89732621D03*
X145883492Y-89732621D03*
%TD*%
D14*
%TO.C,U2*%
X144089083Y-94550002D03*
X144089083Y-95500002D03*
X144089083Y-96450002D03*
X141814083Y-96450002D03*
X141814083Y-94550002D03*
%TD*%
D13*
%TO.C,R3*%
X142187935Y-86813814D03*
X143837935Y-86813814D03*
%TD*%
%TO.C,R1*%
X138168594Y-93847660D03*
X139818594Y-93847660D03*
%TD*%
D15*
%TO.C,R4*%
X138431365Y-90964340D03*
X138431365Y-89314340D03*
%TD*%
D16*
%TO.C,MK1*%
X140024183Y-99636133D03*
X140024183Y-100458133D03*
X138224183Y-100458133D03*
X138224183Y-99636133D03*
X139124183Y-99636133D03*
%TD*%
M02*
