%TF.GenerationSoftware,KiCad,Pcbnew,10.0.1*%
%TF.CreationDate,2026-06-01T22:27:08-07:00*%
%TF.ProjectId,Carry,43617272-792e-46b6-9963-61645f706362,rev?*%
%TF.SameCoordinates,Original*%
%TF.FileFunction,Soldermask,Bot*%
%TF.FilePolarity,Negative*%
%FSLAX46Y46*%
G04 Gerber Fmt 4.6, Leading zero omitted, Abs format (unit mm)*
G04 Created by KiCad (PCBNEW 10.0.1) date 2026-06-01 22:27:08*
%MOMM*%
%LPD*%
G01*
G04 APERTURE LIST*
G04 Aperture macros list*
%AMRoundRect*
0 Rectangle with rounded corners*
0 $1 Rounding radius*
0 $2 $3 $4 $5 $6 $7 $8 $9 X,Y pos of 4 corners*
0 Add a 4 corners polygon primitive as box body*
4,1,4,$2,$3,$4,$5,$6,$7,$8,$9,$2,$3,0*
0 Add four circle primitives for the rounded corners*
1,1,$1+$1,$2,$3*
1,1,$1+$1,$4,$5*
1,1,$1+$1,$6,$7*
1,1,$1+$1,$8,$9*
0 Add four rect primitives between the rounded corners*
20,1,$1+$1,$2,$3,$4,$5,0*
20,1,$1+$1,$4,$5,$6,$7,0*
20,1,$1+$1,$6,$7,$8,$9,0*
20,1,$1+$1,$8,$9,$2,$3,0*%
%AMFreePoly0*
4,1,64,0.031746,0.146090,0.079590,0.146090,0.235711,0.115036,0.382774,0.054120,0.515127,-0.034316,0.627684,-0.146873,0.716120,-0.279226,0.777036,-0.426289,0.808090,-0.582410,0.808090,-0.741590,0.777036,-0.897711,0.716120,-1.044774,0.627684,-1.177127,0.515127,-1.289684,0.382774,-1.378120,0.235711,-1.439036,0.079590,-1.470090,-0.079590,-1.470090,-0.235711,-1.439036,-0.382774,-1.378120,
-0.515127,-1.289684,-0.627684,-1.177127,-0.716120,-1.044774,-0.777036,-0.897711,-0.808090,-0.741590,-0.808090,-0.594594,-0.512000,-0.594594,-0.512000,-0.729406,-0.477108,-0.859625,-0.409702,-0.976375,-0.314375,-1.071702,-0.197625,-1.139108,-0.067406,-1.174000,0.067406,-1.174000,0.197625,-1.139108,0.314375,-1.071702,0.409702,-0.976375,0.477108,-0.859625,0.512000,-0.729406,0.512000,-0.594594,
0.477108,-0.464375,0.409702,-0.347625,0.314375,-0.252298,0.197625,-0.184892,0.067406,-0.150000,-0.067406,-0.150000,-0.197625,-0.184892,-0.314375,-0.252298,-0.409702,-0.347625,-0.477108,-0.464375,-0.512000,-0.594594,-0.808090,-0.594594,-0.808090,-0.582410,-0.777036,-0.426289,-0.716120,-0.279226,-0.627684,-0.146873,-0.515127,-0.034316,-0.382774,0.054120,-0.235711,0.115036,-0.079590,0.146090,
-0.031746,0.146090,-0.029264,0.147118,0.029264,0.147118,0.031746,0.146090,0.031746,0.146090,$1*%
G04 Aperture macros list end*
%ADD10RoundRect,0.190500X-1.079500X-0.444500X1.079500X-0.444500X1.079500X0.444500X-1.079500X0.444500X0*%
%ADD11R,0.550000X0.380000*%
%ADD12R,1.400000X1.200000*%
%ADD13RoundRect,0.200000X-0.200000X-0.275000X0.200000X-0.275000X0.200000X0.275000X-0.200000X0.275000X0*%
%ADD14RoundRect,0.150000X0.512500X0.150000X-0.512500X0.150000X-0.512500X-0.150000X0.512500X-0.150000X0*%
%ADD15RoundRect,0.200000X0.275000X-0.200000X0.275000X0.200000X-0.275000X0.200000X-0.275000X-0.200000X0*%
%ADD16RoundRect,0.250000X0.350000X0.625000X-0.350000X0.625000X-0.350000X-0.625000X0.350000X-0.625000X0*%
%ADD17O,1.200000X1.750000*%
%ADD18C,0.500000*%
%ADD19RoundRect,0.130500X0.169500X0.130500X-0.169500X0.130500X-0.169500X-0.130500X0.169500X-0.130500X0*%
%ADD20FreePoly0,90.000000*%
G04 APERTURE END LIST*
D10*
%TO.C,U1*%
X130580000Y-78500000D03*
X130580000Y-81040000D03*
X130580000Y-83580000D03*
X130580000Y-86120000D03*
X130580000Y-88660000D03*
X130584025Y-91249845D03*
X130580000Y-93740000D03*
X130580000Y-96280000D03*
X130580000Y-98820000D03*
X130580000Y-101360000D03*
X130580000Y-103900000D03*
X148360000Y-103900000D03*
X148360000Y-101360000D03*
X148360000Y-98820000D03*
X148360000Y-96280000D03*
X148360000Y-93740000D03*
X148360000Y-91200000D03*
X148360000Y-88660000D03*
X148360000Y-86120000D03*
X148360000Y-83580000D03*
X148345563Y-81040000D03*
X148360000Y-78500000D03*
%TD*%
D11*
%TO.C,D1*%
X138567519Y-86699811D03*
X139467519Y-86699811D03*
D12*
X139017519Y-85659811D03*
%TD*%
D13*
%TO.C,R2*%
X144233492Y-89732621D03*
X145883492Y-89732621D03*
%TD*%
D14*
%TO.C,U2*%
X144089083Y-94550002D03*
X144089083Y-95500002D03*
X144089083Y-96450002D03*
X141814083Y-96450002D03*
X141814083Y-94550002D03*
%TD*%
D13*
%TO.C,R3*%
X142187935Y-86813814D03*
X143837935Y-86813814D03*
%TD*%
%TO.C,R1*%
X138168594Y-93847660D03*
X139818594Y-93847660D03*
%TD*%
D15*
%TO.C,R4*%
X138431365Y-90964340D03*
X138431365Y-89314340D03*
%TD*%
D16*
%TO.C,J2*%
X142474631Y-80043139D03*
D17*
X140474631Y-80043139D03*
%TD*%
D18*
%TO.C,MK1*%
X139124183Y-101710133D03*
D19*
X140024183Y-99636133D03*
X140024183Y-100458133D03*
D20*
X138462183Y-101710133D03*
D19*
X138224183Y-100458133D03*
X138224183Y-99636133D03*
X139124183Y-99636133D03*
%TD*%
M02*
