M48
; DRILL file KiCad 10.0.1 date 2026-06-01T22:28:24
; FORMAT={-:-/ absolute / metric / decimal}
; #@! TF.CreationDate,2026-06-01T22:28:24-07:00
; #@! TF.GenerationSoftware,Kicad,Pcbnew,10.0.1
; #@! TF.FileFunction,Plated,1,2,PTH
FMAT,2
METRIC
; #@! TA.AperFunction,Plated,PTH,ViaDrill
T1C0.100
; #@! TA.AperFunction,Plated,PTH,ViaDrill
T2C0.300
; #@! TA.AperFunction,Plated,PTH,ComponentDrill
T3C0.750
; #@! TA.AperFunction,Plated,PTH,ComponentDrill
T4C0.800
%
G90
G05
T1
X138.359Y-97.042
T2
X134.345Y-93.74
X136.345Y-95.665
X146.073Y-86.716
T3
X140.475Y-80.043
X142.475Y-80.043
T4
X130.58Y-78.5
X130.58Y-81.04
X130.58Y-83.58
X130.58Y-86.12
X130.58Y-88.66
X130.58Y-93.74
X130.58Y-96.28
X130.58Y-98.82
X130.58Y-101.36
X130.58Y-103.9
X130.584Y-91.25
X148.346Y-81.04
X148.36Y-78.5
X148.36Y-83.58
X148.36Y-86.12
X148.36Y-88.66
X148.36Y-91.2
X148.36Y-93.74
X148.36Y-96.28
X148.36Y-98.82
X148.36Y-101.36
X148.36Y-103.9
M30
