G04 #@! TF.GenerationSoftware,KiCad,Pcbnew,10.0.1*
G04 #@! TF.CreationDate,2026-06-15T19:59:57-07:00*
G04 #@! TF.ProjectId,BatteryCharger,42617474-6572-4794-9368-61726765722e,rev?*
G04 #@! TF.SameCoordinates,Original*
G04 #@! TF.FileFunction,Legend,Top*
G04 #@! TF.FilePolarity,Positive*
%FSLAX46Y46*%
G04 Gerber Fmt 4.6, Leading zero omitted, Abs format (unit mm)*
G04 Created by KiCad (PCBNEW 10.0.1) date 2026-06-15 19:59:57*
%MOMM*%
%LPD*%
G01*
G04 APERTURE LIST*
G04 Aperture macros list*
%AMRoundRect*
0 Rectangle with rounded corners*
0 $1 Rounding radius*
0 $2 $3 $4 $5 $6 $7 $8 $9 X,Y pos of 4 corners*
0 Add a 4 corners polygon primitive as box body*
4,1,4,$2,$3,$4,$5,$6,$7,$8,$9,$2,$3,0*
0 Add four circle primitives for the rounded corners*
1,1,$1+$1,$2,$3*
1,1,$1+$1,$4,$5*
1,1,$1+$1,$6,$7*
1,1,$1+$1,$8,$9*
0 Add four rect primitives between the rounded corners*
20,1,$1+$1,$2,$3,$4,$5,0*
20,1,$1+$1,$4,$5,$6,$7,0*
20,1,$1+$1,$6,$7,$8,$9,0*
20,1,$1+$1,$8,$9,$2,$3,0*%
G04 Aperture macros list end*
%ADD10C,0.150000*%
%ADD11C,0.120000*%
%ADD12C,0.127000*%
%ADD13C,0.200000*%
%ADD14C,0.010000*%
%ADD15RoundRect,0.200000X0.200000X0.275000X-0.200000X0.275000X-0.200000X-0.275000X0.200000X-0.275000X0*%
%ADD16RoundRect,0.150000X0.150000X-0.512500X0.150000X0.512500X-0.150000X0.512500X-0.150000X-0.512500X0*%
%ADD17RoundRect,0.250000X0.650000X-1.000000X0.650000X1.000000X-0.650000X1.000000X-0.650000X-1.000000X0*%
%ADD18RoundRect,0.250000X-1.000000X-0.650000X1.000000X-0.650000X1.000000X0.650000X-1.000000X0.650000X0*%
%ADD19RoundRect,0.150000X-0.512500X-0.150000X0.512500X-0.150000X0.512500X0.150000X-0.512500X0.150000X0*%
%ADD20C,1.000000*%
%ADD21R,1.600000X5.700000*%
%ADD22RoundRect,0.250000X-0.475000X0.250000X-0.475000X-0.250000X0.475000X-0.250000X0.475000X0.250000X0*%
%ADD23RoundRect,0.225000X0.250000X-0.225000X0.250000X0.225000X-0.250000X0.225000X-0.250000X-0.225000X0*%
%ADD24RoundRect,0.250000X0.475000X-0.250000X0.475000X0.250000X-0.475000X0.250000X-0.475000X-0.250000X0*%
%ADD25RoundRect,0.075500X0.806500X0.226500X-0.806500X0.226500X-0.806500X-0.226500X0.806500X-0.226500X0*%
%ADD26RoundRect,0.243750X-0.243750X-0.456250X0.243750X-0.456250X0.243750X0.456250X-0.243750X0.456250X0*%
%ADD27RoundRect,0.250000X-0.250000X-0.475000X0.250000X-0.475000X0.250000X0.475000X-0.250000X0.475000X0*%
G04 APERTURE END LIST*
D10*
X185133333Y-76284819D02*
X184800000Y-75808628D01*
X184561905Y-76284819D02*
X184561905Y-75284819D01*
X184561905Y-75284819D02*
X184942857Y-75284819D01*
X184942857Y-75284819D02*
X185038095Y-75332438D01*
X185038095Y-75332438D02*
X185085714Y-75380057D01*
X185085714Y-75380057D02*
X185133333Y-75475295D01*
X185133333Y-75475295D02*
X185133333Y-75618152D01*
X185133333Y-75618152D02*
X185085714Y-75713390D01*
X185085714Y-75713390D02*
X185038095Y-75761009D01*
X185038095Y-75761009D02*
X184942857Y-75808628D01*
X184942857Y-75808628D02*
X184561905Y-75808628D01*
X185990476Y-75284819D02*
X185800000Y-75284819D01*
X185800000Y-75284819D02*
X185704762Y-75332438D01*
X185704762Y-75332438D02*
X185657143Y-75380057D01*
X185657143Y-75380057D02*
X185561905Y-75522914D01*
X185561905Y-75522914D02*
X185514286Y-75713390D01*
X185514286Y-75713390D02*
X185514286Y-76094342D01*
X185514286Y-76094342D02*
X185561905Y-76189580D01*
X185561905Y-76189580D02*
X185609524Y-76237200D01*
X185609524Y-76237200D02*
X185704762Y-76284819D01*
X185704762Y-76284819D02*
X185895238Y-76284819D01*
X185895238Y-76284819D02*
X185990476Y-76237200D01*
X185990476Y-76237200D02*
X186038095Y-76189580D01*
X186038095Y-76189580D02*
X186085714Y-76094342D01*
X186085714Y-76094342D02*
X186085714Y-75856247D01*
X186085714Y-75856247D02*
X186038095Y-75761009D01*
X186038095Y-75761009D02*
X185990476Y-75713390D01*
X185990476Y-75713390D02*
X185895238Y-75665771D01*
X185895238Y-75665771D02*
X185704762Y-75665771D01*
X185704762Y-75665771D02*
X185609524Y-75713390D01*
X185609524Y-75713390D02*
X185561905Y-75761009D01*
X185561905Y-75761009D02*
X185514286Y-75856247D01*
X188004819Y-65111904D02*
X188814342Y-65111904D01*
X188814342Y-65111904D02*
X188909580Y-65064285D01*
X188909580Y-65064285D02*
X188957200Y-65016666D01*
X188957200Y-65016666D02*
X189004819Y-64921428D01*
X189004819Y-64921428D02*
X189004819Y-64730952D01*
X189004819Y-64730952D02*
X188957200Y-64635714D01*
X188957200Y-64635714D02*
X188909580Y-64588095D01*
X188909580Y-64588095D02*
X188814342Y-64540476D01*
X188814342Y-64540476D02*
X188004819Y-64540476D01*
X188004819Y-64159523D02*
X188004819Y-63540476D01*
X188004819Y-63540476D02*
X188385771Y-63873809D01*
X188385771Y-63873809D02*
X188385771Y-63730952D01*
X188385771Y-63730952D02*
X188433390Y-63635714D01*
X188433390Y-63635714D02*
X188481009Y-63588095D01*
X188481009Y-63588095D02*
X188576247Y-63540476D01*
X188576247Y-63540476D02*
X188814342Y-63540476D01*
X188814342Y-63540476D02*
X188909580Y-63588095D01*
X188909580Y-63588095D02*
X188957200Y-63635714D01*
X188957200Y-63635714D02*
X189004819Y-63730952D01*
X189004819Y-63730952D02*
X189004819Y-64016666D01*
X189004819Y-64016666D02*
X188957200Y-64111904D01*
X188957200Y-64111904D02*
X188909580Y-64159523D01*
X193254819Y-79338094D02*
X192254819Y-79338094D01*
X192254819Y-79338094D02*
X192254819Y-79099999D01*
X192254819Y-79099999D02*
X192302438Y-78957142D01*
X192302438Y-78957142D02*
X192397676Y-78861904D01*
X192397676Y-78861904D02*
X192492914Y-78814285D01*
X192492914Y-78814285D02*
X192683390Y-78766666D01*
X192683390Y-78766666D02*
X192826247Y-78766666D01*
X192826247Y-78766666D02*
X193016723Y-78814285D01*
X193016723Y-78814285D02*
X193111961Y-78861904D01*
X193111961Y-78861904D02*
X193207200Y-78957142D01*
X193207200Y-78957142D02*
X193254819Y-79099999D01*
X193254819Y-79099999D02*
X193254819Y-79338094D01*
X192588152Y-77909523D02*
X193254819Y-77909523D01*
X192207200Y-78147618D02*
X192921485Y-78385713D01*
X192921485Y-78385713D02*
X192921485Y-77766666D01*
X186361905Y-57454819D02*
X186361905Y-56454819D01*
X186361905Y-56454819D02*
X186600000Y-56454819D01*
X186600000Y-56454819D02*
X186742857Y-56502438D01*
X186742857Y-56502438D02*
X186838095Y-56597676D01*
X186838095Y-56597676D02*
X186885714Y-56692914D01*
X186885714Y-56692914D02*
X186933333Y-56883390D01*
X186933333Y-56883390D02*
X186933333Y-57026247D01*
X186933333Y-57026247D02*
X186885714Y-57216723D01*
X186885714Y-57216723D02*
X186838095Y-57311961D01*
X186838095Y-57311961D02*
X186742857Y-57407200D01*
X186742857Y-57407200D02*
X186600000Y-57454819D01*
X186600000Y-57454819D02*
X186361905Y-57454819D01*
X187838095Y-56454819D02*
X187361905Y-56454819D01*
X187361905Y-56454819D02*
X187314286Y-56931009D01*
X187314286Y-56931009D02*
X187361905Y-56883390D01*
X187361905Y-56883390D02*
X187457143Y-56835771D01*
X187457143Y-56835771D02*
X187695238Y-56835771D01*
X187695238Y-56835771D02*
X187790476Y-56883390D01*
X187790476Y-56883390D02*
X187838095Y-56931009D01*
X187838095Y-56931009D02*
X187885714Y-57026247D01*
X187885714Y-57026247D02*
X187885714Y-57264342D01*
X187885714Y-57264342D02*
X187838095Y-57359580D01*
X187838095Y-57359580D02*
X187790476Y-57407200D01*
X187790476Y-57407200D02*
X187695238Y-57454819D01*
X187695238Y-57454819D02*
X187457143Y-57454819D01*
X187457143Y-57454819D02*
X187361905Y-57407200D01*
X187361905Y-57407200D02*
X187314286Y-57359580D01*
X194400595Y-67404819D02*
X194400595Y-68214342D01*
X194400595Y-68214342D02*
X194448214Y-68309580D01*
X194448214Y-68309580D02*
X194495833Y-68357200D01*
X194495833Y-68357200D02*
X194591071Y-68404819D01*
X194591071Y-68404819D02*
X194781547Y-68404819D01*
X194781547Y-68404819D02*
X194876785Y-68357200D01*
X194876785Y-68357200D02*
X194924404Y-68309580D01*
X194924404Y-68309580D02*
X194972023Y-68214342D01*
X194972023Y-68214342D02*
X194972023Y-67404819D01*
X195972023Y-68404819D02*
X195400595Y-68404819D01*
X195686309Y-68404819D02*
X195686309Y-67404819D01*
X195686309Y-67404819D02*
X195591071Y-67547676D01*
X195591071Y-67547676D02*
X195495833Y-67642914D01*
X195495833Y-67642914D02*
X195400595Y-67690533D01*
X188480952Y-54954819D02*
X188480952Y-53954819D01*
X188480952Y-53954819D02*
X188861904Y-53954819D01*
X188861904Y-53954819D02*
X188957142Y-54002438D01*
X188957142Y-54002438D02*
X189004761Y-54050057D01*
X189004761Y-54050057D02*
X189052380Y-54145295D01*
X189052380Y-54145295D02*
X189052380Y-54288152D01*
X189052380Y-54288152D02*
X189004761Y-54383390D01*
X189004761Y-54383390D02*
X188957142Y-54431009D01*
X188957142Y-54431009D02*
X188861904Y-54478628D01*
X188861904Y-54478628D02*
X188480952Y-54478628D01*
X189623809Y-54954819D02*
X189528571Y-54907200D01*
X189528571Y-54907200D02*
X189480952Y-54859580D01*
X189480952Y-54859580D02*
X189433333Y-54764342D01*
X189433333Y-54764342D02*
X189433333Y-54478628D01*
X189433333Y-54478628D02*
X189480952Y-54383390D01*
X189480952Y-54383390D02*
X189528571Y-54335771D01*
X189528571Y-54335771D02*
X189623809Y-54288152D01*
X189623809Y-54288152D02*
X189766666Y-54288152D01*
X189766666Y-54288152D02*
X189861904Y-54335771D01*
X189861904Y-54335771D02*
X189909523Y-54383390D01*
X189909523Y-54383390D02*
X189957142Y-54478628D01*
X189957142Y-54478628D02*
X189957142Y-54764342D01*
X189957142Y-54764342D02*
X189909523Y-54859580D01*
X189909523Y-54859580D02*
X189861904Y-54907200D01*
X189861904Y-54907200D02*
X189766666Y-54954819D01*
X189766666Y-54954819D02*
X189623809Y-54954819D01*
X190814285Y-54288152D02*
X190814285Y-55097676D01*
X190814285Y-55097676D02*
X190766666Y-55192914D01*
X190766666Y-55192914D02*
X190719047Y-55240533D01*
X190719047Y-55240533D02*
X190623809Y-55288152D01*
X190623809Y-55288152D02*
X190480952Y-55288152D01*
X190480952Y-55288152D02*
X190385714Y-55240533D01*
X190814285Y-54907200D02*
X190719047Y-54954819D01*
X190719047Y-54954819D02*
X190528571Y-54954819D01*
X190528571Y-54954819D02*
X190433333Y-54907200D01*
X190433333Y-54907200D02*
X190385714Y-54859580D01*
X190385714Y-54859580D02*
X190338095Y-54764342D01*
X190338095Y-54764342D02*
X190338095Y-54478628D01*
X190338095Y-54478628D02*
X190385714Y-54383390D01*
X190385714Y-54383390D02*
X190433333Y-54335771D01*
X190433333Y-54335771D02*
X190528571Y-54288152D01*
X190528571Y-54288152D02*
X190719047Y-54288152D01*
X190719047Y-54288152D02*
X190814285Y-54335771D01*
X191433333Y-54954819D02*
X191338095Y-54907200D01*
X191338095Y-54907200D02*
X191290476Y-54859580D01*
X191290476Y-54859580D02*
X191242857Y-54764342D01*
X191242857Y-54764342D02*
X191242857Y-54478628D01*
X191242857Y-54478628D02*
X191290476Y-54383390D01*
X191290476Y-54383390D02*
X191338095Y-54335771D01*
X191338095Y-54335771D02*
X191433333Y-54288152D01*
X191433333Y-54288152D02*
X191576190Y-54288152D01*
X191576190Y-54288152D02*
X191671428Y-54335771D01*
X191671428Y-54335771D02*
X191719047Y-54383390D01*
X191719047Y-54383390D02*
X191766666Y-54478628D01*
X191766666Y-54478628D02*
X191766666Y-54764342D01*
X191766666Y-54764342D02*
X191719047Y-54859580D01*
X191719047Y-54859580D02*
X191671428Y-54907200D01*
X191671428Y-54907200D02*
X191576190Y-54954819D01*
X191576190Y-54954819D02*
X191433333Y-54954819D01*
X197433333Y-67454819D02*
X196957143Y-67454819D01*
X196957143Y-67454819D02*
X196957143Y-66454819D01*
X198290476Y-67454819D02*
X197719048Y-67454819D01*
X198004762Y-67454819D02*
X198004762Y-66454819D01*
X198004762Y-66454819D02*
X197909524Y-66597676D01*
X197909524Y-66597676D02*
X197814286Y-66692914D01*
X197814286Y-66692914D02*
X197719048Y-66740533D01*
X195633333Y-85359580D02*
X195585714Y-85407200D01*
X195585714Y-85407200D02*
X195442857Y-85454819D01*
X195442857Y-85454819D02*
X195347619Y-85454819D01*
X195347619Y-85454819D02*
X195204762Y-85407200D01*
X195204762Y-85407200D02*
X195109524Y-85311961D01*
X195109524Y-85311961D02*
X195061905Y-85216723D01*
X195061905Y-85216723D02*
X195014286Y-85026247D01*
X195014286Y-85026247D02*
X195014286Y-84883390D01*
X195014286Y-84883390D02*
X195061905Y-84692914D01*
X195061905Y-84692914D02*
X195109524Y-84597676D01*
X195109524Y-84597676D02*
X195204762Y-84502438D01*
X195204762Y-84502438D02*
X195347619Y-84454819D01*
X195347619Y-84454819D02*
X195442857Y-84454819D01*
X195442857Y-84454819D02*
X195585714Y-84502438D01*
X195585714Y-84502438D02*
X195633333Y-84550057D01*
X196585714Y-85454819D02*
X196014286Y-85454819D01*
X196300000Y-85454819D02*
X196300000Y-84454819D01*
X196300000Y-84454819D02*
X196204762Y-84597676D01*
X196204762Y-84597676D02*
X196109524Y-84692914D01*
X196109524Y-84692914D02*
X196014286Y-84740533D01*
X190733333Y-75854819D02*
X190400000Y-75378628D01*
X190161905Y-75854819D02*
X190161905Y-74854819D01*
X190161905Y-74854819D02*
X190542857Y-74854819D01*
X190542857Y-74854819D02*
X190638095Y-74902438D01*
X190638095Y-74902438D02*
X190685714Y-74950057D01*
X190685714Y-74950057D02*
X190733333Y-75045295D01*
X190733333Y-75045295D02*
X190733333Y-75188152D01*
X190733333Y-75188152D02*
X190685714Y-75283390D01*
X190685714Y-75283390D02*
X190638095Y-75331009D01*
X190638095Y-75331009D02*
X190542857Y-75378628D01*
X190542857Y-75378628D02*
X190161905Y-75378628D01*
X191304762Y-75283390D02*
X191209524Y-75235771D01*
X191209524Y-75235771D02*
X191161905Y-75188152D01*
X191161905Y-75188152D02*
X191114286Y-75092914D01*
X191114286Y-75092914D02*
X191114286Y-75045295D01*
X191114286Y-75045295D02*
X191161905Y-74950057D01*
X191161905Y-74950057D02*
X191209524Y-74902438D01*
X191209524Y-74902438D02*
X191304762Y-74854819D01*
X191304762Y-74854819D02*
X191495238Y-74854819D01*
X191495238Y-74854819D02*
X191590476Y-74902438D01*
X191590476Y-74902438D02*
X191638095Y-74950057D01*
X191638095Y-74950057D02*
X191685714Y-75045295D01*
X191685714Y-75045295D02*
X191685714Y-75092914D01*
X191685714Y-75092914D02*
X191638095Y-75188152D01*
X191638095Y-75188152D02*
X191590476Y-75235771D01*
X191590476Y-75235771D02*
X191495238Y-75283390D01*
X191495238Y-75283390D02*
X191304762Y-75283390D01*
X191304762Y-75283390D02*
X191209524Y-75331009D01*
X191209524Y-75331009D02*
X191161905Y-75378628D01*
X191161905Y-75378628D02*
X191114286Y-75473866D01*
X191114286Y-75473866D02*
X191114286Y-75664342D01*
X191114286Y-75664342D02*
X191161905Y-75759580D01*
X191161905Y-75759580D02*
X191209524Y-75807200D01*
X191209524Y-75807200D02*
X191304762Y-75854819D01*
X191304762Y-75854819D02*
X191495238Y-75854819D01*
X191495238Y-75854819D02*
X191590476Y-75807200D01*
X191590476Y-75807200D02*
X191638095Y-75759580D01*
X191638095Y-75759580D02*
X191685714Y-75664342D01*
X191685714Y-75664342D02*
X191685714Y-75473866D01*
X191685714Y-75473866D02*
X191638095Y-75378628D01*
X191638095Y-75378628D02*
X191590476Y-75331009D01*
X191590476Y-75331009D02*
X191495238Y-75283390D01*
X186361905Y-80054819D02*
X186361905Y-79054819D01*
X186361905Y-79054819D02*
X186600000Y-79054819D01*
X186600000Y-79054819D02*
X186742857Y-79102438D01*
X186742857Y-79102438D02*
X186838095Y-79197676D01*
X186838095Y-79197676D02*
X186885714Y-79292914D01*
X186885714Y-79292914D02*
X186933333Y-79483390D01*
X186933333Y-79483390D02*
X186933333Y-79626247D01*
X186933333Y-79626247D02*
X186885714Y-79816723D01*
X186885714Y-79816723D02*
X186838095Y-79911961D01*
X186838095Y-79911961D02*
X186742857Y-80007200D01*
X186742857Y-80007200D02*
X186600000Y-80054819D01*
X186600000Y-80054819D02*
X186361905Y-80054819D01*
X187266667Y-79054819D02*
X187885714Y-79054819D01*
X187885714Y-79054819D02*
X187552381Y-79435771D01*
X187552381Y-79435771D02*
X187695238Y-79435771D01*
X187695238Y-79435771D02*
X187790476Y-79483390D01*
X187790476Y-79483390D02*
X187838095Y-79531009D01*
X187838095Y-79531009D02*
X187885714Y-79626247D01*
X187885714Y-79626247D02*
X187885714Y-79864342D01*
X187885714Y-79864342D02*
X187838095Y-79959580D01*
X187838095Y-79959580D02*
X187790476Y-80007200D01*
X187790476Y-80007200D02*
X187695238Y-80054819D01*
X187695238Y-80054819D02*
X187409524Y-80054819D01*
X187409524Y-80054819D02*
X187314286Y-80007200D01*
X187314286Y-80007200D02*
X187266667Y-79959580D01*
X184916667Y-88754819D02*
X185250000Y-89754819D01*
X185250000Y-89754819D02*
X185583333Y-88754819D01*
X186250000Y-89231009D02*
X186392857Y-89278628D01*
X186392857Y-89278628D02*
X186440476Y-89326247D01*
X186440476Y-89326247D02*
X186488095Y-89421485D01*
X186488095Y-89421485D02*
X186488095Y-89564342D01*
X186488095Y-89564342D02*
X186440476Y-89659580D01*
X186440476Y-89659580D02*
X186392857Y-89707200D01*
X186392857Y-89707200D02*
X186297619Y-89754819D01*
X186297619Y-89754819D02*
X185916667Y-89754819D01*
X185916667Y-89754819D02*
X185916667Y-88754819D01*
X185916667Y-88754819D02*
X186250000Y-88754819D01*
X186250000Y-88754819D02*
X186345238Y-88802438D01*
X186345238Y-88802438D02*
X186392857Y-88850057D01*
X186392857Y-88850057D02*
X186440476Y-88945295D01*
X186440476Y-88945295D02*
X186440476Y-89040533D01*
X186440476Y-89040533D02*
X186392857Y-89135771D01*
X186392857Y-89135771D02*
X186345238Y-89183390D01*
X186345238Y-89183390D02*
X186250000Y-89231009D01*
X186250000Y-89231009D02*
X185916667Y-89231009D01*
X186916667Y-88754819D02*
X186916667Y-89564342D01*
X186916667Y-89564342D02*
X186964286Y-89659580D01*
X186964286Y-89659580D02*
X187011905Y-89707200D01*
X187011905Y-89707200D02*
X187107143Y-89754819D01*
X187107143Y-89754819D02*
X187297619Y-89754819D01*
X187297619Y-89754819D02*
X187392857Y-89707200D01*
X187392857Y-89707200D02*
X187440476Y-89659580D01*
X187440476Y-89659580D02*
X187488095Y-89564342D01*
X187488095Y-89564342D02*
X187488095Y-88754819D01*
X187916667Y-89707200D02*
X188059524Y-89754819D01*
X188059524Y-89754819D02*
X188297619Y-89754819D01*
X188297619Y-89754819D02*
X188392857Y-89707200D01*
X188392857Y-89707200D02*
X188440476Y-89659580D01*
X188440476Y-89659580D02*
X188488095Y-89564342D01*
X188488095Y-89564342D02*
X188488095Y-89469104D01*
X188488095Y-89469104D02*
X188440476Y-89373866D01*
X188440476Y-89373866D02*
X188392857Y-89326247D01*
X188392857Y-89326247D02*
X188297619Y-89278628D01*
X188297619Y-89278628D02*
X188107143Y-89231009D01*
X188107143Y-89231009D02*
X188011905Y-89183390D01*
X188011905Y-89183390D02*
X187964286Y-89135771D01*
X187964286Y-89135771D02*
X187916667Y-89040533D01*
X187916667Y-89040533D02*
X187916667Y-88945295D01*
X187916667Y-88945295D02*
X187964286Y-88850057D01*
X187964286Y-88850057D02*
X188011905Y-88802438D01*
X188011905Y-88802438D02*
X188107143Y-88754819D01*
X188107143Y-88754819D02*
X188345238Y-88754819D01*
X188345238Y-88754819D02*
X188488095Y-88802438D01*
X200228819Y-89480285D02*
X199228819Y-89480285D01*
X199228819Y-89480285D02*
X199228819Y-89099333D01*
X199228819Y-89099333D02*
X199276438Y-89004095D01*
X199276438Y-89004095D02*
X199324057Y-88956476D01*
X199324057Y-88956476D02*
X199419295Y-88908857D01*
X199419295Y-88908857D02*
X199562152Y-88908857D01*
X199562152Y-88908857D02*
X199657390Y-88956476D01*
X199657390Y-88956476D02*
X199705009Y-89004095D01*
X199705009Y-89004095D02*
X199752628Y-89099333D01*
X199752628Y-89099333D02*
X199752628Y-89480285D01*
X200181200Y-88527904D02*
X200228819Y-88385047D01*
X200228819Y-88385047D02*
X200228819Y-88146952D01*
X200228819Y-88146952D02*
X200181200Y-88051714D01*
X200181200Y-88051714D02*
X200133580Y-88004095D01*
X200133580Y-88004095D02*
X200038342Y-87956476D01*
X200038342Y-87956476D02*
X199943104Y-87956476D01*
X199943104Y-87956476D02*
X199847866Y-88004095D01*
X199847866Y-88004095D02*
X199800247Y-88051714D01*
X199800247Y-88051714D02*
X199752628Y-88146952D01*
X199752628Y-88146952D02*
X199705009Y-88337428D01*
X199705009Y-88337428D02*
X199657390Y-88432666D01*
X199657390Y-88432666D02*
X199609771Y-88480285D01*
X199609771Y-88480285D02*
X199514533Y-88527904D01*
X199514533Y-88527904D02*
X199419295Y-88527904D01*
X199419295Y-88527904D02*
X199324057Y-88480285D01*
X199324057Y-88480285D02*
X199276438Y-88432666D01*
X199276438Y-88432666D02*
X199228819Y-88337428D01*
X199228819Y-88337428D02*
X199228819Y-88099333D01*
X199228819Y-88099333D02*
X199276438Y-87956476D01*
X200228819Y-87004095D02*
X200228819Y-87575523D01*
X200228819Y-87289809D02*
X199228819Y-87289809D01*
X199228819Y-87289809D02*
X199371676Y-87385047D01*
X199371676Y-87385047D02*
X199466914Y-87480285D01*
X199466914Y-87480285D02*
X199514533Y-87575523D01*
X185033333Y-66384819D02*
X184700000Y-65908628D01*
X184461905Y-66384819D02*
X184461905Y-65384819D01*
X184461905Y-65384819D02*
X184842857Y-65384819D01*
X184842857Y-65384819D02*
X184938095Y-65432438D01*
X184938095Y-65432438D02*
X184985714Y-65480057D01*
X184985714Y-65480057D02*
X185033333Y-65575295D01*
X185033333Y-65575295D02*
X185033333Y-65718152D01*
X185033333Y-65718152D02*
X184985714Y-65813390D01*
X184985714Y-65813390D02*
X184938095Y-65861009D01*
X184938095Y-65861009D02*
X184842857Y-65908628D01*
X184842857Y-65908628D02*
X184461905Y-65908628D01*
X185938095Y-65384819D02*
X185461905Y-65384819D01*
X185461905Y-65384819D02*
X185414286Y-65861009D01*
X185414286Y-65861009D02*
X185461905Y-65813390D01*
X185461905Y-65813390D02*
X185557143Y-65765771D01*
X185557143Y-65765771D02*
X185795238Y-65765771D01*
X185795238Y-65765771D02*
X185890476Y-65813390D01*
X185890476Y-65813390D02*
X185938095Y-65861009D01*
X185938095Y-65861009D02*
X185985714Y-65956247D01*
X185985714Y-65956247D02*
X185985714Y-66194342D01*
X185985714Y-66194342D02*
X185938095Y-66289580D01*
X185938095Y-66289580D02*
X185890476Y-66337200D01*
X185890476Y-66337200D02*
X185795238Y-66384819D01*
X185795238Y-66384819D02*
X185557143Y-66384819D01*
X185557143Y-66384819D02*
X185461905Y-66337200D01*
X185461905Y-66337200D02*
X185414286Y-66289580D01*
X185208333Y-73384819D02*
X184875000Y-72908628D01*
X184636905Y-73384819D02*
X184636905Y-72384819D01*
X184636905Y-72384819D02*
X185017857Y-72384819D01*
X185017857Y-72384819D02*
X185113095Y-72432438D01*
X185113095Y-72432438D02*
X185160714Y-72480057D01*
X185160714Y-72480057D02*
X185208333Y-72575295D01*
X185208333Y-72575295D02*
X185208333Y-72718152D01*
X185208333Y-72718152D02*
X185160714Y-72813390D01*
X185160714Y-72813390D02*
X185113095Y-72861009D01*
X185113095Y-72861009D02*
X185017857Y-72908628D01*
X185017857Y-72908628D02*
X184636905Y-72908628D01*
X185541667Y-72384819D02*
X186208333Y-72384819D01*
X186208333Y-72384819D02*
X185779762Y-73384819D01*
X198452381Y-54231009D02*
X198595238Y-54278628D01*
X198595238Y-54278628D02*
X198642857Y-54326247D01*
X198642857Y-54326247D02*
X198690476Y-54421485D01*
X198690476Y-54421485D02*
X198690476Y-54564342D01*
X198690476Y-54564342D02*
X198642857Y-54659580D01*
X198642857Y-54659580D02*
X198595238Y-54707200D01*
X198595238Y-54707200D02*
X198500000Y-54754819D01*
X198500000Y-54754819D02*
X198119048Y-54754819D01*
X198119048Y-54754819D02*
X198119048Y-53754819D01*
X198119048Y-53754819D02*
X198452381Y-53754819D01*
X198452381Y-53754819D02*
X198547619Y-53802438D01*
X198547619Y-53802438D02*
X198595238Y-53850057D01*
X198595238Y-53850057D02*
X198642857Y-53945295D01*
X198642857Y-53945295D02*
X198642857Y-54040533D01*
X198642857Y-54040533D02*
X198595238Y-54135771D01*
X198595238Y-54135771D02*
X198547619Y-54183390D01*
X198547619Y-54183390D02*
X198452381Y-54231009D01*
X198452381Y-54231009D02*
X198119048Y-54231009D01*
X199119048Y-54373866D02*
X199880953Y-54373866D01*
X190729580Y-72841666D02*
X190777200Y-72889285D01*
X190777200Y-72889285D02*
X190824819Y-73032142D01*
X190824819Y-73032142D02*
X190824819Y-73127380D01*
X190824819Y-73127380D02*
X190777200Y-73270237D01*
X190777200Y-73270237D02*
X190681961Y-73365475D01*
X190681961Y-73365475D02*
X190586723Y-73413094D01*
X190586723Y-73413094D02*
X190396247Y-73460713D01*
X190396247Y-73460713D02*
X190253390Y-73460713D01*
X190253390Y-73460713D02*
X190062914Y-73413094D01*
X190062914Y-73413094D02*
X189967676Y-73365475D01*
X189967676Y-73365475D02*
X189872438Y-73270237D01*
X189872438Y-73270237D02*
X189824819Y-73127380D01*
X189824819Y-73127380D02*
X189824819Y-73032142D01*
X189824819Y-73032142D02*
X189872438Y-72889285D01*
X189872438Y-72889285D02*
X189920057Y-72841666D01*
X189824819Y-71936904D02*
X189824819Y-72413094D01*
X189824819Y-72413094D02*
X190301009Y-72460713D01*
X190301009Y-72460713D02*
X190253390Y-72413094D01*
X190253390Y-72413094D02*
X190205771Y-72317856D01*
X190205771Y-72317856D02*
X190205771Y-72079761D01*
X190205771Y-72079761D02*
X190253390Y-71984523D01*
X190253390Y-71984523D02*
X190301009Y-71936904D01*
X190301009Y-71936904D02*
X190396247Y-71889285D01*
X190396247Y-71889285D02*
X190634342Y-71889285D01*
X190634342Y-71889285D02*
X190729580Y-71936904D01*
X190729580Y-71936904D02*
X190777200Y-71984523D01*
X190777200Y-71984523D02*
X190824819Y-72079761D01*
X190824819Y-72079761D02*
X190824819Y-72317856D01*
X190824819Y-72317856D02*
X190777200Y-72413094D01*
X190777200Y-72413094D02*
X190729580Y-72460713D01*
X195452381Y-54231009D02*
X195595238Y-54278628D01*
X195595238Y-54278628D02*
X195642857Y-54326247D01*
X195642857Y-54326247D02*
X195690476Y-54421485D01*
X195690476Y-54421485D02*
X195690476Y-54564342D01*
X195690476Y-54564342D02*
X195642857Y-54659580D01*
X195642857Y-54659580D02*
X195595238Y-54707200D01*
X195595238Y-54707200D02*
X195500000Y-54754819D01*
X195500000Y-54754819D02*
X195119048Y-54754819D01*
X195119048Y-54754819D02*
X195119048Y-53754819D01*
X195119048Y-53754819D02*
X195452381Y-53754819D01*
X195452381Y-53754819D02*
X195547619Y-53802438D01*
X195547619Y-53802438D02*
X195595238Y-53850057D01*
X195595238Y-53850057D02*
X195642857Y-53945295D01*
X195642857Y-53945295D02*
X195642857Y-54040533D01*
X195642857Y-54040533D02*
X195595238Y-54135771D01*
X195595238Y-54135771D02*
X195547619Y-54183390D01*
X195547619Y-54183390D02*
X195452381Y-54231009D01*
X195452381Y-54231009D02*
X195119048Y-54231009D01*
X196119048Y-54373866D02*
X196880953Y-54373866D01*
X196500000Y-54754819D02*
X196500000Y-53992914D01*
X190238095Y-88702438D02*
X190142857Y-88654819D01*
X190142857Y-88654819D02*
X190000000Y-88654819D01*
X190000000Y-88654819D02*
X189857143Y-88702438D01*
X189857143Y-88702438D02*
X189761905Y-88797676D01*
X189761905Y-88797676D02*
X189714286Y-88892914D01*
X189714286Y-88892914D02*
X189666667Y-89083390D01*
X189666667Y-89083390D02*
X189666667Y-89226247D01*
X189666667Y-89226247D02*
X189714286Y-89416723D01*
X189714286Y-89416723D02*
X189761905Y-89511961D01*
X189761905Y-89511961D02*
X189857143Y-89607200D01*
X189857143Y-89607200D02*
X190000000Y-89654819D01*
X190000000Y-89654819D02*
X190095238Y-89654819D01*
X190095238Y-89654819D02*
X190238095Y-89607200D01*
X190238095Y-89607200D02*
X190285714Y-89559580D01*
X190285714Y-89559580D02*
X190285714Y-89226247D01*
X190285714Y-89226247D02*
X190095238Y-89226247D01*
X190714286Y-89654819D02*
X190714286Y-88654819D01*
X190714286Y-88654819D02*
X191285714Y-89654819D01*
X191285714Y-89654819D02*
X191285714Y-88654819D01*
X191761905Y-89654819D02*
X191761905Y-88654819D01*
X191761905Y-88654819D02*
X192000000Y-88654819D01*
X192000000Y-88654819D02*
X192142857Y-88702438D01*
X192142857Y-88702438D02*
X192238095Y-88797676D01*
X192238095Y-88797676D02*
X192285714Y-88892914D01*
X192285714Y-88892914D02*
X192333333Y-89083390D01*
X192333333Y-89083390D02*
X192333333Y-89226247D01*
X192333333Y-89226247D02*
X192285714Y-89416723D01*
X192285714Y-89416723D02*
X192238095Y-89511961D01*
X192238095Y-89511961D02*
X192142857Y-89607200D01*
X192142857Y-89607200D02*
X192000000Y-89654819D01*
X192000000Y-89654819D02*
X191761905Y-89654819D01*
X192083333Y-59909580D02*
X192035714Y-59957200D01*
X192035714Y-59957200D02*
X191892857Y-60004819D01*
X191892857Y-60004819D02*
X191797619Y-60004819D01*
X191797619Y-60004819D02*
X191654762Y-59957200D01*
X191654762Y-59957200D02*
X191559524Y-59861961D01*
X191559524Y-59861961D02*
X191511905Y-59766723D01*
X191511905Y-59766723D02*
X191464286Y-59576247D01*
X191464286Y-59576247D02*
X191464286Y-59433390D01*
X191464286Y-59433390D02*
X191511905Y-59242914D01*
X191511905Y-59242914D02*
X191559524Y-59147676D01*
X191559524Y-59147676D02*
X191654762Y-59052438D01*
X191654762Y-59052438D02*
X191797619Y-59004819D01*
X191797619Y-59004819D02*
X191892857Y-59004819D01*
X191892857Y-59004819D02*
X192035714Y-59052438D01*
X192035714Y-59052438D02*
X192083333Y-59100057D01*
X192940476Y-59338152D02*
X192940476Y-60004819D01*
X192702381Y-58957200D02*
X192464286Y-59671485D01*
X192464286Y-59671485D02*
X193083333Y-59671485D01*
X193333333Y-85359580D02*
X193285714Y-85407200D01*
X193285714Y-85407200D02*
X193142857Y-85454819D01*
X193142857Y-85454819D02*
X193047619Y-85454819D01*
X193047619Y-85454819D02*
X192904762Y-85407200D01*
X192904762Y-85407200D02*
X192809524Y-85311961D01*
X192809524Y-85311961D02*
X192761905Y-85216723D01*
X192761905Y-85216723D02*
X192714286Y-85026247D01*
X192714286Y-85026247D02*
X192714286Y-84883390D01*
X192714286Y-84883390D02*
X192761905Y-84692914D01*
X192761905Y-84692914D02*
X192809524Y-84597676D01*
X192809524Y-84597676D02*
X192904762Y-84502438D01*
X192904762Y-84502438D02*
X193047619Y-84454819D01*
X193047619Y-84454819D02*
X193142857Y-84454819D01*
X193142857Y-84454819D02*
X193285714Y-84502438D01*
X193285714Y-84502438D02*
X193333333Y-84550057D01*
X193714286Y-84550057D02*
X193761905Y-84502438D01*
X193761905Y-84502438D02*
X193857143Y-84454819D01*
X193857143Y-84454819D02*
X194095238Y-84454819D01*
X194095238Y-84454819D02*
X194190476Y-84502438D01*
X194190476Y-84502438D02*
X194238095Y-84550057D01*
X194238095Y-84550057D02*
X194285714Y-84645295D01*
X194285714Y-84645295D02*
X194285714Y-84740533D01*
X194285714Y-84740533D02*
X194238095Y-84883390D01*
X194238095Y-84883390D02*
X193666667Y-85454819D01*
X193666667Y-85454819D02*
X194285714Y-85454819D01*
X188031761Y-71290057D02*
X187936523Y-71242438D01*
X187936523Y-71242438D02*
X187841285Y-71147200D01*
X187841285Y-71147200D02*
X187698428Y-71004342D01*
X187698428Y-71004342D02*
X187603190Y-70956723D01*
X187603190Y-70956723D02*
X187507952Y-70956723D01*
X187555571Y-71194819D02*
X187460333Y-71147200D01*
X187460333Y-71147200D02*
X187365095Y-71051961D01*
X187365095Y-71051961D02*
X187317476Y-70861485D01*
X187317476Y-70861485D02*
X187317476Y-70528152D01*
X187317476Y-70528152D02*
X187365095Y-70337676D01*
X187365095Y-70337676D02*
X187460333Y-70242438D01*
X187460333Y-70242438D02*
X187555571Y-70194819D01*
X187555571Y-70194819D02*
X187746047Y-70194819D01*
X187746047Y-70194819D02*
X187841285Y-70242438D01*
X187841285Y-70242438D02*
X187936523Y-70337676D01*
X187936523Y-70337676D02*
X187984142Y-70528152D01*
X187984142Y-70528152D02*
X187984142Y-70861485D01*
X187984142Y-70861485D02*
X187936523Y-71051961D01*
X187936523Y-71051961D02*
X187841285Y-71147200D01*
X187841285Y-71147200D02*
X187746047Y-71194819D01*
X187746047Y-71194819D02*
X187555571Y-71194819D01*
X188936523Y-71194819D02*
X188365095Y-71194819D01*
X188650809Y-71194819D02*
X188650809Y-70194819D01*
X188650809Y-70194819D02*
X188555571Y-70337676D01*
X188555571Y-70337676D02*
X188460333Y-70432914D01*
X188460333Y-70432914D02*
X188365095Y-70480533D01*
X199854819Y-71938094D02*
X198854819Y-71938094D01*
X198854819Y-71938094D02*
X198854819Y-71699999D01*
X198854819Y-71699999D02*
X198902438Y-71557142D01*
X198902438Y-71557142D02*
X198997676Y-71461904D01*
X198997676Y-71461904D02*
X199092914Y-71414285D01*
X199092914Y-71414285D02*
X199283390Y-71366666D01*
X199283390Y-71366666D02*
X199426247Y-71366666D01*
X199426247Y-71366666D02*
X199616723Y-71414285D01*
X199616723Y-71414285D02*
X199711961Y-71461904D01*
X199711961Y-71461904D02*
X199807200Y-71557142D01*
X199807200Y-71557142D02*
X199854819Y-71699999D01*
X199854819Y-71699999D02*
X199854819Y-71938094D01*
X198950057Y-70985713D02*
X198902438Y-70938094D01*
X198902438Y-70938094D02*
X198854819Y-70842856D01*
X198854819Y-70842856D02*
X198854819Y-70604761D01*
X198854819Y-70604761D02*
X198902438Y-70509523D01*
X198902438Y-70509523D02*
X198950057Y-70461904D01*
X198950057Y-70461904D02*
X199045295Y-70414285D01*
X199045295Y-70414285D02*
X199140533Y-70414285D01*
X199140533Y-70414285D02*
X199283390Y-70461904D01*
X199283390Y-70461904D02*
X199854819Y-71033332D01*
X199854819Y-71033332D02*
X199854819Y-70414285D01*
X188254819Y-63038094D02*
X187254819Y-63038094D01*
X187254819Y-63038094D02*
X187254819Y-62799999D01*
X187254819Y-62799999D02*
X187302438Y-62657142D01*
X187302438Y-62657142D02*
X187397676Y-62561904D01*
X187397676Y-62561904D02*
X187492914Y-62514285D01*
X187492914Y-62514285D02*
X187683390Y-62466666D01*
X187683390Y-62466666D02*
X187826247Y-62466666D01*
X187826247Y-62466666D02*
X188016723Y-62514285D01*
X188016723Y-62514285D02*
X188111961Y-62561904D01*
X188111961Y-62561904D02*
X188207200Y-62657142D01*
X188207200Y-62657142D02*
X188254819Y-62799999D01*
X188254819Y-62799999D02*
X188254819Y-63038094D01*
X188254819Y-61514285D02*
X188254819Y-62085713D01*
X188254819Y-61799999D02*
X187254819Y-61799999D01*
X187254819Y-61799999D02*
X187397676Y-61895237D01*
X187397676Y-61895237D02*
X187492914Y-61990475D01*
X187492914Y-61990475D02*
X187540533Y-62085713D01*
X187249333Y-76508580D02*
X187201714Y-76556200D01*
X187201714Y-76556200D02*
X187058857Y-76603819D01*
X187058857Y-76603819D02*
X186963619Y-76603819D01*
X186963619Y-76603819D02*
X186820762Y-76556200D01*
X186820762Y-76556200D02*
X186725524Y-76460961D01*
X186725524Y-76460961D02*
X186677905Y-76365723D01*
X186677905Y-76365723D02*
X186630286Y-76175247D01*
X186630286Y-76175247D02*
X186630286Y-76032390D01*
X186630286Y-76032390D02*
X186677905Y-75841914D01*
X186677905Y-75841914D02*
X186725524Y-75746676D01*
X186725524Y-75746676D02*
X186820762Y-75651438D01*
X186820762Y-75651438D02*
X186963619Y-75603819D01*
X186963619Y-75603819D02*
X187058857Y-75603819D01*
X187058857Y-75603819D02*
X187201714Y-75651438D01*
X187201714Y-75651438D02*
X187249333Y-75699057D01*
X187582667Y-75603819D02*
X188201714Y-75603819D01*
X188201714Y-75603819D02*
X187868381Y-75984771D01*
X187868381Y-75984771D02*
X188011238Y-75984771D01*
X188011238Y-75984771D02*
X188106476Y-76032390D01*
X188106476Y-76032390D02*
X188154095Y-76080009D01*
X188154095Y-76080009D02*
X188201714Y-76175247D01*
X188201714Y-76175247D02*
X188201714Y-76413342D01*
X188201714Y-76413342D02*
X188154095Y-76508580D01*
X188154095Y-76508580D02*
X188106476Y-76556200D01*
X188106476Y-76556200D02*
X188011238Y-76603819D01*
X188011238Y-76603819D02*
X187725524Y-76603819D01*
X187725524Y-76603819D02*
X187630286Y-76556200D01*
X187630286Y-76556200D02*
X187582667Y-76508580D01*
D11*
X185537258Y-73877500D02*
X185062742Y-73877500D01*
X185537258Y-74922500D02*
X185062742Y-74922500D01*
X189440000Y-62490000D02*
X189490000Y-62490000D01*
X189440000Y-64310000D02*
X189440000Y-62490000D01*
X189490000Y-64310000D02*
X189440000Y-64310000D01*
X190610000Y-62490000D02*
X191390000Y-62490000D01*
X192510000Y-62490000D02*
X192560000Y-62490000D01*
X192560000Y-62490000D02*
X192560000Y-64310000D01*
X192560000Y-64310000D02*
X192510000Y-64310000D01*
X189490000Y-64850000D02*
X189160000Y-65090000D01*
X189160000Y-64610000D01*
X189490000Y-64850000D01*
G36*
X189490000Y-64850000D02*
G01*
X189160000Y-65090000D01*
X189160000Y-64610000D01*
X189490000Y-64850000D01*
G37*
X193650000Y-79710000D02*
X193650000Y-74200000D01*
X193650000Y-79710000D02*
X196950000Y-79710000D01*
X196950000Y-79710000D02*
X196950000Y-74200000D01*
X183590000Y-57850000D02*
X183590000Y-61150000D01*
X183590000Y-57850000D02*
X189100000Y-57850000D01*
X183590000Y-61150000D02*
X189100000Y-61150000D01*
X194252500Y-68790000D02*
X196072500Y-68790000D01*
X194252500Y-68840000D02*
X194252500Y-68790000D01*
X194252500Y-71910000D02*
X194252500Y-71860000D01*
X196072500Y-68790000D02*
X196072500Y-68840000D01*
X196072500Y-71860000D02*
X196072500Y-71910000D01*
X196072500Y-71910000D02*
X194252500Y-71910000D01*
X193712500Y-68840000D02*
X193472500Y-68510000D01*
X193952500Y-68510000D01*
X193712500Y-68840000D01*
G36*
X193712500Y-68840000D02*
G01*
X193472500Y-68510000D01*
X193952500Y-68510000D01*
X193712500Y-68840000D01*
G37*
X190900000Y-56300000D02*
G75*
G02*
X189500000Y-56300000I-700000J0D01*
G01*
X189500000Y-56300000D02*
G75*
G02*
X190900000Y-56300000I700000J0D01*
G01*
X194200000Y-59800000D02*
X194200000Y-61000000D01*
X194200000Y-59800000D02*
X195600000Y-59800000D01*
X194200000Y-66200000D02*
X194200000Y-65000000D01*
X194200000Y-66200000D02*
X195600000Y-66200000D01*
X201000000Y-59800000D02*
X199600000Y-59800000D01*
X201000000Y-59800000D02*
X201000000Y-61000000D01*
X201000000Y-66200000D02*
X199600000Y-66200000D01*
X201000000Y-66200000D02*
X201000000Y-65000000D01*
X195065000Y-81938748D02*
X195065000Y-82461252D01*
X196535000Y-81938748D02*
X196535000Y-82461252D01*
X191137258Y-76377500D02*
X190662742Y-76377500D01*
X191137258Y-77422500D02*
X190662742Y-77422500D01*
X183590000Y-80450000D02*
X183590000Y-83750000D01*
X183590000Y-80450000D02*
X189100000Y-80450000D01*
X183590000Y-83750000D02*
X189100000Y-83750000D01*
X187300000Y-87200000D02*
G75*
G02*
X185900000Y-87200000I-700000J0D01*
G01*
X185900000Y-87200000D02*
G75*
G02*
X187300000Y-87200000I700000J0D01*
G01*
D12*
X197550000Y-85050000D02*
X197550000Y-82550000D01*
X198380000Y-85050000D02*
X197550000Y-85050000D01*
X202050000Y-82550000D02*
X202050000Y-85050000D01*
X202050000Y-85050000D02*
X201220000Y-85050000D01*
D13*
X201800000Y-80200000D02*
G75*
G02*
X201600000Y-80200000I-100000J0D01*
G01*
X201600000Y-80200000D02*
G75*
G02*
X201800000Y-80200000I100000J0D01*
G01*
D11*
X185437258Y-63977500D02*
X184962742Y-63977500D01*
X185437258Y-65022500D02*
X184962742Y-65022500D01*
X185612258Y-70977500D02*
X185137742Y-70977500D01*
X185612258Y-72022500D02*
X185137742Y-72022500D01*
X199600000Y-56300000D02*
G75*
G02*
X198200000Y-56300000I-700000J0D01*
G01*
X198200000Y-56300000D02*
G75*
G02*
X199600000Y-56300000I700000J0D01*
G01*
X191290000Y-72815580D02*
X191290000Y-72534420D01*
X192310000Y-72815580D02*
X192310000Y-72534420D01*
X196700000Y-56300000D02*
G75*
G02*
X195300000Y-56300000I-700000J0D01*
G01*
X195300000Y-56300000D02*
G75*
G02*
X196700000Y-56300000I700000J0D01*
G01*
X191500000Y-87100000D02*
G75*
G02*
X190100000Y-87100000I-700000J0D01*
G01*
X190100000Y-87100000D02*
G75*
G02*
X191500000Y-87100000I700000J0D01*
G01*
X192465000Y-57361252D02*
X192465000Y-56838748D01*
X193935000Y-57361252D02*
X193935000Y-56838748D01*
X192865000Y-81938748D02*
X192865000Y-82461252D01*
X194335000Y-81938748D02*
X194335000Y-82461252D01*
D12*
X190250000Y-66685000D02*
X185750000Y-66685000D01*
X190250000Y-69715000D02*
X185750000Y-69715000D01*
D13*
X192540000Y-69575000D02*
G75*
G02*
X192340000Y-69575000I-100000J0D01*
G01*
X192340000Y-69575000D02*
G75*
G02*
X192540000Y-69575000I100000J0D01*
G01*
D11*
X197750000Y-79710000D02*
X197750000Y-74200000D01*
X197750000Y-79710000D02*
X201050000Y-79710000D01*
X201050000Y-79710000D02*
X201050000Y-74200000D01*
X183615000Y-61440000D02*
X183615000Y-63360000D01*
X183615000Y-63360000D02*
X186300000Y-63360000D01*
X186300000Y-61440000D02*
X183615000Y-61440000D01*
X187088748Y-77065000D02*
X187611252Y-77065000D01*
X187088748Y-78535000D02*
X187611252Y-78535000D01*
%LPC*%
D14*
X198870000Y-82420000D02*
X197730000Y-82420000D01*
X197730000Y-80780000D01*
X198870000Y-80780000D01*
X198870000Y-82420000D01*
G36*
X198870000Y-82420000D02*
G01*
X197730000Y-82420000D01*
X197730000Y-80780000D01*
X198870000Y-80780000D01*
X198870000Y-82420000D01*
G37*
X201870000Y-82420000D02*
X200730000Y-82420000D01*
X200730000Y-80780000D01*
X201870000Y-80780000D01*
X201870000Y-82420000D01*
G36*
X201870000Y-82420000D02*
G01*
X200730000Y-82420000D01*
X200730000Y-80780000D01*
X201870000Y-80780000D01*
X201870000Y-82420000D01*
G37*
X200370000Y-82615000D02*
X200970000Y-83215000D01*
X200970000Y-85485000D01*
X200035000Y-86420000D01*
X199565000Y-86420000D01*
X198630000Y-85485000D01*
X198630000Y-83215000D01*
X199230000Y-82615000D01*
X199230000Y-80780000D01*
X200370000Y-80780000D01*
X200370000Y-82615000D01*
G36*
X200370000Y-82615000D02*
G01*
X200970000Y-83215000D01*
X200970000Y-85485000D01*
X200035000Y-86420000D01*
X199565000Y-86420000D01*
X198630000Y-85485000D01*
X198630000Y-83215000D01*
X199230000Y-82615000D01*
X199230000Y-80780000D01*
X200370000Y-80780000D01*
X200370000Y-82615000D01*
G37*
D15*
X186125000Y-74400000D03*
X184475000Y-74400000D03*
D16*
X190050000Y-64537500D03*
X191000000Y-64537500D03*
X191950000Y-64537500D03*
X191950000Y-62262500D03*
X190050000Y-62262500D03*
D17*
X195300000Y-78200000D03*
X195300000Y-74200000D03*
D18*
X185100000Y-59500000D03*
X189100000Y-59500000D03*
D19*
X194025000Y-69400000D03*
X194025000Y-70350000D03*
X194025000Y-71300000D03*
X196300000Y-71300000D03*
X196300000Y-70350000D03*
X196300000Y-69400000D03*
D20*
X190200000Y-56300000D03*
D21*
X195250000Y-63000000D03*
X199950000Y-63000000D03*
D22*
X195800000Y-81250000D03*
X195800000Y-83150000D03*
D15*
X191725000Y-76900000D03*
X190075000Y-76900000D03*
D18*
X185100000Y-82100000D03*
X189100000Y-82100000D03*
D20*
X186600000Y-87200000D03*
D15*
X186025000Y-64500000D03*
X184375000Y-64500000D03*
X186200000Y-71500000D03*
X184550000Y-71500000D03*
D20*
X198900000Y-56300000D03*
D23*
X191800000Y-73450000D03*
X191800000Y-71900000D03*
D20*
X196000000Y-56300000D03*
X190800000Y-87100000D03*
D24*
X193200000Y-58050000D03*
X193200000Y-56150000D03*
D22*
X193600000Y-81250000D03*
X193600000Y-83150000D03*
D25*
X190880000Y-69175000D03*
X190880000Y-68525000D03*
X190880000Y-67875000D03*
X190880000Y-67225000D03*
X185120000Y-67225000D03*
X185120000Y-67875000D03*
X185120000Y-68525000D03*
X185120000Y-69175000D03*
D17*
X199400000Y-78200000D03*
X199400000Y-74200000D03*
D26*
X184362500Y-62400000D03*
X186237500Y-62400000D03*
D27*
X186400000Y-77800000D03*
X188300000Y-77800000D03*
%LPD*%
M02*
