G04 #@! TF.GenerationSoftware,KiCad,Pcbnew,10.0.1*
G04 #@! TF.CreationDate,2026-06-15T19:59:57-07:00*
G04 #@! TF.ProjectId,BatteryCharger,42617474-6572-4794-9368-61726765722e,rev?*
G04 #@! TF.SameCoordinates,Original*
G04 #@! TF.FileFunction,Soldermask,Top*
G04 #@! TF.FilePolarity,Negative*
%FSLAX46Y46*%
G04 Gerber Fmt 4.6, Leading zero omitted, Abs format (unit mm)*
G04 Created by KiCad (PCBNEW 10.0.1) date 2026-06-15 19:59:57*
%MOMM*%
%LPD*%
G01*
G04 APERTURE LIST*
G04 Aperture macros list*
%AMRoundRect*
0 Rectangle with rounded corners*
0 $1 Rounding radius*
0 $2 $3 $4 $5 $6 $7 $8 $9 X,Y pos of 4 corners*
0 Add a 4 corners polygon primitive as box body*
4,1,4,$2,$3,$4,$5,$6,$7,$8,$9,$2,$3,0*
0 Add four circle primitives for the rounded corners*
1,1,$1+$1,$2,$3*
1,1,$1+$1,$4,$5*
1,1,$1+$1,$6,$7*
1,1,$1+$1,$8,$9*
0 Add four rect primitives between the rounded corners*
20,1,$1+$1,$2,$3,$4,$5,0*
20,1,$1+$1,$4,$5,$6,$7,0*
20,1,$1+$1,$6,$7,$8,$9,0*
20,1,$1+$1,$8,$9,$2,$3,0*%
G04 Aperture macros list end*
%ADD10C,0.010000*%
%ADD11RoundRect,0.200000X0.200000X0.275000X-0.200000X0.275000X-0.200000X-0.275000X0.200000X-0.275000X0*%
%ADD12RoundRect,0.150000X0.150000X-0.512500X0.150000X0.512500X-0.150000X0.512500X-0.150000X-0.512500X0*%
%ADD13RoundRect,0.250000X0.650000X-1.000000X0.650000X1.000000X-0.650000X1.000000X-0.650000X-1.000000X0*%
%ADD14RoundRect,0.250000X-1.000000X-0.650000X1.000000X-0.650000X1.000000X0.650000X-1.000000X0.650000X0*%
%ADD15RoundRect,0.150000X-0.512500X-0.150000X0.512500X-0.150000X0.512500X0.150000X-0.512500X0.150000X0*%
%ADD16C,1.000000*%
%ADD17R,1.600000X5.700000*%
%ADD18RoundRect,0.250000X-0.475000X0.250000X-0.475000X-0.250000X0.475000X-0.250000X0.475000X0.250000X0*%
%ADD19RoundRect,0.225000X0.250000X-0.225000X0.250000X0.225000X-0.250000X0.225000X-0.250000X-0.225000X0*%
%ADD20RoundRect,0.250000X0.475000X-0.250000X0.475000X0.250000X-0.475000X0.250000X-0.475000X-0.250000X0*%
%ADD21RoundRect,0.075500X0.806500X0.226500X-0.806500X0.226500X-0.806500X-0.226500X0.806500X-0.226500X0*%
%ADD22RoundRect,0.243750X-0.243750X-0.456250X0.243750X-0.456250X0.243750X0.456250X-0.243750X0.456250X0*%
%ADD23RoundRect,0.250000X-0.250000X-0.475000X0.250000X-0.475000X0.250000X0.475000X-0.250000X0.475000X0*%
G04 APERTURE END LIST*
D10*
X198870000Y-82420000D02*
X197730000Y-82420000D01*
X197730000Y-80780000D01*
X198870000Y-80780000D01*
X198870000Y-82420000D01*
G36*
X198870000Y-82420000D02*
G01*
X197730000Y-82420000D01*
X197730000Y-80780000D01*
X198870000Y-80780000D01*
X198870000Y-82420000D01*
G37*
X201870000Y-82420000D02*
X200730000Y-82420000D01*
X200730000Y-80780000D01*
X201870000Y-80780000D01*
X201870000Y-82420000D01*
G36*
X201870000Y-82420000D02*
G01*
X200730000Y-82420000D01*
X200730000Y-80780000D01*
X201870000Y-80780000D01*
X201870000Y-82420000D01*
G37*
X200370000Y-82615000D02*
X200970000Y-83215000D01*
X200970000Y-85485000D01*
X200035000Y-86420000D01*
X199565000Y-86420000D01*
X198630000Y-85485000D01*
X198630000Y-83215000D01*
X199230000Y-82615000D01*
X199230000Y-80780000D01*
X200370000Y-80780000D01*
X200370000Y-82615000D01*
G36*
X200370000Y-82615000D02*
G01*
X200970000Y-83215000D01*
X200970000Y-85485000D01*
X200035000Y-86420000D01*
X199565000Y-86420000D01*
X198630000Y-85485000D01*
X198630000Y-83215000D01*
X199230000Y-82615000D01*
X199230000Y-80780000D01*
X200370000Y-80780000D01*
X200370000Y-82615000D01*
G37*
D11*
X186125000Y-74400000D03*
X184475000Y-74400000D03*
D12*
X190050000Y-64537500D03*
X191000000Y-64537500D03*
X191950000Y-64537500D03*
X191950000Y-62262500D03*
X190050000Y-62262500D03*
D13*
X195300000Y-78200000D03*
X195300000Y-74200000D03*
D14*
X185100000Y-59500000D03*
X189100000Y-59500000D03*
D15*
X194025000Y-69400000D03*
X194025000Y-70350000D03*
X194025000Y-71300000D03*
X196300000Y-71300000D03*
X196300000Y-70350000D03*
X196300000Y-69400000D03*
D16*
X190200000Y-56300000D03*
D17*
X195250000Y-63000000D03*
X199950000Y-63000000D03*
D18*
X195800000Y-81250000D03*
X195800000Y-83150000D03*
D11*
X191725000Y-76900000D03*
X190075000Y-76900000D03*
D14*
X185100000Y-82100000D03*
X189100000Y-82100000D03*
D16*
X186600000Y-87200000D03*
D11*
X186025000Y-64500000D03*
X184375000Y-64500000D03*
X186200000Y-71500000D03*
X184550000Y-71500000D03*
D16*
X198900000Y-56300000D03*
D19*
X191800000Y-73450000D03*
X191800000Y-71900000D03*
D16*
X196000000Y-56300000D03*
X190800000Y-87100000D03*
D20*
X193200000Y-58050000D03*
X193200000Y-56150000D03*
D18*
X193600000Y-81250000D03*
X193600000Y-83150000D03*
D21*
X190880000Y-69175000D03*
X190880000Y-68525000D03*
X190880000Y-67875000D03*
X190880000Y-67225000D03*
X185120000Y-67225000D03*
X185120000Y-67875000D03*
X185120000Y-68525000D03*
X185120000Y-69175000D03*
D13*
X199400000Y-78200000D03*
X199400000Y-74200000D03*
D22*
X184362500Y-62400000D03*
X186237500Y-62400000D03*
D23*
X186400000Y-77800000D03*
X188300000Y-77800000D03*
M02*
