G04 #@! TF.GenerationSoftware,KiCad,Pcbnew,10.0.1*
G04 #@! TF.CreationDate,2026-06-15T19:59:56-07:00*
G04 #@! TF.ProjectId,BatteryCharger,42617474-6572-4794-9368-61726765722e,rev?*
G04 #@! TF.SameCoordinates,Original*
G04 #@! TF.FileFunction,Copper,L1,Top*
G04 #@! TF.FilePolarity,Positive*
%FSLAX46Y46*%
G04 Gerber Fmt 4.6, Leading zero omitted, Abs format (unit mm)*
G04 Created by KiCad (PCBNEW 10.0.1) date 2026-06-15 19:59:56*
%MOMM*%
%LPD*%
G01*
G04 APERTURE LIST*
G04 Aperture macros list*
%AMRoundRect*
0 Rectangle with rounded corners*
0 $1 Rounding radius*
0 $2 $3 $4 $5 $6 $7 $8 $9 X,Y pos of 4 corners*
0 Add a 4 corners polygon primitive as box body*
4,1,4,$2,$3,$4,$5,$6,$7,$8,$9,$2,$3,0*
0 Add four circle primitives for the rounded corners*
1,1,$1+$1,$2,$3*
1,1,$1+$1,$4,$5*
1,1,$1+$1,$6,$7*
1,1,$1+$1,$8,$9*
0 Add four rect primitives between the rounded corners*
20,1,$1+$1,$2,$3,$4,$5,0*
20,1,$1+$1,$4,$5,$6,$7,0*
20,1,$1+$1,$6,$7,$8,$9,0*
20,1,$1+$1,$8,$9,$2,$3,0*%
%AMFreePoly0*
4,1,21,3.853536,1.103536,4.753536,0.203536,4.755000,0.200000,4.755000,-0.200000,4.753536,-0.203536,3.853536,-1.103536,3.850000,-1.105000,1.650000,-1.105000,1.646464,-1.103536,1.047928,-0.505000,-0.750000,-0.505000,-0.753536,-0.503536,-0.755000,-0.500000,-0.755000,0.500000,-0.753536,0.503536,-0.750000,0.505000,1.047928,0.505000,1.646464,1.103536,1.650000,1.105000,3.850000,1.105000,
3.853536,1.103536,3.853536,1.103536,$1*%
G04 Aperture macros list end*
G04 #@! TA.AperFunction,SMDPad,CuDef*
%ADD10RoundRect,0.200000X0.200000X0.275000X-0.200000X0.275000X-0.200000X-0.275000X0.200000X-0.275000X0*%
G04 #@! TD*
G04 #@! TA.AperFunction,SMDPad,CuDef*
%ADD11RoundRect,0.150000X0.150000X-0.512500X0.150000X0.512500X-0.150000X0.512500X-0.150000X-0.512500X0*%
G04 #@! TD*
G04 #@! TA.AperFunction,SMDPad,CuDef*
%ADD12RoundRect,0.250000X0.650000X-1.000000X0.650000X1.000000X-0.650000X1.000000X-0.650000X-1.000000X0*%
G04 #@! TD*
G04 #@! TA.AperFunction,SMDPad,CuDef*
%ADD13RoundRect,0.250000X-1.000000X-0.650000X1.000000X-0.650000X1.000000X0.650000X-1.000000X0.650000X0*%
G04 #@! TD*
G04 #@! TA.AperFunction,SMDPad,CuDef*
%ADD14RoundRect,0.150000X-0.512500X-0.150000X0.512500X-0.150000X0.512500X0.150000X-0.512500X0.150000X0*%
G04 #@! TD*
G04 #@! TA.AperFunction,ComponentPad*
%ADD15C,1.000000*%
G04 #@! TD*
G04 #@! TA.AperFunction,SMDPad,CuDef*
%ADD16R,1.600000X5.700000*%
G04 #@! TD*
G04 #@! TA.AperFunction,SMDPad,CuDef*
%ADD17RoundRect,0.250000X-0.475000X0.250000X-0.475000X-0.250000X0.475000X-0.250000X0.475000X0.250000X0*%
G04 #@! TD*
G04 #@! TA.AperFunction,SMDPad,CuDef*
%ADD18R,1.000000X1.500000*%
G04 #@! TD*
G04 #@! TA.AperFunction,SMDPad,CuDef*
%ADD19FreePoly0,270.000000*%
G04 #@! TD*
G04 #@! TA.AperFunction,SMDPad,CuDef*
%ADD20RoundRect,0.225000X0.250000X-0.225000X0.250000X0.225000X-0.250000X0.225000X-0.250000X-0.225000X0*%
G04 #@! TD*
G04 #@! TA.AperFunction,SMDPad,CuDef*
%ADD21RoundRect,0.250000X0.475000X-0.250000X0.475000X0.250000X-0.475000X0.250000X-0.475000X-0.250000X0*%
G04 #@! TD*
G04 #@! TA.AperFunction,SMDPad,CuDef*
%ADD22RoundRect,0.050000X0.730000X0.150000X-0.730000X0.150000X-0.730000X-0.150000X0.730000X-0.150000X0*%
G04 #@! TD*
G04 #@! TA.AperFunction,SMDPad,CuDef*
%ADD23RoundRect,0.243750X-0.243750X-0.456250X0.243750X-0.456250X0.243750X0.456250X-0.243750X0.456250X0*%
G04 #@! TD*
G04 #@! TA.AperFunction,SMDPad,CuDef*
%ADD24RoundRect,0.250000X-0.250000X-0.475000X0.250000X-0.475000X0.250000X0.475000X-0.250000X0.475000X0*%
G04 #@! TD*
G04 #@! TA.AperFunction,ViaPad*
%ADD25C,0.600000*%
G04 #@! TD*
G04 #@! TA.AperFunction,Conductor*
%ADD26C,0.200000*%
G04 #@! TD*
G04 APERTURE END LIST*
D10*
X186125000Y-74400000D03*
X184475000Y-74400000D03*
D11*
X190050000Y-64537500D03*
X191000000Y-64537500D03*
X191950000Y-64537500D03*
X191950000Y-62262500D03*
X190050000Y-62262500D03*
D12*
X195300000Y-78200000D03*
X195300000Y-74200000D03*
D13*
X185100000Y-59500000D03*
X189100000Y-59500000D03*
D14*
X194025000Y-69400000D03*
X194025000Y-70350000D03*
X194025000Y-71300000D03*
X196300000Y-71300000D03*
X196300000Y-70350000D03*
X196300000Y-69400000D03*
D15*
X190200000Y-56300000D03*
D16*
X195250000Y-63000000D03*
X199950000Y-63000000D03*
D17*
X195800000Y-81250000D03*
X195800000Y-83150000D03*
D10*
X191725000Y-76900000D03*
X190075000Y-76900000D03*
D13*
X185100000Y-82100000D03*
X189100000Y-82100000D03*
D15*
X186600000Y-87200000D03*
D18*
X201300000Y-81600000D03*
D19*
X199800000Y-81600000D03*
D18*
X198300000Y-81600000D03*
D10*
X186025000Y-64500000D03*
X184375000Y-64500000D03*
X186200000Y-71500000D03*
X184550000Y-71500000D03*
D15*
X198900000Y-56300000D03*
D20*
X191800000Y-73450000D03*
X191800000Y-71900000D03*
D15*
X196000000Y-56300000D03*
X190800000Y-87100000D03*
D21*
X193200000Y-58050000D03*
X193200000Y-56150000D03*
D17*
X193600000Y-81250000D03*
X193600000Y-83150000D03*
D22*
X190880000Y-69175000D03*
X190880000Y-68525000D03*
X190880000Y-67875000D03*
X190880000Y-67225000D03*
X185120000Y-67225000D03*
X185120000Y-67875000D03*
X185120000Y-68525000D03*
X185120000Y-69175000D03*
D12*
X199400000Y-78200000D03*
X199400000Y-74200000D03*
D23*
X184362500Y-62400000D03*
X186237500Y-62400000D03*
D24*
X186400000Y-77800000D03*
X188300000Y-77800000D03*
D25*
X189200000Y-74100000D03*
X189200000Y-66000000D03*
X193700000Y-67200000D03*
X193700000Y-68875000D03*
X185150000Y-66100000D03*
X190150000Y-71350000D03*
X190216437Y-72147240D03*
X196300000Y-67900000D03*
X198300000Y-80300000D03*
X198300000Y-75700000D03*
D26*
X191000000Y-64537500D02*
X191000000Y-64890552D01*
X191000000Y-64890552D02*
X189890552Y-66000000D01*
X189890552Y-66000000D02*
X189200000Y-66000000D01*
X188900000Y-74400000D02*
X189200000Y-74100000D01*
X186125000Y-74400000D02*
X188900000Y-74400000D01*
X187408712Y-68262648D02*
X187408712Y-67071360D01*
X185325000Y-64987648D02*
X185325000Y-64012352D01*
X188762500Y-63550000D02*
X190050000Y-62262500D01*
X185787352Y-63550000D02*
X188762500Y-63550000D01*
X185325000Y-64012352D02*
X185787352Y-63550000D01*
X185500000Y-70171360D02*
X187408712Y-68262648D01*
X185500000Y-73375000D02*
X185500000Y-70171360D01*
X184475000Y-74400000D02*
X185500000Y-73375000D01*
X187408712Y-67071360D02*
X185325000Y-64987648D01*
X186062500Y-64537500D02*
X186025000Y-64500000D01*
X186025000Y-64500000D02*
X186100000Y-64500000D01*
X190050000Y-64537500D02*
X186062500Y-64537500D01*
X189800000Y-66928640D02*
X191228640Y-65500000D01*
X191950000Y-64890552D02*
X191950000Y-64537500D01*
X191725000Y-76900000D02*
X192600000Y-76900000D01*
X192600000Y-76900000D02*
X195300000Y-74200000D01*
X195250000Y-63000000D02*
X193487500Y-63000000D01*
X191825000Y-64662500D02*
X191950000Y-64537500D01*
X193487500Y-63000000D02*
X191950000Y-64537500D01*
X191228640Y-65500000D02*
X191340552Y-65500000D01*
X191340552Y-65500000D02*
X191950000Y-64890552D01*
X195250000Y-63000000D02*
X195250000Y-57050000D01*
X190003640Y-69675000D02*
X189800000Y-69471360D01*
X195300000Y-74200000D02*
X195300000Y-69371948D01*
X194203052Y-68275000D02*
X193156360Y-68275000D01*
X189800000Y-69471360D02*
X189800000Y-66928640D01*
X191756360Y-69675000D02*
X190003640Y-69675000D01*
X195250000Y-57050000D02*
X196000000Y-56300000D01*
X195300000Y-69371948D02*
X194203052Y-68275000D01*
X193156360Y-68275000D02*
X191756360Y-69675000D01*
X187550000Y-61050000D02*
X189100000Y-59500000D01*
X191700000Y-59500000D02*
X191750000Y-59500000D01*
X187450000Y-62400000D02*
X187550000Y-62300000D01*
X190200000Y-58000000D02*
X191700000Y-59500000D01*
X186237500Y-62400000D02*
X187450000Y-62400000D01*
X189100000Y-59500000D02*
X191700000Y-59500000D01*
X187550000Y-62300000D02*
X187550000Y-61050000D01*
X191950000Y-59700000D02*
X191750000Y-59500000D01*
X191750000Y-59500000D02*
X193200000Y-58050000D01*
X190200000Y-56300000D02*
X190200000Y-58000000D01*
X191950000Y-62262500D02*
X191950000Y-59700000D01*
X195150000Y-76950000D02*
X194700000Y-77400000D01*
X199515000Y-80550000D02*
X199800000Y-80835000D01*
X199200000Y-80550000D02*
X199515000Y-80550000D01*
X199800000Y-77900000D02*
X200000000Y-77700000D01*
X199800000Y-80835000D02*
X199800000Y-81600000D01*
X199400000Y-80350000D02*
X199200000Y-80550000D01*
X197350000Y-79700000D02*
X198950000Y-79700000D01*
X193600000Y-81250000D02*
X189950000Y-81250000D01*
X199700000Y-77900000D02*
X199800000Y-77900000D01*
X199400000Y-80150000D02*
X199400000Y-80350000D01*
X189100000Y-82100000D02*
X189100000Y-80500000D01*
X195800000Y-81250000D02*
X197350000Y-79700000D01*
X195300000Y-80750000D02*
X195800000Y-81250000D01*
X189100000Y-80500000D02*
X186400000Y-77800000D01*
X199400000Y-78200000D02*
X199400000Y-80150000D01*
X195300000Y-78200000D02*
X195300000Y-80750000D01*
X198950000Y-79700000D02*
X199400000Y-80150000D01*
X189950000Y-81250000D02*
X189100000Y-82100000D01*
X193600000Y-81250000D02*
X195800000Y-81250000D01*
X189050000Y-82050000D02*
X189100000Y-82100000D01*
X186600000Y-83600000D02*
X185100000Y-82100000D01*
X186600000Y-87200000D02*
X186600000Y-83600000D01*
X193700000Y-67200000D02*
X193675000Y-67225000D01*
X194025000Y-69400000D02*
X194025000Y-69200000D01*
X193675000Y-67225000D02*
X190880000Y-67225000D01*
X194025000Y-69200000D02*
X193700000Y-68875000D01*
X187350000Y-70350000D02*
X186200000Y-71500000D01*
X194025000Y-70350000D02*
X187350000Y-70350000D01*
X190350000Y-71150000D02*
X193875000Y-71150000D01*
X185120000Y-66130000D02*
X185150000Y-66100000D01*
X185120000Y-67225000D02*
X185120000Y-66130000D01*
X193875000Y-71150000D02*
X194025000Y-71300000D01*
X190150000Y-71350000D02*
X190350000Y-71150000D01*
X197262500Y-74672244D02*
X197262500Y-70762500D01*
X197262500Y-70762500D02*
X196850000Y-70350000D01*
X191312352Y-77675000D02*
X192490256Y-77675000D01*
X191800000Y-73450000D02*
X191800000Y-75175000D01*
X196850000Y-70350000D02*
X196300000Y-70350000D01*
X191800000Y-73450000D02*
X191025000Y-74225000D01*
X191025000Y-74225000D02*
X191025000Y-77387648D01*
X191800000Y-75175000D02*
X190075000Y-76900000D01*
X194415256Y-75750000D02*
X196184744Y-75750000D01*
X196184744Y-75750000D02*
X197262500Y-74672244D01*
X192490256Y-77675000D02*
X194415256Y-75750000D01*
X191025000Y-77387648D02*
X191312352Y-77675000D01*
X191800000Y-71900000D02*
X190463677Y-71900000D01*
X198900000Y-56300000D02*
X198400001Y-56799999D01*
X190880000Y-67875000D02*
X190880000Y-68525000D01*
X196300000Y-69400000D02*
X194775000Y-67875000D01*
X190463677Y-71900000D02*
X190216437Y-72147240D01*
X196300000Y-67900000D02*
X196300000Y-69400000D01*
X198400001Y-56799999D02*
X198400001Y-67299999D01*
X194775000Y-67875000D02*
X190880000Y-67875000D01*
X198400001Y-67299999D02*
X196300000Y-69400000D01*
X198300000Y-75300000D02*
X199400000Y-74200000D01*
X198300000Y-81600000D02*
X198300000Y-80300000D01*
X198300000Y-75700000D02*
X198300000Y-75300000D01*
X199400000Y-74200000D02*
X199400000Y-63550000D01*
X199400000Y-63550000D02*
X199950000Y-63000000D01*
X184375000Y-64500000D02*
X184375000Y-62412500D01*
X184375000Y-62412500D02*
X184362500Y-62400000D01*
G04 #@! TA.AperFunction,Conductor*
G36*
X183455703Y-64883790D02*
G01*
X183492884Y-64940611D01*
X183531522Y-65064606D01*
X183592818Y-65166001D01*
X183619530Y-65210188D01*
X183739811Y-65330469D01*
X183739813Y-65330470D01*
X183739815Y-65330472D01*
X183885394Y-65418478D01*
X184047804Y-65469086D01*
X184118384Y-65475500D01*
X184118387Y-65475500D01*
X184372536Y-65475500D01*
X184439575Y-65495185D01*
X184485330Y-65547989D01*
X184495274Y-65617147D01*
X184475638Y-65668391D01*
X184440609Y-65720814D01*
X184440602Y-65720827D01*
X184380264Y-65866498D01*
X184380261Y-65866510D01*
X184349500Y-66021153D01*
X184349500Y-66178846D01*
X184377438Y-66319297D01*
X184380263Y-66333497D01*
X184387305Y-66350499D01*
X184391473Y-66360560D01*
X184398942Y-66430030D01*
X184367667Y-66492509D01*
X184307578Y-66528161D01*
X184291696Y-66531128D01*
X184258441Y-66535121D01*
X184117656Y-66590639D01*
X183997077Y-66682077D01*
X183905639Y-66802656D01*
X183850122Y-66943438D01*
X183847353Y-66966503D01*
X183839500Y-67031898D01*
X183839500Y-67418102D01*
X183844669Y-67461154D01*
X183850122Y-67506562D01*
X183852070Y-67514265D01*
X183850439Y-67514677D01*
X183855861Y-67574788D01*
X183852234Y-67587139D01*
X183850613Y-67593555D01*
X183840832Y-67674999D01*
X183840833Y-67675000D01*
X183865024Y-67675000D01*
X183932063Y-67694685D01*
X183948146Y-67706986D01*
X183956790Y-67714795D01*
X183997078Y-67767922D01*
X184112445Y-67855408D01*
X184116406Y-67858986D01*
X184132006Y-67884400D01*
X184149733Y-67908389D01*
X184150090Y-67913859D01*
X184152958Y-67918532D01*
X184152341Y-67948352D01*
X184154284Y-67978110D01*
X184151627Y-67982904D01*
X184151514Y-67988387D01*
X184134873Y-68013139D01*
X184120419Y-68039224D01*
X184115590Y-68041821D01*
X184112532Y-68046371D01*
X184085159Y-68058193D01*
X184058889Y-68072328D01*
X184050381Y-68073215D01*
X184048390Y-68074076D01*
X184045967Y-68073676D01*
X184033284Y-68075000D01*
X183840833Y-68075000D01*
X183850614Y-68156443D01*
X183852564Y-68164161D01*
X183850765Y-68164615D01*
X183856128Y-68224115D01*
X183851817Y-68238794D01*
X183850614Y-68243556D01*
X183840832Y-68325000D01*
X184033284Y-68325000D01*
X184057450Y-68332096D01*
X184082453Y-68335165D01*
X184090404Y-68341772D01*
X184100323Y-68344685D01*
X184116816Y-68363719D01*
X184136191Y-68379819D01*
X184139308Y-68389676D01*
X184146078Y-68397489D01*
X184149662Y-68422418D01*
X184157258Y-68446437D01*
X184154550Y-68456415D01*
X184156022Y-68466647D01*
X184145558Y-68489558D01*
X184138963Y-68513869D01*
X184129878Y-68523892D01*
X184126997Y-68530203D01*
X184116406Y-68541014D01*
X184112445Y-68544591D01*
X183997078Y-68632078D01*
X183956790Y-68685204D01*
X183948146Y-68693014D01*
X183926744Y-68703327D01*
X183907636Y-68717448D01*
X183891516Y-68720304D01*
X183885204Y-68723347D01*
X183878791Y-68722559D01*
X183865024Y-68725000D01*
X183840833Y-68725000D01*
X183850614Y-68806446D01*
X183852563Y-68814158D01*
X183850559Y-68814664D01*
X183855863Y-68873414D01*
X183850976Y-68890059D01*
X183850123Y-68893433D01*
X183850123Y-68893436D01*
X183839500Y-68981898D01*
X183839500Y-69368102D01*
X183845126Y-69414954D01*
X183850122Y-69456561D01*
X183905639Y-69597343D01*
X183997077Y-69717922D01*
X184117656Y-69809360D01*
X184117657Y-69809360D01*
X184117658Y-69809361D01*
X184258436Y-69864877D01*
X184346898Y-69875500D01*
X184795992Y-69875500D01*
X184863031Y-69895185D01*
X184908786Y-69947989D01*
X184918730Y-70017147D01*
X184915769Y-70031581D01*
X184899499Y-70092303D01*
X184899499Y-70092305D01*
X184899499Y-70260406D01*
X184899500Y-70260419D01*
X184899500Y-70401000D01*
X184879815Y-70468039D01*
X184827011Y-70513794D01*
X184806811Y-70518188D01*
X184800000Y-70525000D01*
X184800000Y-72474999D01*
X184810184Y-72485183D01*
X184842539Y-72494684D01*
X184888294Y-72547488D01*
X184899500Y-72598999D01*
X184899500Y-73074903D01*
X184879815Y-73141942D01*
X184863181Y-73162584D01*
X184637584Y-73388181D01*
X184576261Y-73421666D01*
X184549903Y-73424500D01*
X184218384Y-73424500D01*
X184199145Y-73426248D01*
X184147807Y-73430913D01*
X183985393Y-73481522D01*
X183839811Y-73569530D01*
X183719530Y-73689811D01*
X183631522Y-73835393D01*
X183580913Y-73997807D01*
X183574500Y-74068386D01*
X183574500Y-74731613D01*
X183580913Y-74802192D01*
X183580913Y-74802194D01*
X183580914Y-74802196D01*
X183631522Y-74964606D01*
X183713058Y-75099483D01*
X183719530Y-75110188D01*
X183839811Y-75230469D01*
X183839813Y-75230470D01*
X183839815Y-75230472D01*
X183985394Y-75318478D01*
X184147804Y-75369086D01*
X184218384Y-75375500D01*
X184218387Y-75375500D01*
X184731613Y-75375500D01*
X184731616Y-75375500D01*
X184802196Y-75369086D01*
X184964606Y-75318478D01*
X185110185Y-75230472D01*
X185212673Y-75127983D01*
X185273994Y-75094499D01*
X185343685Y-75099483D01*
X185388034Y-75127984D01*
X185490122Y-75230072D01*
X185635604Y-75318019D01*
X185635603Y-75318019D01*
X185797894Y-75368590D01*
X185797893Y-75368590D01*
X185868408Y-75374998D01*
X185868426Y-75374999D01*
X186375000Y-75374999D01*
X186381581Y-75374999D01*
X186452102Y-75368591D01*
X186452107Y-75368590D01*
X186614396Y-75318018D01*
X186759877Y-75230072D01*
X186880072Y-75109877D01*
X186968019Y-74964395D01*
X187018590Y-74802106D01*
X187025000Y-74731572D01*
X187025000Y-74650000D01*
X186375000Y-74650000D01*
X186375000Y-75374999D01*
X185868426Y-75374999D01*
X185874999Y-75374998D01*
X185875000Y-75374998D01*
X185875000Y-74150000D01*
X186375000Y-74150000D01*
X187024999Y-74150000D01*
X187024999Y-74068417D01*
X187018591Y-73997897D01*
X187018590Y-73997892D01*
X186968018Y-73835603D01*
X186880072Y-73690122D01*
X186759877Y-73569927D01*
X186614395Y-73481980D01*
X186614396Y-73481980D01*
X186452105Y-73431409D01*
X186452106Y-73431409D01*
X186381572Y-73425000D01*
X186375000Y-73425000D01*
X186375000Y-74150000D01*
X185875000Y-74150000D01*
X185875000Y-73900598D01*
X185894685Y-73833559D01*
X185911319Y-73812917D01*
X185980520Y-73743716D01*
X186049349Y-73624500D01*
X186059577Y-73606785D01*
X186100501Y-73454057D01*
X186100501Y-73295943D01*
X186100501Y-73288348D01*
X186100500Y-73288330D01*
X186100500Y-72599500D01*
X186120185Y-72532461D01*
X186172989Y-72486706D01*
X186224500Y-72475500D01*
X186456613Y-72475500D01*
X186456616Y-72475500D01*
X186527196Y-72469086D01*
X186689606Y-72418478D01*
X186835185Y-72330472D01*
X186955472Y-72210185D01*
X187043478Y-72064606D01*
X187094086Y-71902196D01*
X187100500Y-71831616D01*
X187100500Y-71500097D01*
X187120185Y-71433058D01*
X187136819Y-71412416D01*
X187562417Y-70986819D01*
X187623740Y-70953334D01*
X187650098Y-70950500D01*
X189263445Y-70950500D01*
X189330484Y-70970185D01*
X189376239Y-71022989D01*
X189386183Y-71092147D01*
X189381159Y-71110411D01*
X189382031Y-71110676D01*
X189380261Y-71116510D01*
X189349500Y-71271153D01*
X189349500Y-71428846D01*
X189380261Y-71583489D01*
X189380264Y-71583501D01*
X189440602Y-71729171D01*
X189440608Y-71729182D01*
X189454738Y-71750329D01*
X189475615Y-71817007D01*
X189466197Y-71866670D01*
X189446700Y-71913741D01*
X189446698Y-71913745D01*
X189415937Y-72068393D01*
X189415937Y-72226086D01*
X189446698Y-72380729D01*
X189446701Y-72380741D01*
X189507039Y-72526412D01*
X189507046Y-72526425D01*
X189594647Y-72657528D01*
X189594650Y-72657532D01*
X189706144Y-72769026D01*
X189706148Y-72769029D01*
X189837251Y-72856630D01*
X189837264Y-72856637D01*
X189982935Y-72916975D01*
X189982940Y-72916977D01*
X190137590Y-72947739D01*
X190137593Y-72947740D01*
X190137595Y-72947740D01*
X190295281Y-72947740D01*
X190295282Y-72947739D01*
X190449934Y-72916977D01*
X190595616Y-72856634D01*
X190696397Y-72789293D01*
X190763074Y-72768416D01*
X190830454Y-72786900D01*
X190877145Y-72838879D01*
X190888321Y-72907849D01*
X190882994Y-72931400D01*
X190834651Y-73077290D01*
X190824500Y-73176647D01*
X190824500Y-73524900D01*
X190815856Y-73554336D01*
X190809333Y-73584326D01*
X190805577Y-73589343D01*
X190804815Y-73591939D01*
X190788182Y-73612581D01*
X190656286Y-73744478D01*
X190656284Y-73744480D01*
X190656283Y-73744480D01*
X190656282Y-73744481D01*
X190544481Y-73856282D01*
X190544479Y-73856285D01*
X190499279Y-73934576D01*
X190499277Y-73934578D01*
X190465425Y-73993209D01*
X190465424Y-73993210D01*
X190464168Y-73997897D01*
X190424499Y-74145943D01*
X190424499Y-74145945D01*
X190424499Y-74314046D01*
X190424500Y-74314059D01*
X190424500Y-75649903D01*
X190415855Y-75679343D01*
X190409332Y-75709330D01*
X190405577Y-75714345D01*
X190404815Y-75716942D01*
X190388181Y-75737584D01*
X190237584Y-75888181D01*
X190176261Y-75921666D01*
X190149903Y-75924500D01*
X189818384Y-75924500D01*
X189799145Y-75926248D01*
X189747807Y-75930913D01*
X189585393Y-75981522D01*
X189439811Y-76069530D01*
X189319530Y-76189811D01*
X189231522Y-76335393D01*
X189180913Y-76497807D01*
X189174500Y-76568386D01*
X189174500Y-76606826D01*
X189154815Y-76673865D01*
X189102011Y-76719620D01*
X189032853Y-76729564D01*
X188985403Y-76712365D01*
X188869124Y-76640643D01*
X188869119Y-76640641D01*
X188702697Y-76585494D01*
X188702690Y-76585493D01*
X188599986Y-76575000D01*
X188550000Y-76575000D01*
X188550000Y-77550000D01*
X189213208Y-77550000D01*
X189280247Y-77569685D01*
X189314332Y-77604718D01*
X189314898Y-77604276D01*
X189319019Y-77609535D01*
X189319324Y-77609849D01*
X189319524Y-77610180D01*
X189319526Y-77610182D01*
X189319528Y-77610185D01*
X189439815Y-77730472D01*
X189585394Y-77818478D01*
X189747804Y-77869086D01*
X189818384Y-77875500D01*
X189818387Y-77875500D01*
X190331613Y-77875500D01*
X190331616Y-77875500D01*
X190402196Y-77869086D01*
X190525052Y-77830802D01*
X190539525Y-77830564D01*
X190553091Y-77825504D01*
X190573763Y-77830000D01*
X190594912Y-77829652D01*
X190608479Y-77837551D01*
X190621365Y-77840354D01*
X190649615Y-77861501D01*
X190649620Y-77861504D01*
X190663352Y-77875235D01*
X190827491Y-78039374D01*
X190827501Y-78039385D01*
X190831831Y-78043715D01*
X190831832Y-78043716D01*
X190943636Y-78155520D01*
X191030447Y-78205639D01*
X191030449Y-78205641D01*
X191068503Y-78227611D01*
X191080567Y-78234577D01*
X191233295Y-78275500D01*
X191391409Y-78275500D01*
X192403587Y-78275500D01*
X192403603Y-78275501D01*
X192411199Y-78275501D01*
X192569310Y-78275501D01*
X192569313Y-78275501D01*
X192722041Y-78234577D01*
X192772160Y-78205639D01*
X192858972Y-78155520D01*
X192970776Y-78043716D01*
X192970776Y-78043714D01*
X192980984Y-78033507D01*
X192980986Y-78033504D01*
X193687821Y-77326668D01*
X193749142Y-77293185D01*
X193818834Y-77298169D01*
X193874767Y-77340041D01*
X193899184Y-77405505D01*
X193899500Y-77414351D01*
X193899500Y-79250001D01*
X193899501Y-79250018D01*
X193910000Y-79352796D01*
X193910001Y-79352799D01*
X193965185Y-79519331D01*
X193965186Y-79519334D01*
X194057288Y-79668656D01*
X194181344Y-79792712D01*
X194330666Y-79884814D01*
X194497203Y-79939999D01*
X194588103Y-79949285D01*
X194590540Y-79950279D01*
X194593147Y-79949905D01*
X194622710Y-79963406D01*
X194652794Y-79975681D01*
X194654307Y-79977835D01*
X194656703Y-79978930D01*
X194674273Y-80006270D01*
X194692945Y-80032861D01*
X194693490Y-80036173D01*
X194694477Y-80037708D01*
X194699500Y-80072642D01*
X194699500Y-80281239D01*
X194679815Y-80348278D01*
X194627011Y-80394033D01*
X194557853Y-80403977D01*
X194510404Y-80386778D01*
X194425647Y-80334500D01*
X194394336Y-80315187D01*
X194394331Y-80315185D01*
X194343016Y-80298181D01*
X194227797Y-80260001D01*
X194227795Y-80260000D01*
X194125010Y-80249500D01*
X193074998Y-80249500D01*
X193074980Y-80249501D01*
X192972203Y-80260000D01*
X192972200Y-80260001D01*
X192805668Y-80315185D01*
X192805663Y-80315187D01*
X192656342Y-80407289D01*
X192532289Y-80531342D01*
X192521836Y-80548290D01*
X192500501Y-80582880D01*
X192495741Y-80590597D01*
X192443793Y-80637321D01*
X192390202Y-80649500D01*
X190029062Y-80649500D01*
X190029058Y-80649499D01*
X189870943Y-80649499D01*
X189843138Y-80656949D01*
X189829213Y-80657479D01*
X189808305Y-80652194D01*
X189786745Y-80651681D01*
X189775103Y-80643802D01*
X189761474Y-80640357D01*
X189746742Y-80624606D01*
X189728882Y-80612519D01*
X189723348Y-80599595D01*
X189713746Y-80589330D01*
X189709867Y-80568115D01*
X189701378Y-80548290D01*
X189700501Y-80533569D01*
X189700501Y-80420944D01*
X189696670Y-80406646D01*
X189659577Y-80268216D01*
X189648772Y-80249501D01*
X189580524Y-80131290D01*
X189580518Y-80131282D01*
X189241946Y-79792710D01*
X188665366Y-79216130D01*
X188631882Y-79154809D01*
X188636866Y-79085118D01*
X188678738Y-79029184D01*
X188714044Y-79010745D01*
X188869119Y-78959358D01*
X188869124Y-78959356D01*
X189018345Y-78867315D01*
X189142315Y-78743345D01*
X189234356Y-78594124D01*
X189234358Y-78594119D01*
X189289505Y-78427697D01*
X189289506Y-78427690D01*
X189299999Y-78324986D01*
X189300000Y-78324973D01*
X189300000Y-78050000D01*
X188424000Y-78050000D01*
X188356961Y-78030315D01*
X188311206Y-77977511D01*
X188300000Y-77926000D01*
X188300000Y-77800000D01*
X188174000Y-77800000D01*
X188106961Y-77780315D01*
X188061206Y-77727511D01*
X188050000Y-77676000D01*
X188050000Y-76575000D01*
X188049999Y-76574999D01*
X188000029Y-76575000D01*
X188000011Y-76575001D01*
X187897302Y-76585494D01*
X187730880Y-76640641D01*
X187730875Y-76640643D01*
X187581654Y-76732684D01*
X187457683Y-76856655D01*
X187457679Y-76856660D01*
X187455826Y-76859665D01*
X187454018Y-76861290D01*
X187453202Y-76862323D01*
X187453025Y-76862183D01*
X187403874Y-76906385D01*
X187334911Y-76917601D01*
X187270831Y-76889752D01*
X187244753Y-76859653D01*
X187244737Y-76859628D01*
X187242712Y-76856344D01*
X187118656Y-76732288D01*
X186969334Y-76640186D01*
X186802797Y-76585001D01*
X186802795Y-76585000D01*
X186700010Y-76574500D01*
X186099998Y-76574500D01*
X186099980Y-76574501D01*
X185997203Y-76585000D01*
X185997200Y-76585001D01*
X185830668Y-76640185D01*
X185830663Y-76640187D01*
X185681342Y-76732289D01*
X185557289Y-76856342D01*
X185465187Y-77005663D01*
X185465185Y-77005668D01*
X185437349Y-77089670D01*
X185410001Y-77172203D01*
X185410001Y-77172204D01*
X185410000Y-77172204D01*
X185399500Y-77274983D01*
X185399500Y-78325001D01*
X185399501Y-78325019D01*
X185410000Y-78427796D01*
X185410001Y-78427799D01*
X185465115Y-78594119D01*
X185465186Y-78594334D01*
X185557288Y-78743656D01*
X185681344Y-78867712D01*
X185830666Y-78959814D01*
X185997203Y-79014999D01*
X186099991Y-79025500D01*
X186700008Y-79025499D01*
X186710576Y-79024419D01*
X186779268Y-79037187D01*
X186810861Y-79060096D01*
X188238583Y-80487819D01*
X188272068Y-80549142D01*
X188267084Y-80618834D01*
X188225212Y-80674767D01*
X188159748Y-80699184D01*
X188150903Y-80699500D01*
X188049999Y-80699500D01*
X188049980Y-80699501D01*
X187947203Y-80710000D01*
X187947200Y-80710001D01*
X187780668Y-80765185D01*
X187780663Y-80765187D01*
X187631342Y-80857289D01*
X187507289Y-80981342D01*
X187415187Y-81130663D01*
X187415186Y-81130666D01*
X187360001Y-81297203D01*
X187360001Y-81297204D01*
X187360000Y-81297204D01*
X187349500Y-81399983D01*
X187349500Y-82800001D01*
X187349501Y-82800018D01*
X187360000Y-82902796D01*
X187360001Y-82902799D01*
X187404726Y-83037769D01*
X187415186Y-83069334D01*
X187507288Y-83218656D01*
X187631344Y-83342712D01*
X187780666Y-83434814D01*
X187947203Y-83489999D01*
X188049991Y-83500500D01*
X190150008Y-83500499D01*
X190252797Y-83489999D01*
X190373548Y-83449986D01*
X192375001Y-83449986D01*
X192385494Y-83552697D01*
X192440641Y-83719119D01*
X192440643Y-83719124D01*
X192532684Y-83868345D01*
X192656654Y-83992315D01*
X192805875Y-84084356D01*
X192805880Y-84084358D01*
X192972302Y-84139505D01*
X192972309Y-84139506D01*
X193075019Y-84149999D01*
X193349999Y-84149999D01*
X193850000Y-84149999D01*
X194124972Y-84149999D01*
X194124986Y-84149998D01*
X194227697Y-84139505D01*
X194394119Y-84084358D01*
X194394124Y-84084356D01*
X194543345Y-83992315D01*
X194612319Y-83923342D01*
X194673642Y-83889857D01*
X194743334Y-83894841D01*
X194787681Y-83923342D01*
X194856654Y-83992315D01*
X195005875Y-84084356D01*
X195005880Y-84084358D01*
X195172302Y-84139505D01*
X195172309Y-84139506D01*
X195275019Y-84149999D01*
X195549999Y-84149999D01*
X196050000Y-84149999D01*
X196324972Y-84149999D01*
X196324986Y-84149998D01*
X196427697Y-84139505D01*
X196594119Y-84084358D01*
X196594124Y-84084356D01*
X196743345Y-83992315D01*
X196867315Y-83868345D01*
X196959356Y-83719124D01*
X196959358Y-83719119D01*
X197014505Y-83552697D01*
X197014506Y-83552690D01*
X197024999Y-83449986D01*
X197025000Y-83449973D01*
X197025000Y-83400000D01*
X196050000Y-83400000D01*
X196050000Y-84149999D01*
X195549999Y-84149999D01*
X195550000Y-84149998D01*
X195550000Y-83400000D01*
X193850000Y-83400000D01*
X193850000Y-84149999D01*
X193349999Y-84149999D01*
X193350000Y-84149998D01*
X193350000Y-83400000D01*
X192375001Y-83400000D01*
X192375001Y-83449986D01*
X190373548Y-83449986D01*
X190419334Y-83434814D01*
X190568656Y-83342712D01*
X190692712Y-83218656D01*
X190784814Y-83069334D01*
X190839999Y-82902797D01*
X190850500Y-82800009D01*
X190850499Y-81974499D01*
X190870183Y-81907461D01*
X190922987Y-81861706D01*
X190974499Y-81850500D01*
X192390202Y-81850500D01*
X192457241Y-81870185D01*
X192495739Y-81909401D01*
X192532288Y-81968656D01*
X192656344Y-82092712D01*
X192659628Y-82094737D01*
X192659653Y-82094753D01*
X192661445Y-82096746D01*
X192662011Y-82097193D01*
X192661934Y-82097289D01*
X192706379Y-82146699D01*
X192717603Y-82215661D01*
X192689761Y-82279744D01*
X192659665Y-82305826D01*
X192656660Y-82307679D01*
X192656655Y-82307683D01*
X192532684Y-82431654D01*
X192440643Y-82580875D01*
X192440641Y-82580880D01*
X192385494Y-82747302D01*
X192385493Y-82747309D01*
X192375000Y-82850013D01*
X192375000Y-82900000D01*
X197024999Y-82900000D01*
X197024999Y-82850028D01*
X197024998Y-82850013D01*
X197014505Y-82747302D01*
X196959358Y-82580880D01*
X196959356Y-82580875D01*
X196867315Y-82431654D01*
X196743344Y-82307683D01*
X196743341Y-82307681D01*
X196740339Y-82305829D01*
X196738713Y-82304021D01*
X196737677Y-82303202D01*
X196737817Y-82303024D01*
X196693617Y-82253880D01*
X196682397Y-82184917D01*
X196710243Y-82120836D01*
X196740344Y-82094754D01*
X196743656Y-82092712D01*
X196867712Y-81968656D01*
X196959814Y-81819334D01*
X197014999Y-81652797D01*
X197025500Y-81550009D01*
X197025499Y-80949992D01*
X197024419Y-80939420D01*
X197037188Y-80870728D01*
X197060093Y-80839140D01*
X197087821Y-80811412D01*
X197149142Y-80777929D01*
X197218834Y-80782913D01*
X197274767Y-80824785D01*
X197299184Y-80890249D01*
X197299500Y-80899095D01*
X197299500Y-82397870D01*
X197299501Y-82397876D01*
X197305908Y-82457483D01*
X197356202Y-82592328D01*
X197356206Y-82592335D01*
X197442452Y-82707544D01*
X197442455Y-82707547D01*
X197557664Y-82793793D01*
X197557671Y-82793797D01*
X197574351Y-82800018D01*
X197692517Y-82844091D01*
X197752127Y-82850500D01*
X198126213Y-82850499D01*
X198193251Y-82870183D01*
X198239006Y-82922987D01*
X198248950Y-82992146D01*
X198232856Y-83037769D01*
X198225909Y-83049476D01*
X198222981Y-83056547D01*
X198222973Y-83056568D01*
X198204976Y-83107582D01*
X198202216Y-83126780D01*
X198184501Y-83249997D01*
X198184500Y-83250001D01*
X198184500Y-85450002D01*
X198187397Y-85504043D01*
X198222978Y-85643444D01*
X198222979Y-85643447D01*
X198222981Y-85643452D01*
X198225625Y-85649836D01*
X198225912Y-85650528D01*
X198225916Y-85650537D01*
X198249261Y-85699329D01*
X198249262Y-85699331D01*
X198335487Y-85814513D01*
X198335491Y-85814517D01*
X198335496Y-85814523D01*
X199235482Y-86714509D01*
X199275732Y-86750665D01*
X199275739Y-86750671D01*
X199399477Y-86824090D01*
X199406548Y-86827019D01*
X199457584Y-86845024D01*
X199600000Y-86865500D01*
X199600003Y-86865500D01*
X200000002Y-86865500D01*
X200005796Y-86865189D01*
X200054041Y-86862603D01*
X200193452Y-86827019D01*
X200200523Y-86824090D01*
X200249331Y-86800738D01*
X200364513Y-86714513D01*
X201264513Y-85814513D01*
X201300671Y-85774261D01*
X201374090Y-85650523D01*
X201377019Y-85643452D01*
X201395024Y-85592416D01*
X201415500Y-85450000D01*
X201415500Y-83250000D01*
X201412603Y-83195959D01*
X201377019Y-83056548D01*
X201374090Y-83049477D01*
X201363584Y-83027518D01*
X201352407Y-82958548D01*
X201380292Y-82894484D01*
X201438386Y-82855666D01*
X201475440Y-82850000D01*
X201847828Y-82850000D01*
X201847844Y-82849999D01*
X201907372Y-82843598D01*
X201907379Y-82843596D01*
X202042086Y-82793354D01*
X202051186Y-82786542D01*
X202116650Y-82762123D01*
X202184923Y-82776973D01*
X202234330Y-82826377D01*
X202249500Y-82885807D01*
X202249500Y-89975500D01*
X202229815Y-90042539D01*
X202177011Y-90088294D01*
X202125500Y-90099500D01*
X183374500Y-90099500D01*
X183307461Y-90079815D01*
X183261706Y-90027011D01*
X183250500Y-89975500D01*
X183250500Y-83239574D01*
X183270185Y-83172535D01*
X183322989Y-83126780D01*
X183392147Y-83116836D01*
X183455703Y-83145861D01*
X183480039Y-83174478D01*
X183493286Y-83195956D01*
X183507288Y-83218656D01*
X183631344Y-83342712D01*
X183780666Y-83434814D01*
X183947203Y-83489999D01*
X184049991Y-83500500D01*
X185599902Y-83500499D01*
X185666941Y-83520184D01*
X185687583Y-83536818D01*
X185963181Y-83812416D01*
X185996666Y-83873739D01*
X185999500Y-83900097D01*
X185999500Y-86334216D01*
X185979815Y-86401255D01*
X185963181Y-86421897D01*
X185822863Y-86562214D01*
X185822860Y-86562218D01*
X185713371Y-86726079D01*
X185713364Y-86726092D01*
X185637950Y-86908160D01*
X185637947Y-86908170D01*
X185599500Y-87101456D01*
X185599500Y-87101459D01*
X185599500Y-87298541D01*
X185599500Y-87298543D01*
X185599499Y-87298543D01*
X185637947Y-87491829D01*
X185637950Y-87491839D01*
X185713364Y-87673907D01*
X185713371Y-87673920D01*
X185822860Y-87837781D01*
X185822863Y-87837785D01*
X185962214Y-87977136D01*
X185962218Y-87977139D01*
X186126079Y-88086628D01*
X186126092Y-88086635D01*
X186308160Y-88162049D01*
X186308165Y-88162051D01*
X186308169Y-88162051D01*
X186308170Y-88162052D01*
X186501456Y-88200500D01*
X186501459Y-88200500D01*
X186698543Y-88200500D01*
X186828582Y-88174632D01*
X186891835Y-88162051D01*
X187073914Y-88086632D01*
X187237782Y-87977139D01*
X187252349Y-87962572D01*
X190290979Y-87962572D01*
X190326328Y-87986192D01*
X190508306Y-88061569D01*
X190508318Y-88061572D01*
X190701504Y-88099999D01*
X190701508Y-88100000D01*
X190898492Y-88100000D01*
X190898495Y-88099999D01*
X191091681Y-88061572D01*
X191091693Y-88061569D01*
X191273676Y-87986190D01*
X191273680Y-87986187D01*
X191309019Y-87962573D01*
X191309020Y-87962572D01*
X190800001Y-87453553D01*
X190800000Y-87453553D01*
X190290979Y-87962572D01*
X187252349Y-87962572D01*
X187377139Y-87837782D01*
X187486632Y-87673914D01*
X187562051Y-87491835D01*
X187600500Y-87298541D01*
X187600500Y-87101459D01*
X187600500Y-87101456D01*
X187584219Y-87019609D01*
X187584219Y-87019608D01*
X187580618Y-87001504D01*
X189800000Y-87001504D01*
X189800000Y-87198495D01*
X189838427Y-87391681D01*
X189838430Y-87391693D01*
X189913808Y-87573673D01*
X189913809Y-87573675D01*
X189937425Y-87609019D01*
X190446446Y-87100000D01*
X190446446Y-87099999D01*
X190396719Y-87050272D01*
X190550000Y-87050272D01*
X190550000Y-87149728D01*
X190588060Y-87241614D01*
X190658386Y-87311940D01*
X190750272Y-87350000D01*
X190849728Y-87350000D01*
X190941614Y-87311940D01*
X191011940Y-87241614D01*
X191050000Y-87149728D01*
X191050000Y-87099999D01*
X191153553Y-87099999D01*
X191153553Y-87100000D01*
X191662572Y-87609020D01*
X191662573Y-87609019D01*
X191686187Y-87573680D01*
X191686190Y-87573676D01*
X191761569Y-87391693D01*
X191761572Y-87391681D01*
X191799999Y-87198495D01*
X191800000Y-87198492D01*
X191800000Y-87001508D01*
X191799999Y-87001504D01*
X191761572Y-86808318D01*
X191761569Y-86808306D01*
X191686192Y-86626328D01*
X191662572Y-86590979D01*
X191153553Y-87099999D01*
X191050000Y-87099999D01*
X191050000Y-87050272D01*
X191011940Y-86958386D01*
X190941614Y-86888060D01*
X190849728Y-86850000D01*
X190750272Y-86850000D01*
X190658386Y-86888060D01*
X190588060Y-86958386D01*
X190550000Y-87050272D01*
X190396719Y-87050272D01*
X189937426Y-86590978D01*
X189937426Y-86590979D01*
X189913813Y-86626318D01*
X189913809Y-86626325D01*
X189838429Y-86808310D01*
X189838427Y-86808318D01*
X189800000Y-87001504D01*
X187580618Y-87001504D01*
X187562052Y-86908172D01*
X187562052Y-86908170D01*
X187562051Y-86908165D01*
X187543179Y-86862603D01*
X187486635Y-86726092D01*
X187486628Y-86726079D01*
X187377139Y-86562218D01*
X187377136Y-86562214D01*
X187236819Y-86421897D01*
X187222115Y-86394969D01*
X187205523Y-86369151D01*
X187204631Y-86362950D01*
X187203334Y-86360574D01*
X187200500Y-86334216D01*
X187200500Y-86237426D01*
X190290978Y-86237426D01*
X190800000Y-86746446D01*
X190800001Y-86746446D01*
X191309020Y-86237426D01*
X191273675Y-86213809D01*
X191273673Y-86213808D01*
X191091693Y-86138430D01*
X191091681Y-86138427D01*
X190898495Y-86100000D01*
X190701504Y-86100000D01*
X190508318Y-86138427D01*
X190508310Y-86138429D01*
X190326325Y-86213809D01*
X190326318Y-86213813D01*
X190290979Y-86237426D01*
X190290978Y-86237426D01*
X187200500Y-86237426D01*
X187200500Y-83520945D01*
X187200500Y-83520943D01*
X187159577Y-83368216D01*
X187159573Y-83368209D01*
X187080524Y-83231290D01*
X187080521Y-83231286D01*
X187080520Y-83231284D01*
X186968716Y-83119480D01*
X186968715Y-83119479D01*
X186964385Y-83115149D01*
X186964374Y-83115139D01*
X186872177Y-83022942D01*
X186838692Y-82961619D01*
X186838607Y-82909295D01*
X186839998Y-82902799D01*
X186839999Y-82902797D01*
X186850500Y-82800009D01*
X186850499Y-81399992D01*
X186839999Y-81297203D01*
X186784814Y-81130666D01*
X186692712Y-80981344D01*
X186568656Y-80857288D01*
X186419334Y-80765186D01*
X186252797Y-80710001D01*
X186252795Y-80710000D01*
X186150010Y-80699500D01*
X184049998Y-80699500D01*
X184049981Y-80699501D01*
X183947203Y-80710000D01*
X183947200Y-80710001D01*
X183780668Y-80765185D01*
X183780663Y-80765187D01*
X183631342Y-80857289D01*
X183507288Y-80981343D01*
X183507285Y-80981347D01*
X183480038Y-81025522D01*
X183428090Y-81072247D01*
X183359128Y-81083468D01*
X183295046Y-81055625D01*
X183256190Y-80997556D01*
X183250500Y-80960425D01*
X183250500Y-71831582D01*
X183650001Y-71831582D01*
X183656408Y-71902102D01*
X183656409Y-71902107D01*
X183706981Y-72064396D01*
X183794927Y-72209877D01*
X183915122Y-72330072D01*
X184060604Y-72418019D01*
X184060603Y-72418019D01*
X184222894Y-72468590D01*
X184222893Y-72468590D01*
X184293408Y-72474998D01*
X184293426Y-72474999D01*
X184299999Y-72474998D01*
X184300000Y-72474998D01*
X184300000Y-71750000D01*
X183650001Y-71750000D01*
X183650001Y-71831582D01*
X183250500Y-71831582D01*
X183250500Y-71168427D01*
X183650000Y-71168427D01*
X183650000Y-71250000D01*
X184300000Y-71250000D01*
X184300000Y-70525000D01*
X184299999Y-70524999D01*
X184293436Y-70525000D01*
X184293417Y-70525001D01*
X184222897Y-70531408D01*
X184222892Y-70531409D01*
X184060603Y-70581981D01*
X183915122Y-70669927D01*
X183794927Y-70790122D01*
X183706980Y-70935604D01*
X183656409Y-71097893D01*
X183650000Y-71168427D01*
X183250500Y-71168427D01*
X183250500Y-64977503D01*
X183270185Y-64910464D01*
X183322989Y-64864709D01*
X183392147Y-64854765D01*
X183455703Y-64883790D01*
G37*
G04 #@! TD.AperFunction*
G04 #@! TA.AperFunction,Conductor*
G36*
X202126202Y-53796977D02*
G01*
X202193129Y-53817041D01*
X202238584Y-53870103D01*
X202249500Y-53920975D01*
X202249500Y-80314192D01*
X202229815Y-80381231D01*
X202177011Y-80426986D01*
X202107853Y-80436930D01*
X202051190Y-80413460D01*
X202042088Y-80406646D01*
X202042086Y-80406645D01*
X201907379Y-80356403D01*
X201907372Y-80356401D01*
X201847844Y-80350000D01*
X201550000Y-80350000D01*
X201550000Y-81476000D01*
X201530315Y-81543039D01*
X201477511Y-81588794D01*
X201426000Y-81600000D01*
X201174000Y-81600000D01*
X201106961Y-81580315D01*
X201061206Y-81527511D01*
X201050000Y-81476000D01*
X201050000Y-80350000D01*
X200752155Y-80350000D01*
X200692627Y-80356401D01*
X200692620Y-80356403D01*
X200610068Y-80387193D01*
X200540376Y-80392177D01*
X200503468Y-80377657D01*
X200500522Y-80375909D01*
X200493452Y-80372981D01*
X200493431Y-80372973D01*
X200442417Y-80354976D01*
X200394944Y-80348150D01*
X200300000Y-80334500D01*
X200299998Y-80334500D01*
X200200097Y-80334500D01*
X200170656Y-80325855D01*
X200140670Y-80319332D01*
X200135654Y-80315577D01*
X200133058Y-80314815D01*
X200112416Y-80298181D01*
X200036819Y-80222584D01*
X200003334Y-80161261D01*
X200000500Y-80134903D01*
X200000500Y-80072642D01*
X200020185Y-80005603D01*
X200072989Y-79959848D01*
X200111897Y-79949284D01*
X200202797Y-79939999D01*
X200369334Y-79884814D01*
X200518656Y-79792712D01*
X200642712Y-79668656D01*
X200734814Y-79519334D01*
X200789999Y-79352797D01*
X200800500Y-79250009D01*
X200800499Y-77149992D01*
X200789999Y-77047203D01*
X200734814Y-76880666D01*
X200642712Y-76731344D01*
X200518656Y-76607288D01*
X200425888Y-76550069D01*
X200369336Y-76515187D01*
X200369331Y-76515185D01*
X200367862Y-76514698D01*
X200202797Y-76460001D01*
X200202795Y-76460000D01*
X200100016Y-76449500D01*
X198981940Y-76449500D01*
X198914901Y-76429815D01*
X198869146Y-76377011D01*
X198859202Y-76307853D01*
X198888227Y-76244297D01*
X198894246Y-76237831D01*
X198921789Y-76210289D01*
X199009394Y-76079179D01*
X199030987Y-76027045D01*
X199074827Y-75972644D01*
X199141120Y-75950578D01*
X199145548Y-75950499D01*
X200100002Y-75950499D01*
X200100008Y-75950499D01*
X200202797Y-75939999D01*
X200369334Y-75884814D01*
X200518656Y-75792712D01*
X200642712Y-75668656D01*
X200734814Y-75519334D01*
X200789999Y-75352797D01*
X200800500Y-75250009D01*
X200800499Y-73149992D01*
X200789999Y-73047203D01*
X200734814Y-72880666D01*
X200642712Y-72731344D01*
X200518656Y-72607288D01*
X200421704Y-72547488D01*
X200369336Y-72515187D01*
X200369331Y-72515185D01*
X200346571Y-72507643D01*
X200202797Y-72460001D01*
X200202794Y-72460000D01*
X200111897Y-72450714D01*
X200047205Y-72424317D01*
X200007054Y-72367136D01*
X200000500Y-72327356D01*
X200000500Y-66474499D01*
X200020185Y-66407460D01*
X200072989Y-66361705D01*
X200124500Y-66350499D01*
X200797871Y-66350499D01*
X200797872Y-66350499D01*
X200857483Y-66344091D01*
X200992331Y-66293796D01*
X201107546Y-66207546D01*
X201193796Y-66092331D01*
X201244091Y-65957483D01*
X201250500Y-65897873D01*
X201250499Y-60102128D01*
X201244091Y-60042517D01*
X201193796Y-59907669D01*
X201193795Y-59907668D01*
X201193793Y-59907664D01*
X201107547Y-59792455D01*
X201107544Y-59792452D01*
X200992335Y-59706206D01*
X200992328Y-59706202D01*
X200857482Y-59655908D01*
X200857483Y-59655908D01*
X200797883Y-59649501D01*
X200797881Y-59649500D01*
X200797873Y-59649500D01*
X200797865Y-59649500D01*
X199124501Y-59649500D01*
X199057462Y-59629815D01*
X199011707Y-59577011D01*
X199000501Y-59525500D01*
X199000501Y-57401873D01*
X199020186Y-57334834D01*
X199072990Y-57289079D01*
X199100299Y-57280258D01*
X199191835Y-57262051D01*
X199373914Y-57186632D01*
X199537782Y-57077139D01*
X199677139Y-56937782D01*
X199786632Y-56773914D01*
X199862051Y-56591835D01*
X199890267Y-56449986D01*
X199900500Y-56398543D01*
X199900500Y-56201456D01*
X199862052Y-56008170D01*
X199862051Y-56008169D01*
X199862051Y-56008165D01*
X199796543Y-55850013D01*
X199786635Y-55826092D01*
X199786628Y-55826079D01*
X199677139Y-55662218D01*
X199677136Y-55662214D01*
X199537785Y-55522863D01*
X199537781Y-55522860D01*
X199373920Y-55413371D01*
X199373907Y-55413364D01*
X199191839Y-55337950D01*
X199191829Y-55337947D01*
X198998543Y-55299500D01*
X198998541Y-55299500D01*
X198801459Y-55299500D01*
X198801457Y-55299500D01*
X198608170Y-55337947D01*
X198608160Y-55337950D01*
X198426092Y-55413364D01*
X198426079Y-55413371D01*
X198262218Y-55522860D01*
X198262214Y-55522863D01*
X198122863Y-55662214D01*
X198122860Y-55662218D01*
X198013371Y-55826079D01*
X198013364Y-55826092D01*
X197937950Y-56008160D01*
X197937947Y-56008170D01*
X197899500Y-56201456D01*
X197899500Y-56398545D01*
X197900359Y-56402864D01*
X197894129Y-56472456D01*
X197886128Y-56489051D01*
X197840425Y-56568210D01*
X197840424Y-56568214D01*
X197799988Y-56719124D01*
X197799501Y-56720940D01*
X197799500Y-56720943D01*
X197799500Y-56889045D01*
X197799501Y-56889058D01*
X197799501Y-66999901D01*
X197779816Y-67066940D01*
X197763182Y-67087582D01*
X197234504Y-67616259D01*
X197173181Y-67649744D01*
X197103489Y-67644760D01*
X197047556Y-67602888D01*
X197032263Y-67576033D01*
X197009394Y-67520821D01*
X197009390Y-67520814D01*
X196921789Y-67389711D01*
X196921786Y-67389707D01*
X196810292Y-67278213D01*
X196810288Y-67278210D01*
X196679185Y-67190609D01*
X196679172Y-67190602D01*
X196533501Y-67130264D01*
X196533489Y-67130261D01*
X196378845Y-67099500D01*
X196378842Y-67099500D01*
X196221158Y-67099500D01*
X196221155Y-67099500D01*
X196066510Y-67130261D01*
X196066498Y-67130264D01*
X195920827Y-67190602D01*
X195920814Y-67190609D01*
X195789711Y-67278210D01*
X195789707Y-67278213D01*
X195678213Y-67389707D01*
X195678210Y-67389711D01*
X195590609Y-67520814D01*
X195590604Y-67520824D01*
X195567737Y-67576031D01*
X195547151Y-67601575D01*
X195527487Y-67627845D01*
X195525335Y-67628647D01*
X195523896Y-67630434D01*
X195492770Y-67640793D01*
X195462023Y-67652262D01*
X195459780Y-67651774D01*
X195457602Y-67652499D01*
X195425797Y-67644381D01*
X195393750Y-67637410D01*
X195391301Y-67635577D01*
X195389902Y-67635220D01*
X195365495Y-67616260D01*
X195324023Y-67574788D01*
X195262584Y-67513349D01*
X195262580Y-67513344D01*
X195143717Y-67394481D01*
X195143712Y-67394477D01*
X195020835Y-67323535D01*
X195020835Y-67323534D01*
X195020832Y-67323533D01*
X195006785Y-67315423D01*
X194854057Y-67274499D01*
X194695943Y-67274499D01*
X194688347Y-67274499D01*
X194688331Y-67274500D01*
X194624500Y-67274500D01*
X194557461Y-67254815D01*
X194511706Y-67202011D01*
X194500500Y-67150500D01*
X194500500Y-67121155D01*
X194500499Y-67121153D01*
X194482745Y-67031898D01*
X194469737Y-66966503D01*
X194460183Y-66943438D01*
X194409397Y-66820827D01*
X194409390Y-66820814D01*
X194321789Y-66689711D01*
X194321786Y-66689707D01*
X194210292Y-66578213D01*
X194210288Y-66578210D01*
X194138730Y-66530396D01*
X194138722Y-66530392D01*
X194079179Y-66490606D01*
X194036502Y-66472928D01*
X194036499Y-66472927D01*
X194003717Y-66459348D01*
X193933497Y-66430263D01*
X193933492Y-66430262D01*
X193933489Y-66430261D01*
X193778845Y-66399500D01*
X193778842Y-66399500D01*
X193621158Y-66399500D01*
X193621155Y-66399500D01*
X193466510Y-66430261D01*
X193466498Y-66430264D01*
X193320827Y-66490602D01*
X193320814Y-66490609D01*
X193189711Y-66578210D01*
X193189707Y-66578213D01*
X193179740Y-66588181D01*
X193118417Y-66621666D01*
X193092059Y-66624500D01*
X191968693Y-66624500D01*
X191901654Y-66604815D01*
X191893774Y-66599308D01*
X191882342Y-66590639D01*
X191741564Y-66535123D01*
X191741563Y-66535122D01*
X191741561Y-66535122D01*
X191695926Y-66529642D01*
X191653102Y-66524500D01*
X191653097Y-66524500D01*
X191352737Y-66524500D01*
X191285698Y-66504815D01*
X191239943Y-66452011D01*
X191229999Y-66382853D01*
X191259024Y-66319297D01*
X191265047Y-66312826D01*
X191475027Y-66102846D01*
X191511948Y-66077395D01*
X191521008Y-66073330D01*
X191572337Y-66059577D01*
X191638880Y-66021158D01*
X191644366Y-66017990D01*
X191644374Y-66017987D01*
X191709261Y-65980524D01*
X191709260Y-65980524D01*
X191709268Y-65980520D01*
X191821072Y-65868716D01*
X191821073Y-65868714D01*
X191952970Y-65736816D01*
X192014291Y-65703334D01*
X192040649Y-65700500D01*
X192165686Y-65700500D01*
X192165694Y-65700500D01*
X192202569Y-65697598D01*
X192202571Y-65697597D01*
X192202573Y-65697597D01*
X192244191Y-65685505D01*
X192360398Y-65651744D01*
X192501865Y-65568081D01*
X192618081Y-65451865D01*
X192701744Y-65310398D01*
X192747598Y-65152569D01*
X192750500Y-65115694D01*
X192750500Y-64637597D01*
X192770185Y-64570558D01*
X192786819Y-64549916D01*
X193699916Y-63636819D01*
X193726843Y-63622115D01*
X193752662Y-63605523D01*
X193758862Y-63604631D01*
X193761239Y-63603334D01*
X193787597Y-63600500D01*
X193825501Y-63600500D01*
X193892540Y-63620185D01*
X193938295Y-63672989D01*
X193949501Y-63724500D01*
X193949501Y-65897876D01*
X193955908Y-65957483D01*
X194006202Y-66092328D01*
X194006206Y-66092335D01*
X194070966Y-66178842D01*
X194092454Y-66207546D01*
X194207669Y-66293796D01*
X194342517Y-66344091D01*
X194342516Y-66344091D01*
X194349444Y-66344835D01*
X194402127Y-66350500D01*
X196097872Y-66350499D01*
X196157483Y-66344091D01*
X196292331Y-66293796D01*
X196407546Y-66207546D01*
X196493796Y-66092331D01*
X196544091Y-65957483D01*
X196550500Y-65897873D01*
X196550499Y-60102128D01*
X196544091Y-60042517D01*
X196493796Y-59907669D01*
X196493795Y-59907668D01*
X196493793Y-59907664D01*
X196407547Y-59792455D01*
X196407544Y-59792452D01*
X196292335Y-59706206D01*
X196292328Y-59706202D01*
X196157482Y-59655908D01*
X196157483Y-59655908D01*
X196097883Y-59649501D01*
X196097881Y-59649500D01*
X196097873Y-59649500D01*
X196097865Y-59649500D01*
X195974500Y-59649500D01*
X195907461Y-59629815D01*
X195861706Y-59577011D01*
X195850500Y-59525500D01*
X195850500Y-57424500D01*
X195870185Y-57357461D01*
X195922989Y-57311706D01*
X195974500Y-57300500D01*
X196098543Y-57300500D01*
X196228582Y-57274632D01*
X196291835Y-57262051D01*
X196473914Y-57186632D01*
X196637782Y-57077139D01*
X196777139Y-56937782D01*
X196886632Y-56773914D01*
X196962051Y-56591835D01*
X196990267Y-56449986D01*
X197000500Y-56398543D01*
X197000500Y-56201456D01*
X196962052Y-56008170D01*
X196962051Y-56008169D01*
X196962051Y-56008165D01*
X196896543Y-55850013D01*
X196886635Y-55826092D01*
X196886628Y-55826079D01*
X196777139Y-55662218D01*
X196777136Y-55662214D01*
X196637785Y-55522863D01*
X196637781Y-55522860D01*
X196473920Y-55413371D01*
X196473907Y-55413364D01*
X196291839Y-55337950D01*
X196291829Y-55337947D01*
X196098543Y-55299500D01*
X196098541Y-55299500D01*
X195901459Y-55299500D01*
X195901457Y-55299500D01*
X195708170Y-55337947D01*
X195708160Y-55337950D01*
X195526092Y-55413364D01*
X195526079Y-55413371D01*
X195362218Y-55522860D01*
X195362214Y-55522863D01*
X195222863Y-55662214D01*
X195222860Y-55662218D01*
X195113371Y-55826079D01*
X195113364Y-55826092D01*
X195037950Y-56008160D01*
X195037947Y-56008170D01*
X194999500Y-56201456D01*
X194999500Y-56399902D01*
X194979815Y-56466941D01*
X194963181Y-56487583D01*
X194769481Y-56681282D01*
X194769477Y-56681287D01*
X194746585Y-56720940D01*
X194746584Y-56720942D01*
X194690423Y-56818215D01*
X194649499Y-56970943D01*
X194649499Y-56970945D01*
X194649499Y-57139046D01*
X194649500Y-57139059D01*
X194649500Y-57586455D01*
X194629815Y-57653494D01*
X194577011Y-57699249D01*
X194507853Y-57709193D01*
X194444297Y-57680168D01*
X194407794Y-57625459D01*
X194394217Y-57584488D01*
X194359814Y-57480666D01*
X194267712Y-57331344D01*
X194143656Y-57207288D01*
X194140342Y-57205243D01*
X194138546Y-57203248D01*
X194137989Y-57202807D01*
X194138064Y-57202711D01*
X194093618Y-57153297D01*
X194082397Y-57084334D01*
X194110240Y-57020252D01*
X194140348Y-56994165D01*
X194143342Y-56992318D01*
X194267315Y-56868345D01*
X194359356Y-56719124D01*
X194359358Y-56719119D01*
X194414505Y-56552697D01*
X194414506Y-56552690D01*
X194424999Y-56449986D01*
X194425000Y-56449973D01*
X194425000Y-56400000D01*
X191975001Y-56400000D01*
X191975001Y-56449986D01*
X191985494Y-56552697D01*
X192040641Y-56719119D01*
X192040643Y-56719124D01*
X192132684Y-56868345D01*
X192256655Y-56992316D01*
X192256659Y-56992319D01*
X192259656Y-56994168D01*
X192261279Y-56995972D01*
X192262323Y-56996798D01*
X192262181Y-56996976D01*
X192306381Y-57046116D01*
X192317602Y-57115079D01*
X192289759Y-57179161D01*
X192259661Y-57205241D01*
X192256349Y-57207283D01*
X192256343Y-57207288D01*
X192132289Y-57331342D01*
X192040187Y-57480663D01*
X192040186Y-57480666D01*
X191985001Y-57647203D01*
X191985001Y-57647204D01*
X191985000Y-57647204D01*
X191974500Y-57749983D01*
X191974500Y-58350000D01*
X191974501Y-58350009D01*
X191975581Y-58360581D01*
X191975223Y-58362501D01*
X191975906Y-58364331D01*
X191968867Y-58396686D01*
X191962808Y-58429274D01*
X191961337Y-58431302D01*
X191961054Y-58432604D01*
X191939904Y-58460859D01*
X191812678Y-58588084D01*
X191751358Y-58621568D01*
X191681666Y-58616584D01*
X191637318Y-58588083D01*
X190836819Y-57787584D01*
X190803334Y-57726261D01*
X190800500Y-57699903D01*
X190800500Y-57165784D01*
X190820185Y-57098745D01*
X190836819Y-57078103D01*
X190977136Y-56937785D01*
X190977139Y-56937782D01*
X191086632Y-56773914D01*
X191162051Y-56591835D01*
X191190267Y-56449986D01*
X191200500Y-56398543D01*
X191200500Y-56201456D01*
X191162052Y-56008170D01*
X191162051Y-56008169D01*
X191162051Y-56008165D01*
X191114894Y-55894316D01*
X191096543Y-55850013D01*
X191975000Y-55850013D01*
X191975000Y-55900000D01*
X192950000Y-55900000D01*
X193450000Y-55900000D01*
X194424999Y-55900000D01*
X194424999Y-55850028D01*
X194424998Y-55850013D01*
X194414505Y-55747302D01*
X194359358Y-55580880D01*
X194359356Y-55580875D01*
X194267315Y-55431654D01*
X194143345Y-55307684D01*
X193994124Y-55215643D01*
X193994119Y-55215641D01*
X193827697Y-55160494D01*
X193827690Y-55160493D01*
X193724986Y-55150000D01*
X193450000Y-55150000D01*
X193450000Y-55900000D01*
X192950000Y-55900000D01*
X192950000Y-55150000D01*
X192675029Y-55150000D01*
X192675012Y-55150001D01*
X192572302Y-55160494D01*
X192405880Y-55215641D01*
X192405875Y-55215643D01*
X192256654Y-55307684D01*
X192132684Y-55431654D01*
X192040643Y-55580875D01*
X192040641Y-55580880D01*
X191985494Y-55747302D01*
X191985493Y-55747309D01*
X191975000Y-55850013D01*
X191096543Y-55850013D01*
X191086635Y-55826092D01*
X191086628Y-55826079D01*
X190977139Y-55662218D01*
X190977136Y-55662214D01*
X190837785Y-55522863D01*
X190837781Y-55522860D01*
X190673920Y-55413371D01*
X190673907Y-55413364D01*
X190491839Y-55337950D01*
X190491829Y-55337947D01*
X190298543Y-55299500D01*
X190298541Y-55299500D01*
X190101459Y-55299500D01*
X190101457Y-55299500D01*
X189908170Y-55337947D01*
X189908160Y-55337950D01*
X189726092Y-55413364D01*
X189726079Y-55413371D01*
X189562218Y-55522860D01*
X189562214Y-55522863D01*
X189422863Y-55662214D01*
X189422860Y-55662218D01*
X189313371Y-55826079D01*
X189313364Y-55826092D01*
X189237950Y-56008160D01*
X189237947Y-56008170D01*
X189199500Y-56201456D01*
X189199500Y-56201459D01*
X189199500Y-56398541D01*
X189199500Y-56398543D01*
X189199499Y-56398543D01*
X189237947Y-56591829D01*
X189237950Y-56591839D01*
X189313364Y-56773907D01*
X189313371Y-56773920D01*
X189422860Y-56937781D01*
X189422863Y-56937785D01*
X189563181Y-57078103D01*
X189596666Y-57139426D01*
X189599500Y-57165784D01*
X189599500Y-57920939D01*
X189599499Y-57920943D01*
X189599499Y-57975502D01*
X189579813Y-58042541D01*
X189527009Y-58088295D01*
X189526998Y-58088296D01*
X189475499Y-58099500D01*
X188049998Y-58099500D01*
X188049981Y-58099501D01*
X187947203Y-58110000D01*
X187947200Y-58110001D01*
X187780668Y-58165185D01*
X187780663Y-58165187D01*
X187631342Y-58257289D01*
X187507289Y-58381342D01*
X187415187Y-58530663D01*
X187415186Y-58530666D01*
X187360001Y-58697203D01*
X187360001Y-58697204D01*
X187360000Y-58697204D01*
X187349500Y-58799983D01*
X187349500Y-60200001D01*
X187349501Y-60200018D01*
X187360001Y-60302804D01*
X187361395Y-60309316D01*
X187360734Y-60318131D01*
X187363824Y-60326415D01*
X187358163Y-60352437D01*
X187356173Y-60378990D01*
X187350460Y-60387846D01*
X187348972Y-60394688D01*
X187327822Y-60422942D01*
X187181286Y-60569478D01*
X187181285Y-60569478D01*
X187181284Y-60569479D01*
X187069479Y-60681284D01*
X187044551Y-60724461D01*
X187034015Y-60742712D01*
X186990423Y-60818215D01*
X186949499Y-60970943D01*
X186949499Y-60970945D01*
X186949499Y-61139046D01*
X186949500Y-61139059D01*
X186949500Y-61143145D01*
X186929815Y-61210184D01*
X186877011Y-61255939D01*
X186807853Y-61265883D01*
X186786497Y-61260851D01*
X186699179Y-61231917D01*
X186632776Y-61209913D01*
X186530855Y-61199500D01*
X186530848Y-61199500D01*
X185944152Y-61199500D01*
X185944144Y-61199500D01*
X185842223Y-61209913D01*
X185677077Y-61264637D01*
X185677066Y-61264642D01*
X185529000Y-61355971D01*
X185528996Y-61355974D01*
X185405974Y-61478996D01*
X185405971Y-61479000D01*
X185405538Y-61479703D01*
X185405114Y-61480083D01*
X185401493Y-61484664D01*
X185400710Y-61484045D01*
X185353590Y-61526428D01*
X185284628Y-61537649D01*
X185220546Y-61509806D01*
X185198657Y-61484544D01*
X185198507Y-61484664D01*
X185195859Y-61481315D01*
X185194462Y-61479703D01*
X185194028Y-61479000D01*
X185194025Y-61478996D01*
X185071003Y-61355974D01*
X185070999Y-61355971D01*
X184922933Y-61264642D01*
X184922927Y-61264639D01*
X184922925Y-61264638D01*
X184895496Y-61255549D01*
X184757776Y-61209913D01*
X184655855Y-61199500D01*
X184655848Y-61199500D01*
X184069152Y-61199500D01*
X184069144Y-61199500D01*
X183967223Y-61209913D01*
X183802077Y-61264637D01*
X183802066Y-61264642D01*
X183654000Y-61355971D01*
X183653996Y-61355974D01*
X183530973Y-61478997D01*
X183480038Y-61561576D01*
X183428090Y-61608300D01*
X183359127Y-61619521D01*
X183295045Y-61591678D01*
X183256190Y-61533609D01*
X183250500Y-61496478D01*
X183250500Y-60639574D01*
X183270185Y-60572535D01*
X183322989Y-60526780D01*
X183392147Y-60516836D01*
X183455703Y-60545861D01*
X183480038Y-60574477D01*
X183507288Y-60618656D01*
X183631344Y-60742712D01*
X183780666Y-60834814D01*
X183947203Y-60889999D01*
X184049991Y-60900500D01*
X186150008Y-60900499D01*
X186252797Y-60889999D01*
X186419334Y-60834814D01*
X186568656Y-60742712D01*
X186692712Y-60618656D01*
X186784814Y-60469334D01*
X186839999Y-60302797D01*
X186850500Y-60200009D01*
X186850499Y-58799992D01*
X186839999Y-58697203D01*
X186784814Y-58530666D01*
X186692712Y-58381344D01*
X186568656Y-58257288D01*
X186419334Y-58165186D01*
X186252797Y-58110001D01*
X186252795Y-58110000D01*
X186150010Y-58099500D01*
X184049998Y-58099500D01*
X184049981Y-58099501D01*
X183947203Y-58110000D01*
X183947200Y-58110001D01*
X183780668Y-58165185D01*
X183780663Y-58165187D01*
X183631342Y-58257289D01*
X183507288Y-58381343D01*
X183507285Y-58381347D01*
X183480038Y-58425522D01*
X183428090Y-58472247D01*
X183359128Y-58483468D01*
X183295046Y-58455625D01*
X183256190Y-58397556D01*
X183250500Y-58360425D01*
X183250500Y-53814837D01*
X183270185Y-53747798D01*
X183322989Y-53702043D01*
X183375198Y-53690839D01*
X202126202Y-53796977D01*
G37*
G04 #@! TD.AperFunction*
G04 #@! TA.AperFunction,Conductor*
G36*
X189222106Y-65157685D02*
G01*
X189267861Y-65210489D01*
X189274143Y-65227404D01*
X189298254Y-65310395D01*
X189298255Y-65310396D01*
X189381917Y-65451862D01*
X189381923Y-65451870D01*
X189498129Y-65568076D01*
X189498133Y-65568079D01*
X189498135Y-65568081D01*
X189639602Y-65651744D01*
X189681224Y-65663836D01*
X189797426Y-65697597D01*
X189797429Y-65697597D01*
X189797431Y-65697598D01*
X189834306Y-65700500D01*
X189879543Y-65700500D01*
X189946582Y-65720185D01*
X189992337Y-65772989D01*
X190002281Y-65842147D01*
X189973256Y-65905703D01*
X189967227Y-65912176D01*
X189671861Y-66207543D01*
X189431286Y-66448118D01*
X189319481Y-66559922D01*
X189319477Y-66559927D01*
X189273004Y-66640423D01*
X189273003Y-66640422D01*
X189240424Y-66696851D01*
X189240423Y-66696855D01*
X189199499Y-66849583D01*
X189199499Y-66849585D01*
X189199499Y-67017686D01*
X189199500Y-67017699D01*
X189199500Y-69392299D01*
X189199499Y-69392303D01*
X189199499Y-69550417D01*
X189214182Y-69605216D01*
X189214980Y-69617410D01*
X189209908Y-69640056D01*
X189209356Y-69663255D01*
X189202417Y-69673507D01*
X189199711Y-69685591D01*
X189183200Y-69701900D01*
X189170194Y-69721118D01*
X189158811Y-69725992D01*
X189150004Y-69734693D01*
X189127299Y-69739487D01*
X189105966Y-69748623D01*
X189091244Y-69749500D01*
X187436670Y-69749500D01*
X187436654Y-69749499D01*
X187429058Y-69749499D01*
X187270943Y-69749499D01*
X187169125Y-69776781D01*
X187118215Y-69790423D01*
X187015778Y-69849564D01*
X186947877Y-69866035D01*
X186881851Y-69843182D01*
X186838661Y-69788261D01*
X186832020Y-69718707D01*
X186864037Y-69656605D01*
X186866033Y-69654561D01*
X187767218Y-68753375D01*
X187767223Y-68753372D01*
X187777426Y-68743168D01*
X187777428Y-68743168D01*
X187889232Y-68631364D01*
X187968289Y-68494432D01*
X188009212Y-68341705D01*
X188009212Y-67160420D01*
X188009213Y-67160407D01*
X188009213Y-66992304D01*
X188009213Y-66992303D01*
X187968289Y-66839576D01*
X187946975Y-66802658D01*
X187889236Y-66702650D01*
X187889230Y-66702642D01*
X187289439Y-66102851D01*
X186676302Y-65489715D01*
X186673071Y-65483797D01*
X186667527Y-65479958D01*
X186656539Y-65453521D01*
X186642818Y-65428393D01*
X186643299Y-65421665D01*
X186640711Y-65415439D01*
X186645759Y-65387261D01*
X186647802Y-65358701D01*
X186652134Y-65351677D01*
X186653033Y-65346665D01*
X186668333Y-65325418D01*
X186673127Y-65317649D01*
X186674678Y-65315978D01*
X186780472Y-65210185D01*
X186794520Y-65186945D01*
X186803188Y-65177614D01*
X186822706Y-65166001D01*
X186839455Y-65150663D01*
X186854258Y-65147229D01*
X186863234Y-65141889D01*
X186875461Y-65142310D01*
X186894045Y-65138000D01*
X189155067Y-65138000D01*
X189222106Y-65157685D01*
G37*
G04 #@! TD.AperFunction*
G04 #@! TA.AperFunction,Conductor*
G36*
X191292539Y-60120185D02*
G01*
X191338294Y-60172989D01*
X191349500Y-60224500D01*
X191349500Y-61229191D01*
X191329815Y-61296230D01*
X191313181Y-61316872D01*
X191281923Y-61348129D01*
X191281917Y-61348137D01*
X191198255Y-61489603D01*
X191198254Y-61489606D01*
X191152402Y-61647426D01*
X191152401Y-61647432D01*
X191149500Y-61684298D01*
X191149500Y-62840701D01*
X191152401Y-62877567D01*
X191152402Y-62877573D01*
X191198254Y-63035393D01*
X191198255Y-63035396D01*
X191281917Y-63176862D01*
X191286702Y-63183031D01*
X191285018Y-63184336D01*
X191313246Y-63236031D01*
X191308262Y-63305723D01*
X191276234Y-63353461D01*
X191250000Y-63377702D01*
X191250000Y-63643184D01*
X191232733Y-63706304D01*
X191198254Y-63764605D01*
X191198254Y-63764606D01*
X191152402Y-63922426D01*
X191152401Y-63922432D01*
X191149500Y-63959298D01*
X191149500Y-64413500D01*
X191146949Y-64422185D01*
X191148238Y-64431147D01*
X191137259Y-64455187D01*
X191129815Y-64480539D01*
X191122974Y-64486466D01*
X191119213Y-64494703D01*
X191096978Y-64508992D01*
X191077011Y-64526294D01*
X191066496Y-64528581D01*
X191060435Y-64532477D01*
X191025500Y-64537500D01*
X190974500Y-64537500D01*
X190907461Y-64517815D01*
X190861706Y-64465011D01*
X190850500Y-64413500D01*
X190850500Y-63959313D01*
X190850499Y-63959298D01*
X190848744Y-63937000D01*
X190847598Y-63922431D01*
X190842234Y-63903969D01*
X190809069Y-63789815D01*
X190801744Y-63764602D01*
X190767267Y-63706304D01*
X190750000Y-63643184D01*
X190750000Y-63377702D01*
X190723765Y-63353461D01*
X190687887Y-63293507D01*
X190690118Y-63223673D01*
X190714533Y-63183988D01*
X190713298Y-63183031D01*
X190718075Y-63176870D01*
X190718081Y-63176865D01*
X190801744Y-63035398D01*
X190847598Y-62877569D01*
X190850500Y-62840694D01*
X190850500Y-61684306D01*
X190847598Y-61647431D01*
X190839489Y-61619521D01*
X190801745Y-61489606D01*
X190801744Y-61489603D01*
X190801744Y-61489602D01*
X190718081Y-61348135D01*
X190718079Y-61348133D01*
X190718076Y-61348129D01*
X190601870Y-61231923D01*
X190601862Y-61231917D01*
X190460396Y-61148255D01*
X190460393Y-61148253D01*
X190317599Y-61106768D01*
X190258713Y-61069162D01*
X190229507Y-61005689D01*
X190239253Y-60936503D01*
X190284857Y-60883568D01*
X190313185Y-60869988D01*
X190419334Y-60834814D01*
X190568656Y-60742712D01*
X190692712Y-60618656D01*
X190784814Y-60469334D01*
X190839999Y-60302797D01*
X190849286Y-60211897D01*
X190875683Y-60147205D01*
X190932864Y-60107054D01*
X190972644Y-60100500D01*
X191225500Y-60100500D01*
X191292539Y-60120185D01*
G37*
G04 #@! TD.AperFunction*
M02*
