%TF.GenerationSoftware,KiCad,Pcbnew,10.0.1*%
%TF.CreationDate,2026-05-22T22:55:13-07:00*%
%TF.ProjectId,Carry,43617272-792e-46b6-9963-61645f706362,rev?*%
%TF.SameCoordinates,Original*%
%TF.FileFunction,Legend,Top*%
%TF.FilePolarity,Positive*%
%FSLAX46Y46*%
G04 Gerber Fmt 4.6, Leading zero omitted, Abs format (unit mm)*
G04 Created by KiCad (PCBNEW 10.0.1) date 2026-05-22 22:55:13*
%MOMM*%
%LPD*%
G01*
G04 APERTURE LIST*
%ADD10C,0.150000*%
%ADD11C,0.100000*%
%ADD12C,0.120000*%
G04 APERTURE END LIST*
D10*
X118376905Y-69229819D02*
X118376905Y-68229819D01*
X118376905Y-68229819D02*
X118615000Y-68229819D01*
X118615000Y-68229819D02*
X118757857Y-68277438D01*
X118757857Y-68277438D02*
X118853095Y-68372676D01*
X118853095Y-68372676D02*
X118900714Y-68467914D01*
X118900714Y-68467914D02*
X118948333Y-68658390D01*
X118948333Y-68658390D02*
X118948333Y-68801247D01*
X118948333Y-68801247D02*
X118900714Y-68991723D01*
X118900714Y-68991723D02*
X118853095Y-69086961D01*
X118853095Y-69086961D02*
X118757857Y-69182200D01*
X118757857Y-69182200D02*
X118615000Y-69229819D01*
X118615000Y-69229819D02*
X118376905Y-69229819D01*
X119900714Y-69229819D02*
X119329286Y-69229819D01*
X119615000Y-69229819D02*
X119615000Y-68229819D01*
X119615000Y-68229819D02*
X119519762Y-68372676D01*
X119519762Y-68372676D02*
X119424524Y-68467914D01*
X119424524Y-68467914D02*
X119329286Y-68515533D01*
D11*
X110383095Y-66667419D02*
X110383095Y-67476942D01*
X110383095Y-67476942D02*
X110430714Y-67572180D01*
X110430714Y-67572180D02*
X110478333Y-67619800D01*
X110478333Y-67619800D02*
X110573571Y-67667419D01*
X110573571Y-67667419D02*
X110764047Y-67667419D01*
X110764047Y-67667419D02*
X110859285Y-67619800D01*
X110859285Y-67619800D02*
X110906904Y-67572180D01*
X110906904Y-67572180D02*
X110954523Y-67476942D01*
X110954523Y-67476942D02*
X110954523Y-66667419D01*
X111954523Y-67667419D02*
X111383095Y-67667419D01*
X111668809Y-67667419D02*
X111668809Y-66667419D01*
X111668809Y-66667419D02*
X111573571Y-66810276D01*
X111573571Y-66810276D02*
X111478333Y-66905514D01*
X111478333Y-66905514D02*
X111383095Y-66953133D01*
D10*
X97456557Y-68111260D02*
X97456557Y-68920783D01*
X97456557Y-68920783D02*
X97504176Y-69016021D01*
X97504176Y-69016021D02*
X97551795Y-69063641D01*
X97551795Y-69063641D02*
X97647033Y-69111260D01*
X97647033Y-69111260D02*
X97837509Y-69111260D01*
X97837509Y-69111260D02*
X97932747Y-69063641D01*
X97932747Y-69063641D02*
X97980366Y-69016021D01*
X97980366Y-69016021D02*
X98027985Y-68920783D01*
X98027985Y-68920783D02*
X98027985Y-68111260D01*
X98456557Y-68206498D02*
X98504176Y-68158879D01*
X98504176Y-68158879D02*
X98599414Y-68111260D01*
X98599414Y-68111260D02*
X98837509Y-68111260D01*
X98837509Y-68111260D02*
X98932747Y-68158879D01*
X98932747Y-68158879D02*
X98980366Y-68206498D01*
X98980366Y-68206498D02*
X99027985Y-68301736D01*
X99027985Y-68301736D02*
X99027985Y-68396974D01*
X99027985Y-68396974D02*
X98980366Y-68539831D01*
X98980366Y-68539831D02*
X98408938Y-69111260D01*
X98408938Y-69111260D02*
X99027985Y-69111260D01*
X96049853Y-81566282D02*
X96049853Y-80566282D01*
X96049853Y-80566282D02*
X96383186Y-81280567D01*
X96383186Y-81280567D02*
X96716519Y-80566282D01*
X96716519Y-80566282D02*
X96716519Y-81566282D01*
X97192710Y-81566282D02*
X97192710Y-80566282D01*
X97764138Y-81566282D02*
X97335567Y-80994853D01*
X97764138Y-80566282D02*
X97192710Y-81137710D01*
X98716519Y-81566282D02*
X98145091Y-81566282D01*
X98430805Y-81566282D02*
X98430805Y-80566282D01*
X98430805Y-80566282D02*
X98335567Y-80709139D01*
X98335567Y-80709139D02*
X98240329Y-80804377D01*
X98240329Y-80804377D02*
X98145091Y-80851996D01*
%TO.C,D1*%
D12*
X117185000Y-63845000D02*
X121045000Y-63845000D01*
X117185000Y-67695000D02*
X117185000Y-63845000D01*
X120515000Y-67695000D02*
X117185000Y-67695000D01*
X121045000Y-63845000D02*
X121045000Y-67695000D01*
%TO.C,U1*%
D11*
X100645000Y-69750000D02*
X121645000Y-69750000D01*
X121645000Y-97890000D01*
X100645000Y-97890000D01*
X100645000Y-69750000D01*
%TO.C,U2*%
D12*
X97308462Y-69496441D02*
X99128462Y-69496441D01*
X97308462Y-69546441D02*
X97308462Y-69496441D01*
X97308462Y-72616441D02*
X97308462Y-72566441D01*
X99128462Y-69496441D02*
X99128462Y-69546441D01*
X99128462Y-70666441D02*
X99128462Y-71446441D01*
X99128462Y-72566441D02*
X99128462Y-72616441D01*
X99128462Y-72616441D02*
X97308462Y-72616441D01*
X96768462Y-69546441D02*
X96528462Y-69216441D01*
X97008462Y-69216441D01*
X96768462Y-69546441D01*
G36*
X96768462Y-69546441D02*
G01*
X96528462Y-69216441D01*
X97008462Y-69216441D01*
X96768462Y-69546441D01*
G37*
%TO.C,MK1*%
X95934377Y-85961463D02*
X95934377Y-82561463D01*
X96234377Y-82261463D02*
X98784377Y-82261463D01*
X98784377Y-82261463D02*
X98784377Y-85961463D01*
X98784377Y-85961463D02*
X95934377Y-85961463D01*
X95934377Y-82261463D02*
X95654377Y-82261463D01*
X95934377Y-81981463D01*
X95934377Y-82261463D01*
G36*
X95934377Y-82261463D02*
G01*
X95654377Y-82261463D01*
X95934377Y-81981463D01*
X95934377Y-82261463D01*
G37*
%TD*%
M02*
